<?xml version="1.0" encoding="utf-8"?>
<!-- Designed by Vexels.com - 2020 All Rights Reserved - https://vexels.com/terms-and-conditions/  -->
<svg version="1.1" id="Layer_1" xmlns="http://www.w3.org/2000/svg" xmlns:xlink="http://www.w3.org/1999/xlink" x="0px" y="0px"
	 viewBox="0 0 1200 1200" enable-background="new 0 0 1200 1200" xml:space="preserve">
<g>
	<g>
		<path fill="#E2DED0" d="M364.474,801.183c21.829-2.548,43.78-4.364,65.365-7.616c53.983-8.134,114.75-2.902,168.18,6.664
			c76.773,13.745,152.148,52.03,195.217,117.053c20.159,30.434,32.77,66.974,29.388,103.322
			c-5.226,56.161-49.831,104.499-103.608,121.51s-114.138,5.33-162.407-23.849c-38.834-23.475-71.474-57.849-114.025-73.614
			c-50.245-18.615-105.85-8.419-159.432-8.209c-28.131,0.11-59.053-3.916-78.125-24.595
			c-61.946-67.164,3.828-162.034,71.513-190.443C304.781,809.554,334.513,804.68,364.474,801.183z"/>
		<path fill="#E2DED0" d="M537.85,570.349c44.292,2.266,88.642,7.322,131.413,19.051c23.49,6.442,46.447,14.879,70.258,20.011
			c67.036,14.449,139.633,1.055,197.1-36.365c15.781-10.276,30.59-22.421,41.816-37.541c16.18-21.791,24.15-48.775,27.198-75.744
			c1.339-11.85,1.76-24.047-1.534-35.509c-9.452-32.892-47.112-50.362-81.334-50.146s-66.783,13.523-99.888,22.198
			c-147.235,38.582-304.517-14.594-454.747,9.856c-49.131,7.996-96.81,24.283-141.111,46.982
			c-54.691,28.022-107.519,70.488-122.635,130.052c-8.152,32.122-0.875,72.222,35.237,83.196
			c27.347,8.311,58.66-25.711,81.596-37.968c60.839-32.513,129.098-49.152,197.438-55.773
			C458.248,568.812,498.139,568.317,537.85,570.349z"/>
		<path fill="#E2DED0" d="M211.485,708.963c69.221-36.203,143.331-63.043,219.681-79.561c39.335-8.51,79.596-14.307,119.765-11.851
			c43.169,2.64,85.125,14.717,126.764,26.408c55.194,15.496,110.926,30.507,168.063,35.173
			c57.137,4.666,116.305-1.531,167.798-26.727c21.502-10.521,46.167-24.51,67.654-13.958c24.098,11.834,25.503,46.52,15.47,71.421
			c-24.131,59.89-90.424,93.948-154.752,99.514S813.812,797.46,751.164,781.83c-90.334-22.537-182.236-41.6-275.326-43.164
			c-93.088-1.564-188.058,15.187-269.358,60.553c-20.842,11.63-41.594,25.746-65.399,30.452
			c-18.159,3.59-50.678-1.152-42.487-27.284c5.972-19.052,33.614-40.71,48.65-52.839C166.996,733.613,189.044,720.7,211.485,708.963
			z"/>
		<path fill="#E2DED0" d="M922.799,342.973c36.643-9.209,73.35-21.181,104.046-43.21c58.881-42.257,88.236-121.782,70.933-192.161
			c-3.447-14.019-8.78-27.992-18.532-38.637c-27.317-29.819-78.672-21.512-109.696,4.429
			c-13.065,10.924-23.958,24.285-37.243,34.941s-30.108,18.664-46.942,16.088c-7.478-1.144-14.471-4.297-21.638-6.718
			c-44.379-14.99-97.418,0.92-126.218,37.863c-16.358,20.983-24.832,46.915-37.999,70.033
			c-31.153,54.694-86.842,90.849-143.668,117.919c-8.671,4.131-19.004,13.682-13.017,21.192c2.624,3.291,7.278,3.959,11.468,4.362
			C674.442,380.627,805.605,372.427,922.799,342.973z"/>
		<path fill="#E2DED0" d="M268.68,383.57c61.939-18.794,128.757-14.97,191.366-31.395c37.885-9.939,73.808-27.297,105.138-50.802
			c12.261-9.199,24.008-19.542,32.046-32.593c8.038-13.052,12.028-29.213,7.932-43.983c-1.712-6.172-4.865-12.051-9.638-16.323
			c-7.007-6.27-16.732-8.506-26.099-9.324c-17.393-1.519-35.135,1.125-51.33,7.65c-29.72,11.974-52.743,35.992-79.935,52.941
			c-36.228,22.581-78.911,32.07-120.873,39.919c-41.961,7.849-84.762,14.618-123.442,32.682
			c-37.713,17.613-81.405,53.572-85.87,98.261c-5.546,55.506,68.661-0.972,83.243-10.424
			C215.253,404.598,241.237,391.897,268.68,383.57z"/>
	</g>
	<g>
		<path fill="#F29681" d="M657.745,782.36c-10.245,26.57-21.788,53.305-40.81,74.499c-11.378,12.682-25.112,23.002-37.367,34.838
			c-2.26,2.185-4.507,4.47-5.928,7.273c-1.361,2.688-1.898,5.725-3.131,8.475c-1.651,3.683-4.442,6.642-7.307,9.539
			c-1.121,1.133-2.254,2.254-3.337,3.409c-9.642,10.273-15.498,23.436-21.176,36.327l-6.692,6.099
			c-9.211-17.895,1.308-41.671-9.071-58.914c-5.612-9.318-16.253-14.611-22.324-23.635c-5.572-8.281-6.674-18.963-4.938-28.792
			c1.739-9.829,6.068-18.994,10.684-27.843c17.39-33.34,39.399-64.061,62.653-93.612c4.364-5.547,9.277-11.39,16.128-13.079
			c4.823-1.186,9.889-0.106,14.686,1.164c18.507,4.91,36.237,12.739,52.334,23.105c2.99,1.926,5.993,4.005,8.006,6.936
			c0.003,0.003,0.006,0.009,0.009,0.013c2.104,3.059,2.959,6.836,3.1,10.547C663.579,766.856,660.679,774.75,657.745,782.36z"/>
		<path fill="#F39D89" d="M815.895,529.79c-1.483,7.133-4.773,13.837-9.355,19.5c-2.532,3.131-5.459,5.943-8.693,8.331
			c-2.94,2.172-6.137,3.992-9.527,5.384c-0.596,0.247-1.199,0.478-1.804,0.699c-5.191,1.898-10.675,2.934-16.138,3.836
			c-16.709,2.762-33.605,4.383-50.536,4.844c-3.768,0.103-7.601,0.14-11.234-0.868c-4.229-1.171-7.988-3.724-11.084-6.836
			c-6.065-6.099-9.754-14.502-10.135-23.095c-0.228-5.166,0.091-11.552-4.411-14.096l9.505-9.998
			c33.805-5.316,67.969-8.347,102.183-9.068c4.486-0.097,8.968-0.153,13.453-0.169c1.592-0.006,3.281,0.022,4.629,0.871
			c1.414,0.896,2.166,2.532,2.681,4.123C817.147,518.559,817.032,524.33,815.895,529.79z"/>
		<path fill="#EC9B88" d="M809.706,632.962c-2.313,7.716-8.113,14.115-15.254,17.892c-1.295,0.69-2.634,1.289-4.005,1.795
			c-6.127,2.263-12.742,2.787-19.262,3.112c-5.706,0.287-11.737,0.368-16.743-2.385c-6.427-3.534-9.726-11.025-10.744-18.292
			c-1.342-9.555,0.568-19.54,5.341-27.927l10.491-8.262c6.655,1.117,13.447,0.805,20.189,1.105c0.671,0.028,1.342,0.062,2.013,0.106
			c7.404,0.481,15.083,2.107,20.767,6.873C809.79,613.094,812.437,623.848,809.706,632.962z"/>
		<path fill="#EE7471" d="M772.913,677.316c8.702,2.013,17.559,5.191,23.643,11.731c6.084,6.54,8.473,17.21,3.383,24.549
			c-1.507,2.173-3.554,3.935-5.013,6.141c-1.458,2.206-2.253,5.169-0.959,7.476c0.747,1.332,2.064,2.229,3.116,3.336
			c3.931,4.138,3.676,11.056,0.634,15.886s-8.251,7.881-13.565,9.963c-8.395,3.289-17.557,4.603-26.538,3.808
			c-1.573-0.139-3.196-0.361-4.54-1.19c-1.171-0.722-2.036-1.85-2.732-3.036c-2.868-4.887-3.18-10.811-3.344-16.474
			c-0.242-8.342-0.317-16.777,1.478-24.927c2.556-11.609,8.757-22.037,14.864-32.235"/>
		<path fill="#EE7471" d="M657.745,782.36c-10.245,26.57-21.788,53.305-40.81,74.499c-11.378,12.682-25.112,23.002-37.367,34.838
			c-2.26,2.185-4.507,4.47-5.928,7.273c-1.361,2.688-1.898,5.725-3.131,8.475c-1.651,3.683-4.442,6.642-7.307,9.539
			c0.006-0.065,0.016-0.134,0.022-0.2c1.267-11.275,0.868-22.737-1.18-33.896c4.866-1.074,10.035-0.727,14.714,0.98
			c1.314,0.481,2.722,1.074,4.061,0.674c1.121-0.331,1.926-1.289,2.659-2.194c5.434-6.708,10.869-13.416,16.303-20.121
			c2.338-2.884,4.826-6.396,3.867-9.985c-0.412-1.545-1.43-2.853-2.503-4.036c-8.993-9.898-24.179-13.606-36.724-8.971
			c-6.449,2.385-12.024,6.674-18.329,9.417c-6.305,2.744-14.159,3.696-19.671-0.415c3.63-14.664,9.68-28.723,17.833-41.44
			l10.226-16.743c22.911-16.066,46.7-32.004,73.775-39.071c10.363-2.709,21.326-4.017,31.91-2.822
			c2.104,3.059,2.959,6.836,3.1,10.547C663.579,766.856,660.679,774.75,657.745,782.36z"/>
		<path fill="#31353E" d="M525.734,508.19c0.282-42.065-0.803-75.077,0.073-110.291c0.255-10.268,4.235-20.974,13.456-26.295
			c5.273-3.043,11.308-4.453,17.267-5.7c58.883-12.322,122.029-15.302,182.001-11.24c17.003,1.151,35.522,3.692,35.737,24.272
			c0.607,57.918,2.752,115.791,4.408,173.676c2.027,65.665,2.119,131.349,2.18,197.037c0.007,7.946,0.015,15.891,0.022,23.837
			c0.006,6.812,0.81,14.477-1.698,20.939c-3.928,10.123-17.223,11.241-26.523,12.172c-49.471,4.953-98.788,11.479-148.413,14.933
			c-12.168,0.847-24.342,1.594-36.519,2.241c-5.259,0.28-22.639,2.456-27.475,0.064c-13.521-6.689-11.568-14.522-11.678-17.294
			C524.885,713.218,525.508,522.193,525.734,508.19"/>
		<path fill="#83C3B8" d="M544.55,507.35c0.241-35.857-0.685-63.997,0.062-94.014c0.218-8.753,3.61-17.878,11.47-22.414
			c4.495-2.594,9.639-3.795,14.719-4.858c50.193-10.504,104.02-13.043,155.14-9.581c14.494,0.982,30.279,3.147,30.463,20.69
			c0.517,49.37,2.346,98.702,3.758,148.044c1.728,55.973,1.806,111.964,1.858,167.958c0.006,6.773,0.013,13.546,0.019,20.319
			c0.005,5.806,0.69,12.34-1.447,17.848c-3.349,8.629-14.681,9.582-22.609,10.376c-42.17,4.222-84.208,9.785-126.509,12.729
			c-10.372,0.722-20.749,1.359-31.13,1.911c-4.483,0.238-19.298,2.094-23.42,0.055c-11.526-5.701-9.861-12.379-9.954-14.741
			C543.827,682.119,544.358,519.286,544.55,507.35"/>
		<g>
			<path fill="#019798" d="M693.861,432.586c0,12.214-5.962,23.033-15.133,29.704c-6.062,4.417-13.522,7.02-21.591,7.02
				c-5.622,0-10.947-1.264-15.71-3.521c-12.423-5.887-21.017-18.541-21.017-33.203c0-20.28,16.444-36.724,36.727-36.724
				C677.417,395.862,693.861,412.306,693.861,432.586z"/>
			<path fill="#EDE2BB" d="M671.065,449.704c-1.724-2.666-3.446-5.334-5.168-8.001c3.821-3.299,6.314-8.693,6.314-14.793
				c0-10.043-6.749-18.184-15.076-18.184c-8.326,0-15.075,8.141-15.075,18.184c0,6.909,3.195,12.918,7.9,15.995
				c-3.739,7.253-6.61,14.953-8.533,22.883c4.763,2.257,10.088,3.521,15.71,3.521c8.069,0,15.529-2.603,21.591-7.02
				C676.403,457.975,673.727,453.827,671.065,449.704z"/>
		</g>
		<path fill="#3DB29F" d="M565.889,550.362c-6.287,0.205-11.031,5.602-10.656,11.881c1.519,25.383,1.66,42.056,4.581,45.126
			c1.952,2.05,140.283-7.932,180.986-10.133c6.106-0.33,10.781-5.557,10.432-11.662l-1.74-30.417
			c-0.342-5.986-5.397-10.606-11.39-10.411L565.889,550.362z"/>
		<g>
			<path fill="#019798" d="M608.42,576.192c0,6.796-3.317,12.816-8.42,16.527c-3.373,2.458-7.524,3.906-12.013,3.906
				c-3.128,0-6.091-0.703-8.741-1.959c-6.912-3.276-11.694-10.316-11.694-18.474c0-11.284,9.149-20.433,20.435-20.433
				C599.271,555.759,608.42,564.908,608.42,576.192z"/>
			<path fill="#EDE2BB" d="M595.736,585.717c-0.959-1.483-1.917-2.968-2.875-4.452c2.126-1.835,3.513-4.837,3.513-8.231
				c0-5.588-3.755-10.118-8.388-10.118c-4.633,0-8.388,4.53-8.388,10.118c0,3.844,1.778,7.188,4.395,8.9
				c-2.08,4.036-3.678,8.32-4.748,12.732c2.65,1.256,5.613,1.959,8.741,1.959c4.49,0,8.641-1.448,12.013-3.906
				C598.706,590.319,597.218,588.011,595.736,585.717z"/>
		</g>
		<path fill="#3DB29F" d="M565.889,618.603c-6.287,0.205-11.031,5.602-10.656,11.881c1.519,25.383,1.66,42.056,4.581,45.126
			c1.952,2.05,140.283-7.932,180.986-10.133c6.106-0.33,10.781-5.557,10.432-11.662l-1.74-30.417
			c-0.342-5.986-5.397-10.606-11.39-10.411L565.889,618.603z"/>
		<g>
			<path fill="#019798" d="M608.42,644.434c0,6.796-3.317,12.816-8.42,16.527c-3.373,2.458-7.524,3.906-12.013,3.906
				c-3.128,0-6.091-0.703-8.741-1.959c-6.912-3.276-11.694-10.316-11.694-18.474c0-11.284,9.149-20.433,20.435-20.433
				C599.271,624,608.42,633.15,608.42,644.434z"/>
			<path fill="#EDE2BB" d="M595.736,653.958c-0.959-1.483-1.917-2.968-2.875-4.452c2.126-1.835,3.513-4.837,3.513-8.231
				c0-5.588-3.755-10.118-8.388-10.118c-4.633,0-8.388,4.53-8.388,10.118c0,3.844,1.778,7.188,4.395,8.9
				c-2.08,4.036-3.678,8.32-4.748,12.732c2.65,1.256,5.613,1.959,8.741,1.959c4.49,0,8.641-1.448,12.013-3.906
				C598.706,658.561,597.218,656.252,595.736,653.958z"/>
		</g>
		<path fill="#3DB29F" d="M568.199,686.845c-6.287,0.205-11.031,5.602-10.656,11.881c1.519,25.383,1.66,42.056,4.581,45.126
			c1.952,2.05,140.283-7.932,180.986-10.133c6.106-0.33,10.781-5.557,10.432-11.662l-1.74-30.417
			c-0.342-5.986-5.397-10.606-11.39-10.411L568.199,686.845z"/>
		<g>
			<path fill="#019798" d="M610.73,712.675c0,6.796-3.317,12.816-8.42,16.527c-3.373,2.458-7.524,3.906-12.013,3.906
				c-3.128,0-6.091-0.703-8.741-1.959c-6.912-3.276-11.694-10.316-11.694-18.474c0-11.284,9.149-20.433,20.435-20.433
				C601.58,692.242,610.73,701.391,610.73,712.675z"/>
			<path fill="#EDE2BB" d="M598.046,722.2c-0.959-1.483-1.917-2.968-2.875-4.452c2.126-1.835,3.513-4.837,3.513-8.231
				c0-5.588-3.755-10.118-8.388-10.118c-4.633,0-8.388,4.53-8.388,10.118c0,3.844,1.778,7.188,4.395,8.9
				c-2.08,4.036-3.678,8.32-4.748,12.732c2.65,1.256,5.613,1.959,8.741,1.959c4.49,0,8.641-1.448,12.013-3.906
				C601.016,726.802,599.527,724.494,598.046,722.2z"/>
		</g>
		<path fill="#F29681" d="M604.25,530.339c-9.857,21.46-23.148,41.34-39.218,58.649c-5.288,5.7-10.962,11.24-14.48,18.173
			c-2.791,5.5-4.089,11.634-4.951,17.739c-6.989,49.369,12.673,99.084,9.393,148.836c-0.727,11.059-2.619,22.034-5.597,32.709
			c-5.294,18.991-14.018,37.03-25.724,52.899c-2.222,3.012-4.648,6.193-4.901,9.929c-0.462,6.808,6.393,11.865,12.945,13.775
			c6.549,1.907,13.797,2.222,19.39,6.124c7.626,5.316,9.833,15.941,8.159,25.084c-1.676,9.14-6.449,17.358-10.354,25.792
			c-8.01,17.29-12.557,36.174-13.297,55.212c-5.587-0.222-10.095-4.398-14.246-8.141c-22.097-19.921-49.334-34.086-78.326-40.744
			c-8.256-1.895-16.859-2.969-25.346-2.475c-0.487,0.028-0.974,0.062-1.458,0.1c-4.573,0.362-9.158,1.13-13.506,2.625
			c-2.85,0.98-9.602,6.349-12.152,6.056c-3.037-0.35-3.983-2.965-3.88-6.458c0.187-6.477,3.986-15.96,4.763-19.531
			c2.491-11.453,4.56-23.005,5.837-34.66c1.882-17.199,2.048-34.56,4.236-51.722c1.436-11.278,3.727-22.374,6.536-33.359
			c10.65-41.705,28.727-81.847,35.606-124.451c2.438-15.111,3.474-30.54,7.966-45.173c7.329-23.86,23.355-44.068,32.944-67.111
			c4.364-10.482,7.785-22.115,16.569-29.307c4.382-3.59,9.742-5.728,15.008-7.816c19.765-7.829,39.527-15.66,59.292-23.489
			c4.66-1.848,9.324-3.693,13.984-5.541c2.881-1.139,5.918-2.304,8.996-1.935c0.006,0.003,0.009,0.003,0.016,0.003
			c5.587,0.677,9.477,6.411,9.911,12.024C608.801,519.767,606.6,525.223,604.25,530.339z"/>
		<path fill="#49B7A5" d="M620.41,489.999v2.867c0,4.028,2.826,7.294,6.311,7.294h62.843c3.654,0,6.544-3.575,6.297-7.789
			l-0.27-4.597c-0.229-3.895-3.071-6.891-6.448-6.797l-62.572,1.729C623.145,482.802,620.41,486.039,620.41,489.999z"/>
		<ellipse fill="#EE7471" cx="639.711" cy="520.328" rx="10.452" ry="12.074"/>
		<ellipse fill="#04A38D" cx="672.528" cy="520.328" rx="10.452" ry="12.074"/>
		<path fill="#EE7471" d="M575.458,509.603c-3.986,3.846-9.105,6.661-14.106,9.199c-8.416,4.273-16.993,8.228-25.705,11.858
			c-8.546,3.562-17.396,6.908-24.481,12.863c-12.873,10.816-17.72,28.121-25.427,43.063c-7.585,14.702-18.488,27.977-22.602,44.003
			c-3.989,15.548-1.136,32.023-3.146,47.948c-2.441,19.306-11.927,37.145-14.711,56.404
			c-10.01,69.286-21.663,139.178-27.581,208.958c-0.487,0.028-0.974,0.062-1.458,0.1c-4.573,0.362-9.158,1.13-13.506,2.625
			c-2.85,0.98-9.602,6.349-12.152,6.056c-8.668-0.996-0.312-20.492,0.883-25.989c2.491-11.453,4.56-23.005,5.837-34.66
			c1.882-17.199,2.048-34.56,4.236-51.722c6.886-54.088,33.449-103.981,42.143-157.81c2.438-15.111,3.474-30.54,7.966-45.173
			c7.329-23.86,23.355-44.068,32.944-67.111c4.364-10.482,7.785-22.115,16.569-29.307c4.382-3.59,9.742-5.728,15.008-7.816
			C535.931,525.264,555.693,517.432,575.458,509.603z"/>
		<path fill="#EE7471" d="M815.895,529.79c-1.483,7.133-4.773,13.837-9.355,19.5c0.041-0.112,0.081-0.222,0.122-0.331
			c2.06-5.528,3.187-11.403,3.315-17.299c0.078-3.702-0.25-7.476-1.648-10.906c-2.394-5.853-7.697-10.029-13.663-12.33
			c4.486-0.097,8.968-0.153,13.453-0.169c1.592-0.006,3.281,0.022,4.629,0.871c1.414,0.896,2.166,2.532,2.681,4.123
			C817.147,518.559,817.032,524.33,815.895,529.79z"/>
		<path fill="#EE7471" d="M809.706,632.962c-2.313,7.716-8.113,14.115-15.254,17.892c0.877-6.758,1.982-13.503,1.932-20.311
			c-0.056-7.76-1.754-15.785-6.496-21.931c-2.741-3.555-6.312-6.271-10.17-8.612c0.671,0.028,1.342,0.062,2.013,0.106
			c7.404,0.481,15.083,2.107,20.767,6.873C809.79,613.094,812.437,623.848,809.706,632.962z"/>
		
			<ellipse transform="matrix(0.9943 -0.1065 0.1065 0.9943 -79.9025 75.0079)" fill="#969593" cx="662.076" cy="785.341" rx="24.186" ry="7.598"/>
		<path fill="#31353E" d="M401.994,893.361c-0.066,13.797,4.32,27.316,4.386,41.112c0.012,2.535-0.197,5.269-1.82,7.214
			c-1.873,2.247-5.051,2.791-7.947,3.187c-3.302,0.449-6.608,0.899-9.911,1.348c0.187-6.477,3.986-15.96,4.763-19.531
			c2.491-11.453,4.56-23.005,5.837-34.66c1.882-17.199,2.048-34.56,4.236-51.722c1.436-11.278,3.727-22.374,6.536-33.359
			c-2.179,18.997-0.309,38.537-2.631,57.615C404.273,874.171,402.041,883.685,401.994,893.361z"/>
		<path fill="#894F58" d="M565.298,1101.985c-6.118,2.915-13.65-0.615-19.905-3.715c-3.555-1.76-7.157-3.402-10.8-4.938
			c-43.188-18.182-92.291-21.313-138.76-31.32c-7.944-1.71-16.35-3.905-21.841-9.423c-4.292-4.317-6.162-10.051-7.9-15.567
			c-9.48-30.091-19.006-61.948-10.17-91.592c1.398-4.701,3.334-9.405,6.967-12.966c3.892-3.818,9.424-6.003,15.036-7.395
			c13.691-3.399,28.414-2.619,42.664-0.549c0.216,0.031,0.434,0.062,0.649,0.094c6.149,0.908,12.27,2.057,18.335,3.44
			c41.103,9.346,79.712,29.351,107.936,58.121c6.299,6.424,12.136,13.338,15.954,21.129c7.822,15.969,8.038,34.913,10.348,51.881
			c0.375,2.759,0.858,6.202,1.202,9.939C576.151,1081.44,575.808,1096.978,565.298,1101.985z"/>
		<path fill="#FFF6DE" d="M604.25,530.339c-9.857,21.46-23.148,41.34-39.218,58.649c-5.288,5.7-10.962,11.24-14.48,18.173
			c-2.791,5.5-4.089,11.634-4.951,17.739c-6.989,49.369,12.673,99.084,9.393,148.836c-0.727,11.059-2.619,22.034-5.597,32.709
			c-0.222,0.184-0.449,0.359-0.68,0.531c-3.677,2.706-9.03,3.636-12.795,1.052c-2.784-1.913-4.192-5.363-4.464-8.731
			c-0.269-3.368,0.437-6.727,1.074-10.045c6.134-31.967,4.604-64.333,0.499-96.621c-1.779-14.003-3.562-28.002-5.341-42.002
			c-0.446-3.512-0.908-7.079-2.297-10.335c-3.39-7.935-11.531-12.576-19.138-16.653c2.269-4.464,7.392-6.636,12.249-7.863
			c4.854-1.227,10.032-1.938,14.115-4.835c-2.581-4.863-7.02-8.709-12.199-10.579c-5.456-1.966-12.429-2.379-15.142-7.501
			c7.622-2.731,15.975-3.393,23.932-1.895c5.949,1.121,12.202,3.396,17.836,1.186c2.279-0.893,4.22-2.453,6.102-4.014
			c11.961-9.92,23.223-20.901,31.745-33.896c8.521-12.991,14.209-28.155,14.284-43.694c0.013-2.822-0.162-5.669-0.74-8.425
			c0.006,0.003,0.009,0.003,0.016,0.003c5.587,0.677,9.477,6.411,9.911,12.024C608.801,519.767,606.6,525.223,604.25,530.339z"/>
		<path fill="#FFF6DE" d="M797.847,557.62c-2.94,2.172-6.137,3.992-9.527,5.384c-0.596,0.247-1.199,0.478-1.804,0.699
			c-0.556-0.562-1.002-1.252-1.299-1.979c-0.665-1.617-0.737-3.409-0.796-5.157c-0.359-10.382-0.584-20.77-0.718-31.158
			c-0.031-2.588-0.774-6.458,1.842-8.031c3.072-1.845,8.625,1.18,10.859,3.187c3.967,3.562,5.903,8.924,6.527,14.218
			C803.859,542.681,802.049,550.897,797.847,557.62z"/>
		<path fill="#FFF6E0" d="M783.901,636.954c-0.124,3.477-0.365,7.043,0.693,10.357c0.172,0.539,0.39,1.087,0.803,1.475
			c0.878,0.825,2.373,0.616,3.302-0.151c0.929-0.767,1.415-1.935,1.811-3.073c3.525-10.111,2.506-21.712-2.726-31.055
			c-0.614-1.096-3.136-4.902-4.834-3.695c-1.161,0.826,0.234,5.987,0.349,7.136C783.925,624.261,784.127,630.615,783.901,636.954z"
			/>
		<path fill="#FFF6E1" d="M756.545,792.929c3.995-0.337,8.66-1.098,10.509-4.656c2.054-3.951-0.304-9.901,3.261-12.568
			c0.436,4.908,0.21,9.874-0.668,14.722c-0.243,1.34-0.554,2.715-1.354,3.818c-0.902,1.242-2.323,1.996-3.749,2.564
			c-3.265,1.3-6.776,1.837-10.259,2.306c-18.004,2.424-36.177,3.282-54.324,4.138c-3.675,0.173-12.682-3.164-5.094-5.593
			c4.85-1.552,12.333-0.564,17.493-1C727.088,795.417,741.817,794.173,756.545,792.929z"/>
		<path fill="#FFF6E1" d="M533.217,382.629c-0.379,0.976-0.676,2.06-0.355,3.056c0.321,0.996,1.494,1.77,2.437,1.316
			c0.502-0.242,0.811-0.748,1.095-1.228c1.238-2.092,2.547-4.21,4.451-5.721c3.392-2.693,8.036-3.013,12.064-4.604
			c0.625-0.247,1.258-0.54,1.701-1.045s0.652-1.272,0.334-1.864c-0.342-0.637-1.135-0.859-1.849-0.975
			C544.543,370.185,536.445,374.314,533.217,382.629z"/>
		<path fill="#FFF6E1" d="M575.012,1069.123c-2.903-2.407-5.113-5.793-7.12-9.062c-7.479-12.174-15.442-25.502-28.755-30.687
			c-1.473-0.571-3.125-1.146-3.883-2.531c-1.33-2.435,1.305-5.434,4.058-5.772c2.753-0.334,5.406,0.946,8.072,1.711
			c2.669,0.768,5.965,0.852,7.76-1.261c2.784-3.281-0.4-8.122-3.443-11.162c-4.52-4.514-9.04-9.027-13.559-13.541
			c-8.362-8.35-16.831-16.784-26.929-22.924c-10.541-6.405-22.484-10.082-33.543-15.538c-14.664-7.232-27.74-17.655-38.097-30.303
			c41.103,9.346,79.712,29.351,107.936,58.121c6.299,6.424,12.136,13.338,15.954,21.129c7.822,15.969,8.038,34.913,10.348,51.881
			C574.184,1061.943,574.668,1065.386,575.012,1069.123z"/>
		<path fill="#31353E" d="M534.592,1093.333c-43.188-18.182-92.291-21.313-138.76-31.32c-7.944-1.71-16.35-3.905-21.841-9.423
			c-4.292-4.317-6.162-10.051-7.9-15.567c-9.48-30.091-19.006-61.948-10.17-91.592c1.398-4.701,3.334-9.405,6.967-12.966
			c3.892-3.818,9.424-6.003,15.036-7.395c13.691-3.399,28.414-2.619,42.664-0.549c-4.841,2.909-16.803,2.766-21.56,4.086
			c-9.255,2.569-18.179,6.636-25.346,13.144c-4.517,4.102-8.122,11.668-3.621,15.785c1.895,1.732,4.626,2.123,7.182,2.372
			c13.088,1.292,27.153,1.292,37.978,8.762c-6.543,2.213-13.088,4.426-19.631,6.642c-2.794,0.943-5.709,1.966-7.722,4.123
			c-2.013,2.157-2.734,5.825-0.765,8.022c1.701,1.895,4.56,1.995,7.061,2.488c2.497,0.49,5.341,2.198,5.082,4.732
			c-0.134,1.336-1.127,2.407-2.07,3.365c-2.269,2.304-4.629,4.645-5.903,7.616c-1.274,2.972-1.196,6.773,1.077,9.071
			c1.361,1.38,3.274,2.023,5.088,2.706c14.608,5.534,26.467,16.375,39.617,24.812c25.421,16.319,55.636,23.626,81.894,38.559
			C524.71,1084.081,530.565,1088.195,534.592,1093.333z"/>
	</g>
</g>
</svg>
