<?xml version="1.0" encoding="UTF-8" standalone="no"?>
<svg
   xmlns:dc="http://purl.org/dc/elements/1.1/"
   xmlns:cc="http://creativecommons.org/ns#"
   xmlns:rdf="http://www.w3.org/1999/02/22-rdf-syntax-ns#"
   xmlns:svg="http://www.w3.org/2000/svg"
   xmlns="http://www.w3.org/2000/svg"
   xmlns:sodipodi="http://sodipodi.sourceforge.net/DTD/sodipodi-0.dtd"
   xmlns:inkscape="http://www.inkscape.org/namespaces/inkscape"
   version="1.1"
   id="svg2"
   xml:space="preserve"
   width="3029.3333"
   height="2496"
   viewBox="0 0 3029.3333 2496"
   sodipodi:docname="Group of People.ai"><metadata
     id="metadata8"><rdf:RDF><cc:Work
         rdf:about=""><dc:format>image/svg+xml</dc:format><dc:type
           rdf:resource="http://purl.org/dc/dcmitype/StillImage" /></cc:Work></rdf:RDF></metadata><defs
     id="defs6"><clipPath
       clipPathUnits="userSpaceOnUse"
       id="clipPath20"><path
         d="M 0,1872 H 2272 V 0 H 0 Z"
         id="path18" /></clipPath></defs><sodipodi:namedview
     pagecolor="#ffffff"
     bordercolor="#666666"
     borderopacity="1"
     objecttolerance="10"
     gridtolerance="10"
     guidetolerance="10"
     inkscape:pageopacity="0"
     inkscape:pageshadow="2"
     inkscape:window-width="640"
     inkscape:window-height="480"
     id="namedview4" /><g
     id="g10"
     inkscape:groupmode="layer"
     inkscape:label="Group of People"
     transform="matrix(1.3333333,0,0,-1.3333333,0,2496)"><path
       d="M 0.031,0 H 2271.969 V 1872 H 0.031 Z"
       style="fill:#ffffff;fill-opacity:1;fill-rule:nonzero;stroke:none"
       id="path12" /><g
       id="g14"><g
         id="g16"
         clip-path="url(#clipPath20)"><g
           id="g22"
           transform="translate(2073.6934,583.3418)"><path
             d="m 0,0 c 0,-12.557 -47.635,-22.736 -106.397,-22.736 -58.762,0 -106.398,10.179 -106.398,22.736 0,12.557 47.636,22.736 106.398,22.736 C -47.635,22.736 0,12.557 0,0"
             style="fill:#b3b3b3;fill-opacity:1;fill-rule:nonzero;stroke:none"
             id="path24" /></g><g
           id="g26"
           transform="translate(2040.752,1208.4248)"><path
             d="M 0,0 C 0,0 -18.64,5.06 -22.25,31.135 -25.861,57.211 12.928,50.127 19.705,9.565 Z"
             style="fill:#f0a379;fill-opacity:1;fill-rule:nonzero;stroke:none"
             id="path28" /></g><g
           id="g30"
           transform="translate(1871.374,983.0752)"><path
             d="m 0,0 c -4.032,-0.001 -7.979,1.998 -10.303,5.652 l -38.693,60.854 c -2.095,3.295 -2.485,7.393 -1.051,11.025 l 31.899,80.726 c 2.475,6.264 9.558,9.334 15.823,6.86 6.263,-2.475 9.335,-9.559 6.86,-15.823 L -25.08,74.348 10.279,18.739 C 13.894,13.056 12.215,5.519 6.531,1.905 4.503,0.615 2.238,0 0,0"
             style="fill:#f0a379;fill-opacity:1;fill-rule:nonzero;stroke:none"
             id="path32" /></g><g
           id="g34"
           transform="translate(2087.7695,1107.0117)"><path
             d="m 0,0 c -1.911,0 -3.834,0.449 -5.607,1.368 l -81.756,42.359 c -5.981,3.099 -8.317,10.458 -5.218,16.438 3.099,5.98 10.457,8.316 16.437,5.217 l 52.579,-27.241 -26.979,67.14 c -2.512,6.249 0.519,13.351 6.769,15.862 6.25,2.512 13.351,-0.519 15.861,-6.768 L 11.318,16.742 C 13.219,12.011 11.977,6.597 8.202,3.168 5.906,1.083 2.968,0 0,0"
             style="fill:#f0a379;fill-opacity:1;fill-rule:nonzero;stroke:none"
             id="path36" /></g><g
           id="g38"
           transform="translate(1938.8604,957.4888)"><path
             d="M 0,0 39.738,-163.501 16.896,-327.22 49.639,-334.971 79.477,-165.507 65.276,0 Z"
             style="fill:#1a365e;fill-opacity:1;fill-rule:nonzero;stroke:none"
             id="path40" /></g><g
           id="g42"
           transform="translate(2004.1143,615.499)"><path
             d="m 0,0 v 0 c -9.8,2.446 -15.761,12.374 -13.314,22.174 l 1.725,6.91 -35.074,8.756 -6.154,-24.654 -3.24,-12.977 -1.262,-5.058 c -0.913,-3.656 1.311,-7.361 4.966,-8.273 l 69.555,-17.363 0.324,1.297 C 20.747,-16.288 12.9,-3.22 0,0"
             style="fill:#797d86;fill-opacity:1;fill-rule:nonzero;stroke:none"
             id="path44" /></g><g
           id="g46"
           transform="translate(1947.2471,612.4639)"><path
             d="m 0,0 -0.452,-1.814 c -0.913,-3.656 1.311,-7.361 4.967,-8.273 l 69.554,-17.363 0.325,1.298 c 0.622,2.489 0.827,4.984 0.667,7.415 z"
             style="fill:#2b2b2b;fill-opacity:1;fill-rule:nonzero;stroke:none"
             id="path48" /></g><g
           id="g50"
           transform="translate(1996.2188,621.6055)"><path
             d="m 0,0 -21.626,5.398 c -3.345,0.835 -5.379,4.223 -4.544,7.568 0.835,3.345 4.223,5.379 7.566,4.544 L -5.627,14.271 C -0.85,13.078 2.057,8.238 0.864,3.46 Z"
             style="fill:#2b2b2b;fill-opacity:1;fill-rule:nonzero;stroke:none"
             id="path52" /></g><g
           id="g54"
           transform="translate(1888.8633,957.4888)"><path
             d="M 0,0 10.622,-154.256 13.848,-326 H 47.156 L 53.741,-156.442 65.276,0 Z"
             style="fill:#1a365e;fill-opacity:1;fill-rule:nonzero;stroke:none"
             id="path56" /></g><g
           id="g58"
           transform="translate(2014.7598,949.8013)"><path
             d="m 0,0 h -136.52 l 1.003,223.59 c 0.023,4.938 4.613,8.931 10.269,8.931 h 106.795 c 6.896,0 12.531,-4.809 12.687,-10.83 z"
             style="fill:#5dc4c9;fill-opacity:1;fill-rule:nonzero;stroke:none"
             id="path60" /></g><path
           d="m 1953.081,1176.973 h -23.07 v 57.364 h 23.07 z"
           style="fill:#f0a379;fill-opacity:1;fill-rule:nonzero;stroke:none"
           id="path62" /><g
           id="g64"
           transform="translate(1939.6543,1153.332)"><path
             d="M 0,0 H 11.574 C 27.586,0 40.565,12.979 40.565,28.991 H -28.991 C -28.991,12.979 -16.012,0 0,0"
             style="fill:#1a365e;fill-opacity:1;fill-rule:nonzero;stroke:none"
             id="path66" /></g><g
           id="g68"
           transform="translate(1951.1758,1159.1069)"><path
             d="M 0,0 H -11.469 C -24.395,0 -34.874,10.479 -34.874,23.405 H 23.405 C 23.405,10.479 12.927,0 0,0"
             style="fill:#f0a379;fill-opacity:1;fill-rule:nonzero;stroke:none"
             id="path70" /></g><g
           id="g72"
           transform="translate(1915.0264,1275.6309)"><path
             d="m 0,0 c 0,-7.541 -6.113,-13.653 -13.653,-13.653 -7.54,0 -13.654,6.112 -13.654,13.653 0,7.54 6.114,13.653 13.654,13.653 C -6.113,13.653 0,7.54 0,0"
             style="fill:#f0a379;fill-opacity:1;fill-rule:nonzero;stroke:none"
             id="path74" /></g><g
           id="g76"
           transform="translate(1910.2578,1275.6309)"><path
             d="m 0,0 c 0,-4.907 -3.979,-8.885 -8.885,-8.885 -4.906,0 -8.885,3.978 -8.885,8.885 0,4.906 3.979,8.884 8.885,8.884 C -3.979,8.884 0,4.906 0,0"
             style="fill:#d39271;fill-opacity:1;fill-rule:nonzero;stroke:none"
             id="path78" /></g><g
           id="g80"
           transform="translate(2005.4697,1280.3994)"><path
             d="m 0,0 c 0,-7.541 -6.112,-13.653 -13.652,-13.653 -7.541,0 -13.654,6.112 -13.654,13.653 0,7.54 6.113,13.653 13.654,13.653 C -6.112,13.653 0,7.54 0,0"
             style="fill:#f0a379;fill-opacity:1;fill-rule:nonzero;stroke:none"
             id="path82" /></g><g
           id="g84"
           transform="translate(2000.7012,1280.3994)"><path
             d="m 0,0 c 0,-4.907 -3.978,-8.885 -8.884,-8.885 -4.907,0 -8.885,3.978 -8.885,8.885 0,4.906 3.978,8.884 8.885,8.884 C -3.978,8.884 0,4.906 0,0"
             style="fill:#d39271;fill-opacity:1;fill-rule:nonzero;stroke:none"
             id="path86" /></g><g
           id="g88"
           transform="translate(1951.2422,1213.2725)"><path
             d="M 0,0 V 0 C -23.821,0 -43.132,19.311 -43.132,43.132 V 122.63 H 43.133 V 43.132 C 43.133,19.311 23.821,0 0,0"
             style="fill:#f0a379;fill-opacity:1;fill-rule:nonzero;stroke:none"
             id="path90" /></g><g
           id="g92"
           transform="translate(1918.8096,1318.9302)"><path
             d="m 0,0 v -55.727 c 0,0 -1.783,-26.302 39.231,-26.302 0,0 36.334,-4.013 36.334,24.965 0,0 10.477,-41.46 0,-48.594 -10.476,-7.133 -71.552,-22.29 -84.481,12.037 -12.929,34.328 -4.458,92.729 -4.458,92.729 z"
             style="fill:#4d371f;fill-opacity:1;fill-rule:nonzero;stroke:none"
             id="path94" /></g><g
           id="g96"
           transform="translate(1994.375,1317.5928)"><path
             d="m 0,0 c 0,0 -88.939,-23.183 -121.93,6.241 0,0 21.021,11.425 36.727,23.314 17.324,13.113 39.091,19.299 60.655,16.642 C -3.288,43.578 14.377,32.767 0,0"
             style="fill:#4d371f;fill-opacity:1;fill-rule:nonzero;stroke:none"
             id="path98" /></g><g
           id="g100"
           transform="translate(1967.8486,1279.3086)"><path
             d="M 0,0 C 0,0 3.678,-16.718 7.188,-19.56 10.699,-22.402 -2.006,-30.928 -8.358,-24.575 -14.712,-18.223 0,0 0,0"
             style="fill:#d39271;fill-opacity:1;fill-rule:nonzero;stroke:none"
             id="path102" /></g><g
           id="g104"
           transform="translate(2074.3262,1146.7798)"><path
             d="M 0,0 -15.394,-29.96 -81.306,3.907 c -8.273,4.251 -11.534,14.404 -7.283,22.676 4.251,8.274 14.403,11.535 22.677,7.284 z"
             style="fill:#5dc4c9;fill-opacity:1;fill-rule:nonzero;stroke:none"
             id="path106" /></g><g
           id="g108"
           transform="translate(1875.498,1005.6919)"><path
             d="m 0,0 c 0,0 19.271,1.303 31.196,-22.165 11.927,-23.467 -27.05,-29.437 -46.699,6.69 z"
             style="fill:#f0a379;fill-opacity:1;fill-rule:nonzero;stroke:none"
             id="path110" /></g><g
           id="g112"
           transform="translate(1836.1484,1106.3906)"><path
             d="m 0,0 30.088,-14.89 32.894,66.466 c 4.112,8.308 0.71,18.376 -7.598,22.488 -8.309,4.112 -18.377,0.71 -22.489,-7.598 z"
             style="fill:#5dc4c9;fill-opacity:1;fill-rule:nonzero;stroke:none"
             id="path114" /></g><g
           id="g116"
           transform="translate(1957.1494,606.0781)"><path
             d="m 0,0 v 0 c -10.101,0 -18.289,8.188 -18.289,18.289 v 7.122 H -54.438 V 0 -13.374 -18.588 c 0,-3.768 3.054,-6.823 6.823,-6.823 h 71.688 v 1.338 C 24.073,-10.778 13.296,0 0,0"
             style="fill:#797d86;fill-opacity:1;fill-rule:nonzero;stroke:none"
             id="path118" /></g><g
           id="g120"
           transform="translate(1902.7109,589.3604)"><path
             d="m 0,0 v -1.87 c 0,-3.768 3.055,-6.823 6.823,-6.823 h 71.689 v 1.338 c 0,2.565 -0.405,5.036 -1.149,7.355 z"
             style="fill:#2b2b2b;fill-opacity:1;fill-rule:nonzero;stroke:none"
             id="path122" /></g><g
           id="g124"
           transform="translate(1948.0098,610.0908)"><path
             d="m 0,0 h -22.29 c -3.447,0 -6.241,2.794 -6.241,6.241 0,3.447 2.794,6.241 6.241,6.241 H -8.916 C -3.991,12.482 0,8.49 0,3.566 Z"
             style="fill:#2b2b2b;fill-opacity:1;fill-rule:nonzero;stroke:none"
             id="path126" /></g><g
           id="g128"
           transform="translate(1836.1484,1106.3906)"><path
             d="m 0,0 30.088,-14.89 2.34,4.728 L 2.203,4.45 Z"
             style="fill:#1a365e;fill-opacity:1;fill-rule:nonzero;stroke:none"
             id="path130" /></g><g
           id="g132"
           transform="translate(2074.3262,1146.7798)"><path
             d="m 0,0 -15.023,-29.238 -3.488,3.743 13.632,28.002 z"
             style="fill:#1a365e;fill-opacity:1;fill-rule:nonzero;stroke:none"
             id="path134" /></g><g
           id="g136"
           transform="translate(1132.624,583.3418)"><path
             d="m 0,0 c 0,-12.557 -47.636,-22.736 -106.397,-22.736 -58.762,0 -106.398,10.179 -106.398,22.736 0,12.557 47.636,22.736 106.398,22.736 C -47.636,22.736 0,12.557 0,0"
             style="fill:#b3b3b3;fill-opacity:1;fill-rule:nonzero;stroke:none"
             id="path138" /></g><g
           id="g140"
           transform="translate(1071.0112,1171.8242)"><path
             d="m 0,0 c 0,0 21.822,0.322 27.84,-35.454 l 1.596,-26.209 c 0.476,-7.82 4.123,-15.108 10.098,-20.176 l 35.451,-30.071 -10.633,-18.381 -39.066,29.623 C 11.858,-90.486 3.63,-74.881 2.814,-58.049 Z"
             style="fill:#ffbca4;fill-opacity:1;fill-rule:nonzero;stroke:none"
             id="path142" /></g><g
           id="g144"
           transform="translate(1070.4009,1275.1255)"><path
             d="m 0,0 c 2.513,16.542 -2.815,33.316 -14.466,45.324 -13.65,14.067 -34.635,27.301 -60.413,16.494 -20.768,-8.707 -42.518,-39.86 -43.511,-62.358 -1.972,-44.675 -1.945,-127.918 -35.384,-144.132 0,0 81.071,-13.804 113.091,21.184 C -17.62,-98.287 -5.164,-33.997 0,0"
             style="fill:#4d371f;fill-opacity:1;fill-rule:nonzero;stroke:none"
             id="path146" /></g><g
           id="g148"
           transform="translate(1018.5439,937.2124)"><path
             d="m 0,0 10.622,-160.189 9.001,-167.36 c 0.332,-6.166 5.243,-10.989 11.189,-10.989 6.028,0 10.977,4.953 11.198,11.209 l 5.844,164.87 L 53.204,0 Z"
             style="fill:#ffbca4;fill-opacity:1;fill-rule:nonzero;stroke:none"
             id="path150" /></g><g
           id="g152"
           transform="translate(1038.084,611.2129)"><path
             d="m 0,0 -2.669,-30.928 h 74.896 v 2.402 c 0,8.415 -5.58,15.809 -13.671,18.118 L 22.073,0 C 14.362,-2.894 6.931,-3.497 0,0"
             style="fill:#0083ca;fill-opacity:1;fill-rule:nonzero;stroke:none"
             id="path154" /></g><g
           id="g156"
           transform="translate(949.6123,937.2124)"><path
             d="m 0,0 10.622,-160.189 9.002,-167.36 c 0.331,-6.166 5.242,-10.989 11.188,-10.989 6.029,0 10.977,4.953 11.199,11.209 l 5.843,164.87 L 53.204,0 Z"
             style="fill:#ffbca4;fill-opacity:1;fill-rule:nonzero;stroke:none"
             id="path158" /></g><g
           id="g160"
           transform="translate(1083.4277,960.7573)"><path
             d="m 0,0 c -45.506,-7.479 -91.012,-7.479 -136.519,0 l 1.002,204.131 c 0.022,4.509 4.613,8.155 10.268,8.155 h 106.796 c 6.896,0 12.531,-4.391 12.687,-9.888 z"
             style="fill:#3090cd;fill-opacity:1;fill-rule:nonzero;stroke:none"
             id="path162" /></g><path
           d="m 1021.749,1167.73 h -23.071 v 57.364 h 23.071 z"
           style="fill:#ffbca4;fill-opacity:1;fill-rule:nonzero;stroke:none"
           id="path164" /><g
           id="g166"
           transform="translate(1019.8442,1149.8638)"><path
             d="m 0,0 h -11.469 c -12.927,0 -23.406,10.479 -23.406,23.405 h 58.28 C 23.405,10.479 12.926,0 0,0"
             style="fill:#ffbca4;fill-opacity:1;fill-rule:nonzero;stroke:none"
             id="path168" /></g><g
           id="g170"
           transform="translate(988.0425,1252.7002)"><path
             d="m 0,0 c -0.679,-7.51 -7.318,-13.047 -14.827,-12.368 -7.51,0.68 -13.047,7.318 -12.368,14.827 0.679,7.51 7.318,13.047 14.827,12.368 C -4.858,14.148 0.679,7.509 0,0"
             style="fill:#ffbca4;fill-opacity:1;fill-rule:nonzero;stroke:none"
             id="path172" /></g><g
           id="g174"
           transform="translate(983.293,1253.1294)"><path
             d="m 0,0 c -0.442,-4.887 -4.762,-8.49 -9.648,-8.048 -4.887,0.442 -8.49,4.762 -8.048,9.649 0.442,4.886 4.761,8.489 9.648,8.047 C -3.161,9.207 0.442,4.887 0,0"
             style="fill:#f4a989;fill-opacity:1;fill-rule:nonzero;stroke:none"
             id="path176" /></g><g
           id="g178"
           transform="translate(1078.0249,1243.5151)"><path
             d="m 0,0 c -0.679,-7.51 -7.318,-13.047 -14.827,-12.368 -7.51,0.679 -13.047,7.318 -12.368,14.827 0.679,7.51 7.318,13.047 14.827,12.368 C -4.858,14.148 0.679,7.51 0,0"
             style="fill:#ffbca4;fill-opacity:1;fill-rule:nonzero;stroke:none"
             id="path180" /></g><g
           id="g182"
           transform="translate(1073.2754,1243.9448)"><path
             d="m 0,0 c -0.442,-4.887 -4.762,-8.49 -9.648,-8.048 -4.887,0.442 -8.49,4.761 -8.048,9.648 0.442,4.887 4.761,8.49 9.648,8.048 C -3.161,9.206 0.442,4.886 0,0"
             style="fill:#f4a989;fill-opacity:1;fill-rule:nonzero;stroke:none"
             id="path184" /></g><g
           id="g186"
           transform="translate(1018.4951,1187.3335)"><path
             d="m 0,0 v 0 c -23.725,2.146 -41.218,23.118 -39.072,46.842 l 4.954,54.779 c 1.794,19.836 19.329,34.462 39.165,32.669 l 14.08,-1.274 C 38.963,131.222 53.59,113.687 51.796,93.851 L 46.842,39.072 C 44.696,15.348 23.724,-2.146 0,0"
             style="fill:#ffbca4;fill-opacity:1;fill-rule:nonzero;stroke:none"
             id="path188" /></g><g
           id="g190"
           transform="translate(1040.9819,1251.605)"><path
             d="M 0,0 C 0,0 2.157,-16.981 5.397,-20.128 8.638,-23.274 -4.784,-30.622 -10.539,-23.723 -16.293,-16.823 0,0 0,0"
             style="fill:#f4a989;fill-opacity:1;fill-rule:nonzero;stroke:none"
             id="path192" /></g><g
           id="g194"
           transform="translate(946.9087,960.7573)"><path
             d="m 0,0 -10.889,-186.544 c 54.611,-8.36 109.223,-8.36 163.835,0 L 136.519,0 C 89.601,-10.153 44.095,-10.153 0,0"
             style="fill:#f190ac;fill-opacity:1;fill-rule:nonzero;stroke:none"
             id="path196" /></g><g
           id="g198"
           transform="translate(969.1523,611.2129)"><path
             d="m 0,0 -2.669,-30.928 h 74.896 v 2.402 c 0,8.415 -5.58,15.809 -13.671,18.118 L 22.073,0 C 14.363,-2.894 6.932,-3.497 0,0"
             style="fill:#0083ca;fill-opacity:1;fill-rule:nonzero;stroke:none"
             id="path200" /></g><g
           id="g202"
           transform="translate(977.1665,950.4644)"><path
             d="M 0,0 C 0,0 17.892,-7.275 18.326,-33.595 18.76,-59.917 -18.889,-48.199 -20.717,-7.114 Z"
             style="fill:#ffbca4;fill-opacity:1;fill-rule:nonzero;stroke:none"
             id="path204" /></g><g
           id="g206"
           transform="translate(956.3882,941.7739)"><path
             d="M 0,0 22.537,7.347 7.6,60.917 c -7.886,28.282 -9.369,57.966 -4.341,86.893 l 11.079,63.741 c 1.923,9.069 -3.87,17.979 -12.938,19.902 -9.068,1.923 -17.979,-3.87 -19.902,-12.938 l -8.34,-75.917 c -2.935,-26.724 -0.386,-53.765 7.492,-79.469 z"
             style="fill:#ffbca4;fill-opacity:1;fill-rule:nonzero;stroke:none"
             id="path208" /></g><g
           id="g210"
           transform="translate(1125.0723,1021.4863)"><path
             d="m 0,0 h -85.536 c -5.08,0 -8.891,4.646 -7.897,9.629 l 24.042,120.485 c 0.716,3.587 3.865,6.169 7.522,6.169 h 85.536 c 5.08,0 8.891,-4.646 7.896,-9.629 L 7.521,6.169 C 6.806,2.583 3.657,0 0,0"
             style="fill:#ffc851;fill-opacity:1;fill-rule:nonzero;stroke:none"
             id="path212" /></g><g
           id="g214"
           transform="translate(1148.6592,1047.1836)"><path
             d="m 0,0 c -4.957,-4.31 -12.055,-5.195 -17.876,-2.152 -5.992,3.13 -13.078,9.187 -18.052,20.905 -8.854,20.859 19.03,26.191 37.884,3.421 C 7.459,15.529 6.511,5.661 0,0 Z"
             style="fill:#ffbca4;fill-opacity:1;fill-rule:nonzero;stroke:none"
             id="path216" /></g><g
           id="g218"
           transform="translate(1037.6221,1320.3491)"><path
             d="m 0,0 -14.08,1.273 c -19.836,1.795 -37.371,-12.832 -39.165,-32.668 l -2.364,-26.14 c 0,0 44.375,-0.948 73.529,26.469 l 14.534,-10.476 0.215,2.377 C 34.463,-19.329 19.836,-1.793 0,0"
             style="fill:#4d371f;fill-opacity:1;fill-rule:nonzero;stroke:none"
             id="path220" /></g><g
           id="g222"
           transform="translate(1741.9355,583.3418)"><path
             d="m 0,0 c 0,-12.557 -47.637,-22.736 -106.398,-22.736 -58.762,0 -106.398,10.179 -106.398,22.736 0,12.557 47.636,22.736 106.398,22.736 C -47.637,22.736 0,12.557 0,0"
             style="fill:#b3b3b3;fill-opacity:1;fill-rule:nonzero;stroke:none"
             id="path224" /></g><g
           id="g226"
           transform="translate(1615.1982,937.2124)"><path
             d="m 0,0 10.622,-160.189 9.001,-167.36 c 0.331,-6.166 5.242,-10.989 11.189,-10.989 6.028,0 10.976,4.953 11.198,11.209 l 5.844,164.87 L 53.204,0 Z"
             style="fill:#f0a379;fill-opacity:1;fill-rule:nonzero;stroke:none"
             id="path228" /></g><g
           id="g230"
           transform="translate(1634.7383,611.2129)"><path
             d="m 0,0 -2.67,-30.928 h 74.897 v 2.402 c 0,8.415 -5.581,15.809 -13.672,18.118 L 22.073,0 C 14.362,-2.894 6.931,-3.497 0,0"
             style="fill:#d84c61;fill-opacity:1;fill-rule:nonzero;stroke:none"
             id="path232" /></g><g
           id="g234"
           transform="translate(1736.0889,936.9233)"><path
             d="m 0,0 c -4.235,0 -8.352,2.209 -10.602,6.151 l -49.991,87.555 c -0.968,1.695 -1.514,3.598 -1.594,5.549 l -3.547,86.977 c -0.275,6.729 4.958,12.407 11.687,12.682 6.726,0.268 12.407,-4.959 12.682,-11.688 l 3.427,-84.008 48.517,-84.974 C 13.918,12.395 11.884,4.946 6.035,1.607 4.128,0.518 2.049,0 0,0"
             style="fill:#f0a379;fill-opacity:1;fill-rule:nonzero;stroke:none"
             id="path236" /></g><g
           id="g238"
           transform="translate(1706.8027,958.3516)"><path
             d="M 0,0 33.036,19.52 4.309,71.981 c -5.074,9.265 -8.133,19.497 -8.98,30.026 l -7.48,93.014 c -0.058,9.27 -7.619,16.738 -16.888,16.681 -9.271,-0.056 -16.739,-7.618 -16.682,-16.888 L -37.896,88.11 c 0.72,-9.823 3.368,-19.408 7.791,-28.208 z"
             style="fill:#d84c61;fill-opacity:1;fill-rule:nonzero;stroke:none"
             id="path240" /></g><g
           id="g242"
           transform="translate(1577.8037,1312.0015)"><path
             d="m 0,0 c -1.655,-1.634 -3.833,-2.561 -6.12,-2.99 -4.645,-0.872 -11.849,-8.895 -6.639,-53.657 7.357,-63.194 -2.34,-68.878 -9.696,-67.875 0,0 13.592,-9.696 25.185,0 0,0 -0.777,-11.368 -6.126,-13.04 0,0 11.552,-7.356 29.515,11.703 0,0 11.735,-10.7 17.19,-10.366 0,0 21.11,13.04 24.817,18.725 0,0 10.082,-15.715 28.294,-12.372 0,0 -11.376,12.705 -12.13,20.396 0,0 8.943,-8.693 20.312,-5.684 0,0 -8.377,1.672 -8.871,49.151 0,0 7.219,48.482 0.689,60.518 C 90.232,5.914 19.372,19.12 0,0"
             style="fill:#938780;fill-opacity:1;fill-rule:nonzero;stroke:none"
             id="path244" /></g><g
           id="g246"
           transform="translate(1557.3779,937.2124)"><path
             d="m 0,0 10.622,-160.189 9.001,-167.36 c 0.332,-6.166 5.243,-10.989 11.189,-10.989 6.029,0 10.977,4.953 11.199,11.209 l 5.843,164.87 L 53.204,0 Z"
             style="fill:#f0a379;fill-opacity:1;fill-rule:nonzero;stroke:none"
             id="path248" /></g><g
           id="g250"
           transform="translate(1519.4033,935.5117)"><path
             d="m 0,0 c -6.438,0 -11.821,5.042 -12.167,11.548 l -5.35,100.68 c -0.103,1.949 0.263,3.896 1.068,5.674 l 35.887,79.307 c 2.777,6.136 10.003,8.86 16.138,6.083 6.136,-2.777 8.86,-10.002 6.083,-16.138 L 6.996,110.554 12.188,12.843 C 12.546,6.117 7.384,0.375 0.658,0.018 0.438,0.006 0.218,0 0,0"
             style="fill:#f0a379;fill-opacity:1;fill-rule:nonzero;stroke:none"
             id="path252" /></g><g
           id="g254"
           transform="translate(1689.75,960.7573)"><path
             d="m 0,0 c -44.468,-11.138 -89.95,-11.398 -136.519,0 l 1.002,204.131 c 0.023,4.509 4.614,8.155 10.269,8.155 h 106.795 c 6.896,0 12.531,-4.391 12.687,-9.888 z"
             style="fill:#ed5665;fill-opacity:1;fill-rule:nonzero;stroke:none"
             id="path256" /></g><path
           d="m 1628.072,1167.73 h -23.071 v 57.364 h 23.071 z"
           style="fill:#f0a379;fill-opacity:1;fill-rule:nonzero;stroke:none"
           id="path258" /><g
           id="g260"
           transform="translate(1626.166,1149.8638)"><path
             d="M 0,0 H -11.469 C -24.395,0 -34.874,10.479 -34.874,23.405 H 23.405 C 23.405,10.479 12.927,0 0,0"
             style="fill:#f0a379;fill-opacity:1;fill-rule:nonzero;stroke:none"
             id="path262" /></g><g
           id="g264"
           transform="translate(1590.0166,1249.8374)"><path
             d="m 0,0 c 0,-7.541 -6.112,-13.653 -13.653,-13.653 -7.54,0 -13.653,6.112 -13.653,13.653 0,7.54 6.113,13.653 13.653,13.653 C -6.112,13.653 0,7.54 0,0"
             style="fill:#f0a379;fill-opacity:1;fill-rule:nonzero;stroke:none"
             id="path266" /></g><g
           id="g268"
           transform="translate(1585.248,1249.8374)"><path
             d="m 0,0 c 0,-4.907 -3.978,-8.884 -8.885,-8.884 -4.906,0 -8.884,3.977 -8.884,8.884 0,4.906 3.978,8.884 8.884,8.884 C -3.978,8.884 0,4.906 0,0"
             style="fill:#d39271;fill-opacity:1;fill-rule:nonzero;stroke:none"
             id="path270" /></g><g
           id="g272"
           transform="translate(1680.46,1248.7944)"><path
             d="m 0,0 c 0,-7.541 -6.112,-13.653 -13.652,-13.653 -7.54,0 -13.654,6.112 -13.654,13.653 0,7.541 6.114,13.653 13.654,13.653 C -6.112,13.653 0,7.541 0,0"
             style="fill:#f0a379;fill-opacity:1;fill-rule:nonzero;stroke:none"
             id="path274" /></g><g
           id="g276"
           transform="translate(1675.6914,1248.7944)"><path
             d="m 0,0 c 0,-4.907 -3.978,-8.884 -8.884,-8.884 -4.907,0 -8.885,3.977 -8.885,8.884 0,4.907 3.978,8.884 8.885,8.884 C -3.978,8.884 0,4.907 0,0"
             style="fill:#d39271;fill-opacity:1;fill-rule:nonzero;stroke:none"
             id="path278" /></g><g
           id="g280"
           transform="translate(1626.2324,1196.4126)"><path
             d="m 0,0 v 0 c -23.821,0 -43.132,19.311 -43.132,43.132 v 70.565 H 43.133 V 43.132 C 43.133,19.311 23.821,0 0,0"
             style="fill:#f0a379;fill-opacity:1;fill-rule:nonzero;stroke:none"
             id="path282" /></g><g
           id="g284"
           transform="translate(1642.8389,1253.5151)"><path
             d="M 0,0 C 0,0 3.679,-16.718 7.188,-19.56 10.7,-22.402 -2.006,-30.928 -8.358,-24.575 -14.712,-18.222 0,0 0,0"
             style="fill:#d39271;fill-opacity:1;fill-rule:nonzero;stroke:none"
             id="path286" /></g><g
           id="g288"
           transform="translate(1739.3945,960.7573)"><path
             d="m 0,0 c 0,0 19.234,-1.75 27.313,-26.803 8.081,-25.054 -31.349,-24.808 -45.061,13.965 z"
             style="fill:#f0a379;fill-opacity:1;fill-rule:nonzero;stroke:none"
             id="path290" /></g><g
           id="g292"
           transform="translate(1528.4043,949.875)"><path
             d="M 0,0 C 0,0 15.787,-11.127 10.267,-36.866 4.746,-62.605 -29.285,-42.688 -21.788,-2.252 Z"
             style="fill:#f0a379;fill-opacity:1;fill-rule:nonzero;stroke:none"
             id="path294" /></g><g
           id="g296"
           transform="translate(1497.4023,969.1016)"><path
             d="m 0,0 38.283,2.605 -1.845,52.309 c -0.546,15.479 2.181,30.898 8.004,45.249 l 32.277,79.545 c 4.111,8.308 0.71,18.376 -7.599,22.488 -8.308,4.113 -18.377,0.711 -22.488,-7.598 L 8.367,102.17 C 2.843,88.827 0,74.527 0,60.085 Z"
             style="fill:#ed5665;fill-opacity:1;fill-rule:nonzero;stroke:none"
             id="path298" /></g><g
           id="g300"
           transform="translate(1645.2949,1262.9121)"><path
             d="m 0,0 h -68.868 c -1.295,0 -2.345,1.05 -2.345,2.345 0,1.295 1.05,2.345 2.345,2.345 H 0 Z"
             style="fill:#e0e0e0;fill-opacity:1;fill-rule:nonzero;stroke:none"
             id="path302" /></g><g
           id="g304"
           transform="translate(1599.752,1265.2573)"><path
             d="m 0,0 v -4.424 c 0,-3.513 2.024,-6.361 4.521,-6.361 h 25.336 c 2.497,0 4.522,2.848 4.522,6.361 v 8.847 c 0,3.514 -2.025,6.362 -4.522,6.362 H 4.521 C 2.024,10.785 0,7.937 0,4.423 V 0"
             style="fill:#ffffff;fill-opacity:1;fill-rule:nonzero;stroke:none"
             id="path306" /></g><g
           id="g308"
           transform="translate(1604.2734,1274.6348)"><path
             d="m 0,0 c -1.688,0 -3.114,-2.269 -3.114,-4.954 v -8.847 c 0,-2.686 1.426,-4.954 3.114,-4.954 h 25.336 c 1.687,0 3.114,2.268 3.114,4.954 v 8.847 C 28.45,-2.269 27.023,0 25.336,0 Z M 25.336,-21.57 H 0 c -3.324,0 -5.928,3.413 -5.928,7.769 v 8.847 c 0,4.356 2.604,7.768 5.928,7.768 h 25.336 c 3.324,0 5.928,-3.412 5.928,-7.768 v -8.847 c 0,-4.356 -2.604,-7.769 -5.928,-7.769"
             style="fill:#e0e0e0;fill-opacity:1;fill-rule:nonzero;stroke:none"
             id="path310" /></g><g
           id="g312"
           transform="translate(1674.8545,1254.4722)"><path
             d="m 0,0 h -24.739 c -2.662,0 -4.82,2.158 -4.82,4.819 V 16.75 c 0,2.662 2.158,4.82 4.82,4.82 H 0 c 2.661,0 4.819,-2.158 4.819,-4.82 V 4.819 C 4.819,2.158 2.661,0 0,0"
             style="fill:#ffffff;fill-opacity:1;fill-rule:nonzero;stroke:none"
             id="path314" /></g><g
           id="g316"
           transform="translate(1649.8164,1274.6348)"><path
             d="m 0,0 c -1.72,0 -3.114,-1.394 -3.114,-3.113 v -12.529 c 0,-1.719 1.394,-3.113 3.114,-3.113 h 25.336 c 1.72,0 3.114,1.394 3.114,3.113 V -3.113 C 28.45,-1.394 27.056,0 25.336,0 Z M 25.336,-21.57 H 0 c -3.273,0 -5.928,2.654 -5.928,5.928 v 12.529 c 0,3.273 2.655,5.927 5.928,5.927 h 25.336 c 3.274,0 5.928,-2.654 5.928,-5.927 v -12.529 c 0,-3.274 -2.654,-5.928 -5.928,-5.928"
             style="fill:#e0e0e0;fill-opacity:1;fill-rule:nonzero;stroke:none"
             id="path318" /></g><g
           id="g320"
           transform="translate(1635.5947,1302.5146)"><path
             d="m 0,0 c 0,0 -45.139,-22.864 -57.844,-24.388 -12.706,-1.524 -40.458,0 -40.458,0 0,0 12.712,9.457 18.567,15.512 5.853,6.054 6.851,7.69 1.83,5.827 -18.159,-6.735 -18.725,-4.953 -18.725,-4.953 0,0 28.304,19.053 33.879,28.198 4.795,7.864 30.895,33.736 52.57,25.669 5.199,-1.934 10.871,-2.622 16.194,-1.061 5.035,1.477 13.86,-0.701 28.76,-16.225 C 57.051,5.37 51.157,-4.573 63.528,-8.002 c 0,0 -3.677,0.762 -12.371,3.429 0,0 4.347,-14.099 13.708,-16.004 0,0 -35.107,-6.86 -64.865,20.577"
             style="fill:#b2a499;fill-opacity:1;fill-rule:nonzero;stroke:none"
             id="path322" /></g><g
           id="g324"
           transform="translate(1553.2314,960.7573)"><path
             d="M 0,0 -26.127,-186.544 H 175.491 L 136.519,0 C 91.747,-9.459 46.279,-9.956 0,0"
             style="fill:#00a8de;fill-opacity:1;fill-rule:nonzero;stroke:none"
             id="path326" /></g><g
           id="g328"
           transform="translate(1576.918,611.2129)"><path
             d="m 0,0 -2.669,-30.928 h 74.896 v 2.402 c 0,8.415 -5.58,15.809 -13.671,18.118 L 22.073,0 C 14.363,-2.894 6.932,-3.497 0,0"
             style="fill:#e25969;fill-opacity:1;fill-rule:nonzero;stroke:none"
             id="path330" /></g><g
           id="g332"
           transform="translate(1686.8037,1064.2031)"><path
             d="M 0,0 C -44.328,-5.728 -88.657,-5.728 -132.985,0 V 16.22 C -88.604,9.241 -44.274,9.225 0,16.22 Z"
             style="fill:#ffc851;fill-opacity:1;fill-rule:nonzero;stroke:none"
             id="path334" /></g><g
           id="g336"
           transform="translate(1686.8037,1035.5581)"><path
             d="M 0,0 C -43.799,-6.086 -88.14,-5.943 -132.985,0 V 16.22 C -88.14,9.612 -43.8,9.453 0,16.22 Z"
             style="fill:#ffc851;fill-opacity:1;fill-rule:nonzero;stroke:none"
             id="path338" /></g><g
           id="g340"
           transform="translate(806.957,583.3418)"><path
             d="m 0,0 c 0,-12.557 -54.714,-22.736 -122.208,-22.736 -67.494,0 -122.208,10.179 -122.208,22.736 0,12.557 54.714,22.736 122.208,22.736 C -54.714,22.736 0,12.557 0,0"
             style="fill:#b3b3b3;fill-opacity:1;fill-rule:nonzero;stroke:none"
             id="path342" /></g><g
           id="g344"
           transform="translate(615.6226,985.0791)"><path
             d="m 0,0 c -5.248,0 -10.284,2.949 -12.702,7.999 l -39.454,82.419 c -2.161,4.516 -1.761,9.841 1.052,13.982 l 58.939,86.766 c 4.367,6.428 13.118,8.099 19.546,3.733 6.428,-4.367 8.099,-13.118 3.733,-19.546 L -23.281,95.275 12.682,20.15 C 16.037,13.14 13.075,4.738 6.065,1.382 4.106,0.444 2.037,0 0,0"
             style="fill:#c98461;fill-opacity:1;fill-rule:nonzero;stroke:none"
             id="path346" /></g><g
           id="g348"
           transform="translate(786.8857,985.0791)"><path
             d="m 0,0 c -2.037,0 -4.105,0.444 -6.065,1.382 -7.01,3.356 -9.972,11.758 -6.617,18.768 l 35.811,74.808 -58.336,79.36 c -4.602,6.261 -3.257,15.068 3.004,19.671 6.261,4.602 15.069,3.259 19.671,-3.003 l 63.333,-86.158 c 3.077,-4.185 3.597,-9.725 1.355,-14.41 L 12.702,7.999 C 10.285,2.949 5.248,0 0,0"
             style="fill:#c98461;fill-opacity:1;fill-rule:nonzero;stroke:none"
             id="path350" /></g><g
           id="g352"
           transform="translate(629.6582,957.4888)"><path
             d="M 0,0 V -143.972 L 55.718,-145.446 71.158,0 Z"
             style="fill:#12242e;fill-opacity:1;fill-rule:nonzero;stroke:none"
             id="path354" /></g><g
           id="g356"
           transform="translate(697.7402,957.4888)"><path
             d="M 0,0 12.433,-145.101 H 62.022 L 75.335,0 Z"
             style="fill:#12242e;fill-opacity:1;fill-rule:nonzero;stroke:none"
             id="path358" /></g><g
           id="g360"
           transform="translate(776.0742,957.4888)"><path
             d="m 0,0 h -149.671 l 1.099,216.197 c 0.024,4.776 5.057,8.637 11.258,8.637 h 117.083 c 7.561,0 13.738,-4.65 13.909,-10.472 z"
             style="fill:#6dc065;fill-opacity:1;fill-rule:nonzero;stroke:none"
             id="path362" /></g><g
           id="g364"
           transform="translate(696.2842,1157.9443)"><path
             d="M 0,0 V 0 C -6.371,0 -11.535,5.165 -11.535,11.536 V 64.197 H 11.536 V 11.536 C 11.536,5.165 6.371,0 0,0"
             style="fill:#c98461;fill-opacity:1;fill-rule:nonzero;stroke:none"
             id="path366" /></g><g
           id="g368"
           transform="translate(669.7646,1263.4346)"><path
             d="m 0,0 c 0,-7.54 -6.113,-13.653 -13.653,-13.653 -7.54,0 -13.653,6.113 -13.653,13.653 0,7.541 6.113,13.653 13.653,13.653 C -6.113,13.653 0,7.541 0,0"
             style="fill:#c98461;fill-opacity:1;fill-rule:nonzero;stroke:none"
             id="path370" /></g><g
           id="g372"
           transform="translate(664.9956,1263.4346)"><path
             d="m 0,0 c 0,-4.907 -3.978,-8.884 -8.884,-8.884 -4.907,0 -8.884,3.977 -8.884,8.884 0,4.907 3.977,8.884 8.884,8.884 C -3.978,8.884 0,4.907 0,0"
             style="fill:#a86e54;fill-opacity:1;fill-rule:nonzero;stroke:none"
             id="path374" /></g><g
           id="g376"
           transform="translate(762.6709,1267.1123)"><path
             d="m 0,0 c 0,-7.54 -6.112,-13.653 -13.653,-13.653 -7.54,0 -13.653,6.113 -13.653,13.653 0,7.541 6.113,13.653 13.653,13.653 C -6.112,13.653 0,7.541 0,0"
             style="fill:#c98461;fill-opacity:1;fill-rule:nonzero;stroke:none"
             id="path378" /></g><g
           id="g380"
           transform="translate(757.9023,1267.1123)"><path
             d="m 0,0 c 0,-4.906 -3.978,-8.884 -8.884,-8.884 -4.907,0 -8.885,3.978 -8.885,8.884 0,4.907 3.978,8.885 8.885,8.885 C -3.978,8.885 0,4.907 0,0"
             style="fill:#a86e54;fill-opacity:1;fill-rule:nonzero;stroke:none"
             id="path382" /></g><g
           id="g384"
           transform="translate(705.981,1201.0767)"><path
             d="m 0,0 v 0 c -26.804,0 -48.532,21.729 -48.532,48.532 v 34.005 c 0,26.803 21.728,48.531 48.532,48.531 v 0 c 26.803,0 48.532,-21.728 48.532,-48.531 V 48.532 C 48.532,21.729 26.803,0 0,0"
             style="fill:#c98461;fill-opacity:1;fill-rule:nonzero;stroke:none"
             id="path386" /></g><g
           id="g388"
           transform="translate(722.5869,1267.1123)"><path
             d="M 0,0 C 0,0 3.678,-16.718 7.189,-19.56 10.7,-22.402 -2.006,-30.928 -8.358,-24.575 -14.711,-18.223 0,0 0,0"
             style="fill:#a86e54;fill-opacity:1;fill-rule:nonzero;stroke:none"
             id="path390" /></g><g
           id="g392"
           transform="translate(620.1025,1008.8193)"><path
             d="m 0,0 c 0,0 19.137,-2.613 26.081,-28.005 6.945,-25.392 -32.434,-23.371 -44.388,15.978 z"
             style="fill:#c98461;fill-opacity:1;fill-rule:nonzero;stroke:none"
             id="path394" /></g><g
           id="g396"
           transform="translate(668.6665,580.667)"><path
             d="M 0,0 H -15.604 V 6.241 L -28.086,0 h -49.931 v 5.796 c 0,8.371 6.786,15.157 15.158,15.157 16.496,0 29.869,3.175 29.869,19.671 l 32.869,-1.336 z"
             style="fill:#12242e;fill-opacity:1;fill-rule:nonzero;stroke:none"
             id="path398" /></g><g
           id="g400"
           transform="translate(712.2334,580.667)"><path
             d="M 0,0 H 15.604 V 6.241 L 28.086,0 h 49.931 v 5.796 c 0,8.371 -6.787,15.157 -15.158,15.157 -16.496,0 -29.869,3.175 -29.869,19.671 L 0.121,39.288 Z"
             style="fill:#12242e;fill-opacity:1;fill-rule:nonzero;stroke:none"
             id="path402" /></g><g
           id="g404"
           transform="translate(799.0742,1000.6821)"><path
             d="m 0,0 c 0,0 5.794,-18.424 -14.214,-35.531 -20.009,-17.107 -34.969,19.376 -4.47,46.964 z"
             style="fill:#c98461;fill-opacity:1;fill-rule:nonzero;stroke:none"
             id="path406" /></g><g
           id="g408"
           transform="translate(802.9448,1077.1143)"><path
             d="M 0,0 34.104,24.483 -21.674,97.93 c -3.283,4.323 -8.361,6.911 -13.788,7.028 l -11.64,0.25 V 52.604 Z"
             style="fill:#b2d235;fill-opacity:1;fill-rule:nonzero;stroke:none"
             id="path410" /></g><g
           id="g412"
           transform="translate(598.8818,1077.1143)"><path
             d="M 0,0 -34.104,24.483 21.674,97.93 c 3.283,4.323 8.36,6.911 13.788,7.028 l 11.64,0.25 V 52.604 Z"
             style="fill:#b2d235;fill-opacity:1;fill-rule:nonzero;stroke:none"
             id="path414" /></g><g
           id="g416"
           transform="translate(634.3169,813.3926)"><path
             d="m 0,0 2.452,-192.102 31.054,-1.306 12.076,192.203 z"
             style="fill:#c98461;fill-opacity:1;fill-rule:nonzero;stroke:none"
             id="path418" /></g><g
           id="g420"
           transform="translate(755.4688,812.5625)"><path
             d="m 0,0 -11.487,-191.321 -30.079,-1.223 -2.126,192.369 z"
             style="fill:#c98461;fill-opacity:1;fill-rule:nonzero;stroke:none"
             id="path422" /></g><g
           id="g424"
           transform="translate(1440.7422,583.3418)"><path
             d="m 0,0 c 0,-12.557 -47.636,-22.736 -106.397,-22.736 -58.762,0 -106.398,10.179 -106.398,22.736 0,12.557 47.636,22.736 106.398,22.736 C -47.636,22.736 0,12.557 0,0"
             style="fill:#b3b3b3;fill-opacity:1;fill-rule:nonzero;stroke:none"
             id="path426" /></g><g
           id="g428"
           transform="translate(1334.3447,580.667)"><path
             d="M 0,0 H 15.604 V 6.241 L 28.086,0 h 49.931 v 5.796 c 0,8.371 -6.787,15.157 -15.158,15.157 -16.497,0 -29.869,13.373 -29.869,29.869 H 0.12 Z"
             style="fill:#f4783b;fill-opacity:1;fill-rule:nonzero;stroke:none"
             id="path430" /></g><g
           id="g432"
           transform="translate(1459.5498,1136.7114)"><path
             d="M 0,0 C 0,0 -3.896,18.917 17.744,33.907 39.384,48.896 50.567,11.084 17.428,-13.268 Z"
             style="fill:#f0a379;fill-opacity:1;fill-rule:nonzero;stroke:none"
             id="path434" /></g><g
           id="g436"
           transform="translate(1457.0811,1140.0723)"><path
             d="m 0,0 -38.988,-43.457 -2.604,6.298 -28.207,68.586 c -3.526,8.573 -13.335,12.666 -21.908,9.139 -8.573,-3.525 -12.665,-13.334 -9.139,-21.907 l 28.207,-68.587 15.753,-29.558 c 5.592,-10.491 20.066,-11.896 27.571,-2.676 l 53.819,66.119 z"
             style="fill:#688089;fill-opacity:1;fill-rule:nonzero;stroke:none"
             id="path438" /></g><g
           id="g440"
           transform="translate(1257.6064,957.4888)"><path
             d="M 0,0 4.449,-154.139 13.847,-326 H 47.156 L 49.837,-156.814 65.276,0 Z"
             style="fill:#142630;fill-opacity:1;fill-rule:nonzero;stroke:none"
             id="path442" /></g><g
           id="g444"
           transform="translate(1319.8066,957.4888)"><path
             d="M 0,0 10.622,-154.256 13.848,-326 H 47.156 L 53.741,-156.442 65.276,0 Z"
             style="fill:#142630;fill-opacity:1;fill-rule:nonzero;stroke:none"
             id="path446" /></g><g
           id="g448"
           transform="translate(1385.3477,957.4888)"><path
             d="m 0,0 h -124.085 l 0.911,216.197 c 0.02,4.776 4.193,8.637 9.333,8.637 h 97.069 c 6.268,0 11.389,-4.65 11.532,-10.472 z"
             style="fill:#feffff;fill-opacity:1;fill-rule:nonzero;stroke:none"
             id="path450" /></g><g
           id="g452"
           transform="translate(1318.3516,1170.1406)"><path
             d="M 0,0 V 0 C -6.371,0 -11.536,5.165 -11.536,11.535 V 64.197 H 11.535 V 11.535 C 11.535,5.165 6.37,0 0,0"
             style="fill:#f0a379;fill-opacity:1;fill-rule:nonzero;stroke:none"
             id="path454" /></g><g
           id="g456"
           transform="translate(1291.8311,1275.6309)"><path
             d="m 0,0 c 0,-7.541 -6.112,-13.653 -13.653,-13.653 -7.54,0 -13.653,6.112 -13.653,13.653 0,7.54 6.113,13.653 13.653,13.653 C -6.112,13.653 0,7.54 0,0"
             style="fill:#f0a379;fill-opacity:1;fill-rule:nonzero;stroke:none"
             id="path458" /></g><g
           id="g460"
           transform="translate(1287.0625,1275.6309)"><path
             d="m 0,0 c 0,-4.907 -3.978,-8.885 -8.885,-8.885 -4.906,0 -8.884,3.978 -8.884,8.885 0,4.906 3.978,8.884 8.884,8.884 C -3.978,8.884 0,4.906 0,0"
             style="fill:#d39271;fill-opacity:1;fill-rule:nonzero;stroke:none"
             id="path462" /></g><g
           id="g464"
           transform="translate(1382.2754,1280.3994)"><path
             d="m 0,0 c 0,-7.541 -6.113,-13.653 -13.653,-13.653 -7.54,0 -13.654,6.112 -13.654,13.653 0,7.54 6.114,13.653 13.654,13.653 C -6.113,13.653 0,7.54 0,0"
             style="fill:#f0a379;fill-opacity:1;fill-rule:nonzero;stroke:none"
             id="path466" /></g><g
           id="g468"
           transform="translate(1377.5059,1280.3994)"><path
             d="m 0,0 c 0,-4.907 -3.977,-8.885 -8.884,-8.885 -4.907,0 -8.884,3.978 -8.884,8.885 0,4.906 3.977,8.884 8.884,8.884 C -3.977,8.884 0,4.906 0,0"
             style="fill:#d39271;fill-opacity:1;fill-rule:nonzero;stroke:none"
             id="path470" /></g><g
           id="g472"
           transform="translate(1328.0479,1213.2725)"><path
             d="m 0,0 h -0.001 c -23.82,0 -43.132,19.311 -43.132,43.132 v 44.805 c 0,23.821 19.312,43.132 43.132,43.132 H 0 c 23.821,0 43.132,-19.311 43.132,-43.132 V 43.132 C 43.132,19.312 23.821,0 0,0"
             style="fill:#f0a379;fill-opacity:1;fill-rule:nonzero;stroke:none"
             id="path474" /></g><g
           id="g476"
           transform="translate(1295.6143,1318.9302)"><path
             d="m 0,0 2.626,-53.059 c 0,0 -4.409,-28.97 36.605,-28.97 0,0 36.334,-4.013 36.334,24.965 0,0 10.477,-41.46 0,-48.594 -10.476,-7.133 -69.149,-22.505 -82.078,11.823 -9.031,23.981 -10.23,25.578 -9.831,54.213 C -16.234,-31.74 -7.864,-0.524 0,0"
             style="fill:#4d371f;fill-opacity:1;fill-rule:nonzero;stroke:none"
             id="path478" /></g><g
           id="g480"
           transform="translate(1344.6543,1279.3086)"><path
             d="M 0,0 C 0,0 3.678,-16.718 7.188,-19.56 10.699,-22.402 -2.007,-30.928 -8.359,-24.575 -14.712,-18.223 0,0 0,0"
             style="fill:#d39271;fill-opacity:1;fill-rule:nonzero;stroke:none"
             id="path482" /></g><g
           id="g484"
           transform="translate(1306.8154,1182.5117)"><path
             d="m 0,0 v -245.196 h -55.091 l 1.451,164.14 3.152,73.353 c 0.185,4.307 3.73,7.703 8.041,7.703 z"
             style="fill:#819ba8;fill-opacity:1;fill-rule:nonzero;stroke:none"
             id="path486" /></g><g
           id="g488"
           transform="translate(1329.8867,1182.5117)"><path
             d="m 0,0 v -245.196 h 56.936 l -1.5,164.14 -3.258,73.353 C 51.987,-3.396 48.323,0 43.868,0 Z"
             style="fill:#819ba8;fill-opacity:1;fill-rule:nonzero;stroke:none"
             id="path490" /></g><g
           id="g492"
           transform="translate(1303.4775,1082.6499)"><path
             d="M 0,0 C 0,0 10.987,15.884 36.773,10.591 62.561,5.298 42.945,-28.907 2.444,-21.767 Z"
             style="fill:#f0a379;fill-opacity:1;fill-rule:nonzero;stroke:none"
             id="path494" /></g><g
           id="g496"
           transform="translate(1271.332,580.667)"><path
             d="M 0,0 H 15.604 V 6.241 L 28.086,0 h 49.932 v 5.796 c 0,8.371 -6.788,15.157 -15.159,15.157 -16.496,0 -29.869,13.373 -29.869,29.869 H 0.121 Z"
             style="fill:#372322;fill-opacity:1;fill-rule:nonzero;stroke:none"
             id="path498" /></g><path
           d="m 1375.836,1001.29 h -33.771 v 6.353 h 33.771 z"
           style="fill:#688089;fill-opacity:1;fill-rule:nonzero;stroke:none"
           id="path500" /><path
           d="m 1296.4,1001.29 h -33.77 v 6.353 h 33.77 z"
           style="fill:#688089;fill-opacity:1;fill-rule:nonzero;stroke:none"
           id="path502" /><path
           d="m 1375.836,1106.557 h -33.771 v 6.353 h 33.771 z"
           style="fill:#688089;fill-opacity:1;fill-rule:nonzero;stroke:none"
           id="path504" /><path
           d="m 1296.4,1106.557 h -33.77 v 6.353 h 33.77 z"
           style="fill:#688089;fill-opacity:1;fill-rule:nonzero;stroke:none"
           id="path506" /><g
           id="g508"
           transform="translate(1304.5098,1086.7568)"><path
             d="m 0,0 -58.354,-1.828 2.755,6.233 4.51,10.152 8.15,80.574 c -3.208,0 -9.538,0.017 -13.231,-9.323 L -86.278,18.034 -96.769,-13.775 c -3.723,-11.289 5.259,-22.726 17.11,-21.784 L 5.326,-28.8 Z"
             style="fill:#688089;fill-opacity:1;fill-rule:nonzero;stroke:none"
             id="path510" /></g><g
           id="g512"
           transform="translate(1271.332,580.667)"><path
             d="M 0,0 H 15.604 V 6.241 L 28.086,0 h 49.932 v 5.796 c 0,8.371 -6.788,15.157 -15.159,15.157 -16.496,0 -29.869,13.373 -29.869,29.869 H 0.121 Z"
             style="fill:#f4783b;fill-opacity:1;fill-rule:nonzero;stroke:none"
             id="path514" /></g><g
           id="g516"
           transform="translate(428.4634,583.3418)"><path
             d="m 0,0 c 0,-12.557 -45.508,-22.736 -101.645,-22.736 -56.137,0 -101.645,10.179 -101.645,22.736 0,12.557 45.508,22.736 101.645,22.736 C -45.508,22.736 0,12.557 0,0"
             style="fill:#b3b3b3;fill-opacity:1;fill-rule:nonzero;stroke:none"
             id="path518" /></g><path
           d="M 381.319,999.153 H 272.318 v 48.278 h 109.001 z"
           style="fill:#f9c5ac;fill-opacity:1;fill-rule:nonzero;stroke:none"
           id="path520" /><g
           id="g522"
           transform="translate(308.4849,615.4463)"><path
             d="m 0,0 14.251,-6.353 2.541,5.701 8.86,-10.784 45.605,-20.33 2.36,5.293 c 3.408,7.647 -0.027,16.608 -7.673,20.016 v 10e-4 C 37.951,7.243 60.375,64.115 67.092,79.182 L 40.786,90.909 Z"
             style="fill:#111111;fill-opacity:1;fill-rule:nonzero;stroke:none"
             id="path524" /></g><g
           id="g526"
           transform="translate(355.5674,682.3154)"><path
             d="m 0,0 12.725,-5.672 c 1.18,-0.526 2.564,0.004 3.09,1.185 0.527,1.18 -0.004,2.564 -1.184,3.091 L 1.906,4.276 C 0.726,4.802 -0.658,4.271 -1.185,3.091 -1.711,1.91 -1.181,0.526 0,0"
             style="fill:#999999;fill-opacity:1;fill-rule:nonzero;stroke:none"
             id="path528" /></g><g
           id="g530"
           transform="translate(351.9561,670.9297)"><path
             d="m 0,0 12.725,-5.672 c 1.18,-0.526 2.564,0.004 3.09,1.185 0.526,1.18 -0.004,2.564 -1.185,3.091 L 1.906,4.275 C 0.726,4.802 -0.658,4.271 -1.185,3.091 -1.711,1.91 -1.181,0.526 0,0"
             style="fill:#999999;fill-opacity:1;fill-rule:nonzero;stroke:none"
             id="path532" /></g><g
           id="g534"
           transform="translate(348.939,659.2793)"><path
             d="m 0,0 12.725,-5.673 c 1.18,-0.526 2.564,0.005 3.09,1.185 0.527,1.18 -0.003,2.564 -1.184,3.091 L 1.906,4.275 C 0.726,4.802 -0.658,4.271 -1.185,3.091 -1.711,1.91 -1.18,0.526 0,0"
             style="fill:#999999;fill-opacity:1;fill-rule:nonzero;stroke:none"
             id="path536" /></g><g
           id="g538"
           transform="translate(347.2207,647.0498)"><path
             d="m 0,0 12.724,-5.673 c 1.181,-0.526 2.565,0.004 3.091,1.185 0.526,1.18 -0.004,2.564 -1.185,3.091 L 1.906,4.275 C 0.725,4.802 -0.659,4.271 -1.185,3.091 -1.711,1.91 -1.181,0.526 0,0"
             style="fill:#999999;fill-opacity:1;fill-rule:nonzero;stroke:none"
             id="path540" /></g><g
           id="g542"
           transform="translate(381.6577,1322.9507)"><path
             d="m 0,0 c -0.85,22.239 -16.43,41.261 -38.01,46.699 -15.366,3.871 -34.16,3.87 -54.141,-6.874 -50.015,-26.893 -16.04,-112.723 -18.775,-165.552 H 14.97 C -3.835,-88.713 1.56,-40.838 0,0"
             style="fill:#1e345d;fill-opacity:1;fill-rule:nonzero;stroke:none"
             id="path544" /></g><g
           id="g546"
           transform="translate(253.2417,983.0752)"><path
             d="m 0,0 c -4.032,-0.001 -7.978,1.998 -10.302,5.652 l -38.694,60.854 c -2.241,3.524 -2.522,7.951 -0.746,11.731 L 2.802,190.034 c 2.864,6.094 10.128,8.714 16.223,5.85 6.096,-2.865 8.715,-10.129 5.85,-16.225 L -24.815,73.933 10.279,18.739 C 13.893,13.056 12.215,5.519 6.532,1.905 4.503,0.615 2.238,0 0,0"
             style="fill:#f9c5ac;fill-opacity:1;fill-rule:nonzero;stroke:none"
             id="path548" /></g><g
           id="g550"
           transform="translate(448.9819,987.1523)"><path
             d="m 0,0 c -35.238,36.399 -70.119,144.387 -80.966,180.075 -1.901,6.255 1.696,12.845 7.982,14.642 6.163,1.762 12.592,-1.761 14.426,-7.904 10.238,-34.29 43.05,-138.081 74.34,-170.402 z"
             style="fill:#f9c5ac;fill-opacity:1;fill-rule:nonzero;stroke:none"
             id="path552" /></g><g
           id="g554"
           transform="translate(266.3257,999.1533)"><path
             d="m 0,0 11.339,-150.872 3.443,-167.976 h 35.557 l 7.03,165.837 L 69.682,0 Z"
             style="fill:#00a9a3;fill-opacity:1;fill-rule:nonzero;stroke:none"
             id="path556" /></g><g
           id="g558"
           transform="translate(313.8828,999.1533)"><path
             d="M 0,0 52.39,-152.672 30.345,-293.688 64.518,-309.929 91.176,-159.424 69.683,0 Z"
             style="fill:#00a9a3;fill-opacity:1;fill-rule:nonzero;stroke:none"
             id="path560" /></g><g
           id="g562"
           transform="translate(384.0884,1047.4312)"><path
             d="m 0,0 c -38.243,-4.473 -76.616,-4.443 -115.114,0 l -7.864,128.451 c 0.022,3.561 4.613,6.441 10.269,6.441 H -5.914 c 6.897,0 12.531,-3.469 12.687,-7.81 L 9.156,78.909 2.285,42.855 Z"
             style="fill:#ec008c;fill-opacity:1;fill-rule:nonzero;stroke:none"
             id="path564" /></g><path
           d="m 334.949,1176.973 h -23.071 v 57.364 h 23.071 z"
           style="fill:#f9c5ac;fill-opacity:1;fill-rule:nonzero;stroke:none"
           id="path566" /><g
           id="g568"
           transform="translate(339.6904,1153.332)"><path
             d="m 0,0 h -24.762 c -13.78,0 -24.95,11.17 -24.95,24.95 v 4.23 H 24.951 V 24.95 C 24.951,11.17 13.78,0 0,0"
             style="fill:#f9c5ac;fill-opacity:1;fill-rule:nonzero;stroke:none"
             id="path570" /></g><g
           id="g572"
           transform="translate(296.894,1275.6309)"><path
             d="m 0,0 c 0,-7.541 -6.113,-13.653 -13.653,-13.653 -7.54,0 -13.653,6.112 -13.653,13.653 0,7.54 6.113,13.653 13.653,13.653 C -6.113,13.653 0,7.54 0,0"
             style="fill:#f9c5ac;fill-opacity:1;fill-rule:nonzero;stroke:none"
             id="path574" /></g><g
           id="g576"
           transform="translate(292.1255,1275.6309)"><path
             d="m 0,0 c 0,-4.907 -3.978,-8.885 -8.884,-8.885 -4.907,0 -8.885,3.978 -8.885,8.885 0,4.906 3.978,8.884 8.885,8.884 C -3.978,8.884 0,4.906 0,0"
             style="fill:#dda792;fill-opacity:1;fill-rule:nonzero;stroke:none"
             id="path578" /></g><g
           id="g580"
           transform="translate(387.3379,1280.3994)"><path
             d="m 0,0 c 0,-7.541 -6.113,-13.653 -13.653,-13.653 -7.54,0 -13.653,6.112 -13.653,13.653 0,7.54 6.113,13.653 13.653,13.653 C -6.113,13.653 0,7.54 0,0"
             style="fill:#f9c5ac;fill-opacity:1;fill-rule:nonzero;stroke:none"
             id="path582" /></g><g
           id="g584"
           transform="translate(382.5693,1280.3994)"><path
             d="m 0,0 c 0,-4.907 -3.978,-8.885 -8.884,-8.885 -4.907,0 -8.885,3.978 -8.885,8.885 0,4.906 3.978,8.884 8.885,8.884 C -3.978,8.884 0,4.906 0,0"
             style="fill:#dda792;fill-opacity:1;fill-rule:nonzero;stroke:none"
             id="path586" /></g><g
           id="g588"
           transform="translate(333.1104,1213.2725)"><path
             d="M 0,0 V 0 C -23.821,0 -43.132,21.272 -43.132,47.512 V 87.57 c 0,26.24 19.311,47.511 43.132,47.511 23.821,0 43.132,-21.271 43.132,-47.511 V 47.512 C 43.132,21.272 23.821,0 0,0"
             style="fill:#f9c5ac;fill-opacity:1;fill-rule:nonzero;stroke:none"
             id="path590" /></g><g
           id="g592"
           transform="translate(349.7168,1279.3086)"><path
             d="M 0,0 C 0,0 3.678,-16.718 7.188,-19.56 10.699,-22.402 -2.006,-30.928 -8.359,-24.575 -14.712,-18.223 0,0 0,0"
             style="fill:#dda792;fill-opacity:1;fill-rule:nonzero;stroke:none"
             id="path594" /></g><g
           id="g596"
           transform="translate(462.5347,1005.2354)"><path
             d="m 0,0 c 0,0 19.235,-1.75 27.314,-26.804 8.08,-25.053 -31.35,-24.806 -45.061,13.966 z"
             style="fill:#f9c5ac;fill-opacity:1;fill-rule:nonzero;stroke:none"
             id="path598" /></g><g
           id="g600"
           transform="translate(257.3662,1005.6919)"><path
             d="m 0,0 c 0,0 19.27,1.303 31.196,-22.165 11.927,-23.467 -27.049,-29.437 -46.699,6.69 z"
             style="fill:#f9c5ac;fill-opacity:1;fill-rule:nonzero;stroke:none"
             id="path602" /></g><g
           id="g604"
           transform="translate(382.5693,1348.3535)"><path
             d="m 0,0 c 0,0 -9.609,-43.467 -65.781,-37.448 0,0 9.685,-1.338 19.219,6.687 0,0 -33.103,-4.473 -45.22,-7.586 0,0 -0.923,83.82 91.782,38.347"
             style="fill:#1e345d;fill-opacity:1;fill-rule:nonzero;stroke:none"
             id="path606" /></g><g
           id="g608"
           transform="translate(284.4053,580.667)"><path
             d="M 0,0 H 15.604 V 6.241 L 28.086,0 h 49.931 v 5.796 c 0,8.371 -6.786,15.157 -15.158,15.157 -31.145,1.114 -33.82,62.19 -33.82,78.686 H 0.237 Z"
             style="fill:#111111;fill-opacity:1;fill-rule:nonzero;stroke:none"
             id="path610" /></g><g
           id="g612"
           transform="translate(300.1816,660.9131)"><path
             d="m 0,0 h 13.932 c 1.292,0 2.34,1.048 2.34,2.341 0,1.292 -1.048,2.34 -2.34,2.34 H 0 c -1.293,0 -2.341,-1.048 -2.341,-2.34 C -2.341,1.048 -1.293,0 0,0"
             style="fill:#999999;fill-opacity:1;fill-rule:nonzero;stroke:none"
             id="path614" /></g><g
           id="g616"
           transform="translate(301.519,649.043)"><path
             d="m 0,0 h 13.932 c 1.292,0 2.34,1.048 2.34,2.341 0,1.293 -1.048,2.341 -2.34,2.341 H 0 C -1.293,4.682 -2.341,3.634 -2.341,2.341 -2.341,1.048 -1.293,0 0,0"
             style="fill:#999999;fill-opacity:1;fill-rule:nonzero;stroke:none"
             id="path618" /></g><g
           id="g620"
           transform="translate(303.5073,637.1738)"><path
             d="m 0,0 h 13.932 c 1.292,0 2.34,1.048 2.34,2.34 0,1.293 -1.048,2.341 -2.34,2.341 H 0 C -1.292,4.681 -2.34,3.633 -2.34,2.34 -2.34,1.048 -1.292,0 0,0"
             style="fill:#999999;fill-opacity:1;fill-rule:nonzero;stroke:none"
             id="path622" /></g><g
           id="g624"
           transform="translate(306.917,625.3037)"><path
             d="m 0,0 h 13.932 c 1.292,0 2.34,1.048 2.34,2.341 0,1.292 -1.048,2.34 -2.34,2.34 H 0 c -1.292,0 -2.34,-1.048 -2.34,-2.34 C -2.34,1.048 -1.292,0 0,0"
             style="fill:#999999;fill-opacity:1;fill-rule:nonzero;stroke:none"
             id="path626" /></g></g></g></g></svg>
