<?xml version="1.0" encoding="UTF-8" standalone="no"?>
<svg
   xmlns:dc="http://purl.org/dc/elements/1.1/"
   xmlns:cc="http://creativecommons.org/ns#"
   xmlns:rdf="http://www.w3.org/1999/02/22-rdf-syntax-ns#"
   xmlns:svg="http://www.w3.org/2000/svg"
   xmlns="http://www.w3.org/2000/svg"
   xmlns:sodipodi="http://sodipodi.sourceforge.net/DTD/sodipodi-0.dtd"
   xmlns:inkscape="http://www.inkscape.org/namespaces/inkscape"
   version="1.1"
   id="svg2"
   xml:space="preserve"
   width="2313.1868"
   height="1983.0533"
   viewBox="0 0 2313.1868 1983.0533"
   sodipodi:docname="ambulance driver.eps"><metadata
     id="metadata8"><rdf:RDF><cc:Work
         rdf:about=""><dc:format>image/svg+xml</dc:format><dc:type
           rdf:resource="http://purl.org/dc/dcmitype/StillImage" /></cc:Work></rdf:RDF></metadata><defs
     id="defs6" /><sodipodi:namedview
     pagecolor="#ffffff"
     bordercolor="#666666"
     borderopacity="1"
     objecttolerance="10"
     gridtolerance="10"
     guidetolerance="10"
     inkscape:pageopacity="0"
     inkscape:pageshadow="2"
     inkscape:window-width="640"
     inkscape:window-height="480"
     id="namedview4" /><g
     id="g10"
     inkscape:groupmode="layer"
     inkscape:label="ink_ext_XXXXXX"
     transform="matrix(1.3333333,0,0,-1.3333333,0,1983.0533)"><g
       id="g12"
       transform="scale(0.1)"><path
         d="m 8490.82,264.301 163.7,1.301 163.7,-1.301 -327.4,-0.102 v 0.102"
         style="fill:#e3f6f9;fill-opacity:1;fill-rule:nonzero;stroke:none"
         id="path14" /><path
         d="m 15875.7,3507 c -223.3,-339.4 -525,-599.6 -860.8,-825.1 -483.9,-325 -1038.8,-577.9 -1533.2,-891.5 -269.5,-171 -537.6,-379.5 -653.7,-676.8 -8.1,-20.7 -15.2,-42 -21.1,-63.6 -80.2,-288.301 25.8,-643.199 302.8,-749.898 l -4455.18,-34.5 -4455.2,34.5 c -32.6,106.699 51.8,461.597 -29.9,749.898 -6.1,21.7 -13.1,42.9 -21.2,63.6 -116.1,297.3 -384.2,505.8 -653.7,676.8 -494.4,313.6 -1049.3,566.5 -1533.2,891.5 -335.8,225.5 -637.5,485.7 -860.8,825.1 -161.7,245.8 -267.7,515.2 -325.497,796.4 -88.003,427.5 -64.8,882.17 42.297,1322.76 99.7,410.31 272.1,808.2 495.2,1160.31 340.5,537.1 797.2,1030.7 923.5,1653.99 150.4,742.1 -203.2,1497.6 -170.2,2254.04 44.2,1011.2 794.8,1890.7 1700.9,2341.7 906.2,450.9 1947,541.6 2959.2,548.8 588,4.2 1180.7,-17.7 1753.51,-150.8 2.89,-0.7 5.79,-1.4 8.69,-2.1 2.9,0.7 5.8,1.4 8.7,2.1 572.8,133.1 1165.5,155 1753.48,150.8 1012.2,-7.2 2053,-97.9 2959.2,-548.8 906.1,-451 1656.7,-1330.5 1700.9,-2341.7 33,-756.44 -320.6,-1511.94 -170.2,-2254.04 126.3,-623.29 583,-1116.89 923.5,-1653.99 223.1,-352.01 395.5,-750 495.2,-1160.31 177.5,-730.2 124.6,-1499.56 -283.2,-2119.16"
         style="fill:#e3f6f9;fill-opacity:1;fill-rule:nonzero;stroke:none"
         id="path16" /><path
         d="m 16147.5,5626.16 h -1166.8 c -7.9,0 -14.4,6.45 -14.4,14.41 v 644.99 c 0,7.96 -6.4,14.4 -14.4,14.4 h -382.6 c -7.9,0 -14.4,-6.44 -14.4,-14.4 v -308.09 c 0,-7.96 -6.4,-14.4 -14.4,-14.4 h -445.7 c -7.9,0 -14.4,6.44 -14.4,14.4 v 912.52 c 0,12.83 -15.5,19.26 -24.6,10.19 l -308.9,-308.8 c -2.7,-2.7 -4.2,-6.37 -4.2,-10.19 v -581.52 c 0,-7.96 -6.4,-14.4 -14.4,-14.4 h -233 c -7.9,0 -14.4,6.44 -14.4,14.4 v 1131.39 c 0,7.96 -6.4,14.4 -14.4,14.4 h -740.6 c -7.9,0 -14.4,-6.44 -14.4,-14.4 V 5999.67 c 0,-7.96 -6.4,-14.4 -14.4,-14.4 h -219.6 c -7.9,0 -14.4,6.44 -14.4,14.4 v 371.79 c 0,7.96 -6.4,14.4 -14.4,14.4 H 12289 c -7.9,0 -14.4,6.46 -14.4,14.41 v 603.78 c 0,7.96 -6.4,14.41 -14.4,14.41 h -403.4 c -7.9,0 -14.4,-6.45 -14.4,-14.41 v -435.39 c 0,-7.95 -6.4,-14.4 -14.4,-14.4 h -241.2 c -7.9,0 -14.4,-6.45 -14.4,-14.4 v -693.59 c 0,-7.96 -6.4,-14.41 -14.4,-14.41 h -471 c -7.9,0 -14.4,6.45 -14.4,14.41 v 154.92 c 0,3.82 -1.5,7.49 -4.2,10.19 l -349.9,349.89 c -9.1,9.07 -24.6,2.65 -24.6,-10.18 v -504.82 c 0,-7.96 -6.4,-14.41 -14.4,-14.41 h -286.2 c -7.9,0 -14.4,6.45 -14.4,14.41 v 693.59 c 0,7.95 -6.4,14.4 -14.4,14.4 h -241.2 c -7.9,0 -14.4,6.45 -14.4,14.4 v 435.39 c 0,7.96 -6.4,14.41 -14.4,14.41 h -403.37 c -7.96,0 -14.41,-6.45 -14.41,-14.41 v -603.78 c 0,-7.95 -6.44,-14.41 -14.4,-14.41 h -159.8 c -7.95,0 -14.4,-6.44 -14.4,-14.4 v -371.79 c 0,-7.96 -6.45,-14.4 -14.41,-14.4 h -219.49 c -7.95,0 -14.4,6.44 -14.4,14.4 v 1131.39 c 0,7.96 -6.45,14.4 -14.41,14.4 h -740.58 c -7.96,0 -14.41,-6.44 -14.41,-14.4 V 5999.67 c 0,-7.96 -6.45,-14.4 -14.4,-14.4 h -233.09 c -7.96,0 -14.41,6.44 -14.41,14.4 v 581.52 c 0,3.83 -1.51,7.49 -4.22,10.19 l -308.79,308.79 c -9.07,9.08 -24.59,2.65 -24.59,-10.19 v -912.51 c 0,-7.96 -6.45,-14.4 -14.4,-14.4 h -445.79 c -7.96,0 -14.41,6.44 -14.41,14.4 v 308.09 c 0,7.96 -6.45,14.4 -14.4,14.4 h -382.49 c -7.96,0 -14.41,-6.44 -14.41,-14.4 v -644.99 c 0,-7.96 -6.45,-14.41 -14.4,-14.41 H 5678.63 c -5.87,0 -11.15,-3.55 -13.35,-8.99 v 0 c -5.95,-14.67 -27.76,-10.42 -27.76,5.41 v 378.61 c 0,3.82 -1.52,7.49 -4.22,10.19 l -349.89,349.89 c -9.07,9.07 -24.59,2.65 -24.59,-10.18 v -504.82 c 0,-7.96 -6.45,-14.41 -14.4,-14.41 h -286.19 c -7.96,0 -14.41,6.45 -14.41,14.41 v 693.59 c 0,7.95 -6.45,14.4 -14.4,14.4 h -241.19 c -7.96,0 -14.41,6.45 -14.41,14.4 v 435.39 c 0,7.96 -6.45,14.41 -14.4,14.41 h -403.39 c -7.96,0 -14.41,-6.45 -14.41,-14.41 v -603.78 c 0,-7.95 -6.45,-14.41 -14.41,-14.41 h -159.68 c -7.96,0 -14.41,-6.44 -14.41,-14.4 v -371.79 c 0,-7.96 -6.45,-14.4 -14.4,-14.4 h -219.6 c -7.95,0 -14.4,6.44 -14.4,14.4 v 1131.39 c 0,7.96 -6.45,14.4 -14.4,14.4 h -740.6 c -7.95,0 -14.4,-6.44 -14.4,-14.4 V 5999.67 c 0,-7.96 -6.45,-14.4 -14.4,-14.4 h -232.99 c -7.96,0 -14.41,6.44 -14.41,14.4 v 581.52 c 0,3.82 -1.51,7.49 -4.22,10.19 l -308.89,308.8 c -9.07,9.07 -24.59,2.64 -24.59,-10.19 v -912.52 c 0,-7.96 -6.45,-14.4 -14.4,-14.4 h -445.69 c -7.96,0 -14.41,6.44 -14.41,14.4 v 308.09 c 0,7.96 -6.45,14.4 -14.4,14.4 h -382.6 c -7.95,0 -14.4,-6.44 -14.4,-14.4 v -644.99 c 0,-7.96 -6.45,-14.41 -14.4,-14.41 H 828.723 c -6.684,0 -12.52,-4.59 -14.075,-11.08 C 709.844,5177.94 687.762,4727.3 775.023,4303.4 832.82,4022.2 938.82,3752.8 1100.52,3507 c 222.49,-338.2 522.8,-597.7 857.12,-822.7 2.4,-1.6 5.22,-2.4 8.11,-2.4 H 14967.1 c 14.3,0 19.9,-18.6 8,-26.5 -474.4,-312.4 -1012.5,-560 -1493.4,-865 -269.5,-171 -537.6,-379.5 -653.7,-676.8 -4,-10.1 -7.6,-20.4 -11.1,-30.7 3.5,10.3 7.2,20.6 11.1,30.7 116.1,297.3 384.2,505.8 653.7,676.8 494.4,313.6 1049.3,566.5 1533.2,891.5 335.8,225.5 637.5,485.7 860.8,825.1 405.8,616.4 460.2,1381.19 285.9,2108.08 -1.6,6.49 -7.4,11.08 -14.1,11.08"
         style="fill:#8cd9e5;fill-opacity:1;fill-rule:nonzero;stroke:none"
         id="path18" /><path
         d="m 4158.73,1084.5 c -1.72,5.1 -3.64,10.1 -5.48,15.2 1.84,-5.1 3.76,-10.1 5.48,-15.2"
         style="fill:#8cd9e5;fill-opacity:1;fill-rule:nonzero;stroke:none"
         id="path20" /><path
         d="m 12815.6,1078.7 c -3.1,-9.4 -5.9,-18.8 -8.6,-28.4 2.6,9.5 5.6,19 8.6,28.4"
         style="fill:#8cd9e5;fill-opacity:1;fill-rule:nonzero;stroke:none"
         id="path22" /><path
         d="m 4148.18,1113.6 c 116.2,-297.299 16.1,-698.799 -281.7,-813.498 l 4618.89,-35.801 v -0.102 h 5.4 v 0.102 l 4618.93,35.801 c -297.8,114.699 -397.9,516.199 -281.7,813.498 116.1,297.3 384.2,505.8 653.7,676.8 494.4,313.6 1049.3,566.5 1533.2,891.5 H 1961.28 c 483.9,-325 1038.8,-577.9 1533.2,-891.5 269.5,-171 537.6,-379.5 653.7,-676.8"
         style="fill:#4796bc;fill-opacity:1;fill-rule:nonzero;stroke:none"
         id="path24" /><path
         d="m 3551.25,0 h 9873.65 c 107.7,0 195,87.3008 195,195 v 0 c 0,107.699 -87.3,195 -195,195 H 3551.25 c -107.69,0 -195,-87.301 -195,-195 v 0 c 0,-107.6992 87.31,-195 195,-195"
         style="fill:#8cd9e5;fill-opacity:1;fill-rule:nonzero;stroke:none"
         id="path26" /><path
         d="m 5869.81,4265.9 h -58.33 c -19.29,0 -34.93,-15.7 -34.93,-35 v -140.1 c 0,-19.3 15.64,-34.9 34.93,-34.9 h 58.33 c 19.29,0 34.93,15.6 34.93,34.9 v 140.1 c 0,19.3 -15.64,35 -34.93,35"
         style="fill:#8cd9e5;fill-opacity:1;fill-rule:nonzero;stroke:none"
         id="path28" /><path
         d="m 6164.81,4265.9 h -105.13 c -19.3,0 -34.94,15.6 -34.94,34.9 v 215.1 c 0,19.3 15.64,35 34.94,35 h 105.13 c 19.29,0 34.93,-15.7 34.93,-35 v -215.1 c 0,-19.3 -15.64,-34.9 -34.93,-34.9"
         style="fill:#8cd9e5;fill-opacity:1;fill-rule:nonzero;stroke:none"
         id="path30" /><path
         d="m 15403.6,9323.32 137.5,24.11 c 177.7,31.17 296.5,200.51 265.3,378.23 l -24.1,137.47 c -31.2,177.77 87.6,347.07 265.4,378.27 v 0 c 177.7,31.1 347,-87.7 378.2,-265.39 l 24.1,-137.48 c 31.2,-177.72 200.5,-296.52 378.2,-265.35 l 137.5,24.11 c 177.7,31.17 347.1,-87.63 378.2,-265.35 v 0 c 31.2,-177.72 -87.6,-347.06 -265.3,-378.23 l -137.5,-24.11 c -177.7,-31.18 -296.5,-200.51 -265.4,-378.23 l 24.2,-137.48 c 31.1,-177.72 -87.7,-347.06 -265.4,-378.23 v 0 c -177.7,-31.17 -347.1,87.64 -378.2,265.36 l -24.1,137.47 c -31.2,177.72 -200.5,296.53 -378.3,265.35 l -137.4,-24.11 c -177.8,-31.16 -347.1,87.64 -378.3,265.36 v 0 c -31.1,177.72 87.7,347.06 265.4,378.23"
         style="fill:#8cd9e5;fill-opacity:1;fill-rule:nonzero;stroke:none"
         id="path32" /><path
         d="m 297.336,8703.5 95.453,-27.63 c 123.399,-35.72 252.387,35.36 288.109,158.76 l 27.625,95.45 c 35.719,123.39 164.707,194.47 288.106,158.76 v 0 c 123.401,-35.72 194.471,-164.71 158.751,-288.11 l -27.62,-95.45 c -35.72,-123.4 35.35,-252.39 158.75,-288.11 l 95.46,-27.63 c 123.39,-35.71 194.47,-164.7 158.75,-288.1 v 0 c -35.72,-123.4 -164.71,-194.48 -288.1,-158.76 l -95.45,27.63 c -123.4,35.72 -252.393,-35.36 -288.107,-158.76 L 841.43,7716.1 C 805.711,7592.7 676.723,7521.63 553.328,7557.35 h -0.004 c -123.394,35.71 -194.472,164.7 -158.758,288.1 l 27.633,95.46 c 35.719,123.39 -35.359,252.38 -158.754,288.1 l -95.461,27.63 c -123.3902,35.72 -194.4684,164.7 -158.75353,288.1 v 0 C 44.9492,8668.14 173.938,8739.22 297.336,8703.5"
         style="fill:#8cd9e5;fill-opacity:1;fill-rule:nonzero;stroke:none"
         id="path34" /><path
         d="m 1354.04,13025.5 84.88,-30.4 c 109.73,-39.2 230.51,17.9 269.77,127.6 l 30.37,84.9 c 39.26,109.7 160.04,166.8 269.77,127.6 v 0 c 109.73,-39.3 166.85,-160.1 127.59,-269.8 l -30.37,-84.9 c -39.26,-109.7 17.85,-230.5 127.58,-269.7 l 84.88,-30.4 c 109.73,-39.3 166.85,-160.1 127.59,-269.8 v 0 c -39.27,-109.7 -160.05,-166.8 -269.77,-127.6 l -84.88,30.4 c -109.73,39.3 -230.51,-17.9 -269.77,-127.6 l -30.37,-84.9 c -39.27,-109.7 -160.05,-166.8 -269.77,-127.5 v 0 c -109.73,39.2 -166.85,160 -127.59,269.7 l 30.37,84.9 c 39.27,109.7 -17.86,230.5 -127.58,269.8 l -84.88,30.4 c -109.73,39.2 -166.85,160 -127.59,269.7 v 0 c 39.26,109.7 160.04,166.9 269.77,127.6"
         style="fill:#8cd9e5;fill-opacity:1;fill-rule:nonzero;stroke:none"
         id="path36" /><path
         d="m 3276.23,13841.2 131.51,46.7 c 170.01,60.5 258.85,247.3 198.42,417.3 l -46.74,131.5 c -60.43,170 28.41,356.8 198.42,417.2 v 0 c 170.01,60.5 356.82,-28.4 417.25,-198.4 l 46.74,-131.5 c 60.43,-170 247.24,-258.8 417.26,-198.4 l 131.51,46.7 c 170.01,60.5 356.82,-28.4 417.25,-198.4 v 0 c 60.43,-170 -28.41,-356.8 -198.42,-417.2 l -131.51,-46.8 c -170.02,-60.4 -258.85,-247.2 -198.42,-417.2 l 46.74,-131.5 c 60.43,-170.1 -28.4,-356.9 -198.42,-417.3 v 0 c -170.01,-60.4 -356.83,28.4 -417.25,198.4 l -46.75,131.5 c -60.42,170 -247.23,258.9 -417.25,198.5 l -131.51,-46.8 c -170.02,-60.4 -356.82,28.4 -417.25,198.4 v 0 c -60.43,170 28.4,356.9 198.42,417.3"
         style="fill:#2a6399;fill-opacity:1;fill-rule:nonzero;stroke:none"
         id="path38" /><path
         d="m 14276.7,12574.7 131.5,46.8 c 170,60.4 258.8,247.2 198.4,417.2 l -46.7,131.6 c -60.5,170 28.4,356.8 198.4,417.2 v 0 c 170,60.4 356.8,-28.4 417.2,-198.4 l 46.8,-131.5 c 60.4,-170 247.2,-258.9 417.2,-198.4 l 131.5,46.7 c 170,60.4 356.9,-28.4 417.3,-198.4 v 0 c 60.4,-170 -28.4,-356.8 -198.4,-417.3 l -131.5,-46.7 c -170.1,-60.4 -258.9,-247.3 -198.5,-417.3 l 46.8,-131.5 c 60.4,-170 -28.4,-356.8 -198.4,-417.2 v 0 c -170.1,-60.5 -356.9,28.4 -417.3,198.4 l -46.7,131.5 c -60.5,170 -247.3,258.8 -417.3,198.4 l -131.5,-46.7 c -170,-60.5 -356.8,28.4 -417.3,198.4 v 0 c -60.4,170 28.5,356.8 198.5,417.2"
         style="fill:#2a6399;fill-opacity:1;fill-rule:nonzero;stroke:none"
         id="path40" /><path
         d="m 13216.7,11195.6 89.9,-22.1 c 116.2,-28.6 233.6,42.5 262.2,158.7 l 22.1,89.9 c 28.6,116.3 145.9,187.3 262.2,158.8 v 0 c 116.2,-28.6 187.3,-146 158.7,-262.2 l -22.1,-89.9 c -28.6,-116.3 42.5,-233.7 158.7,-262.2 l 89.9,-22.1 c 116.3,-28.6 187.3,-146 158.8,-262.2 v 0 c -28.6,-116.3 -146,-187.3 -262.2,-158.8 l -89.9,22.2 c -116.3,28.5 -233.7,-42.5 -262.2,-158.8 l -22.1,-89.9 c -28.6,-116.2 -146,-187.3 -262.2,-158.7 v 0 c -116.3,28.6 -187.3,145.9 -158.8,262.2 l 22.1,89.9 c 28.6,116.2 -42.4,233.6 -158.7,262.2 l -89.9,22.1 c -116.2,28.6 -187.3,145.9 -158.7,262.2 v 0 c 28.6,116.2 145.9,187.3 262.2,158.7"
         style="fill:#ffffff;fill-opacity:1;fill-rule:nonzero;stroke:none"
         id="path42" /><path
         d="m 16427.6,7232.89 57.4,-14.1 c 74.1,-18.22 149,27.11 167.2,101.27 l 14.2,57.36 c 18.2,74.16 93.1,119.5 167.2,101.27 v 0 c 74.2,-18.23 119.5,-93.12 101.3,-167.27 l -14.1,-57.37 c -18.2,-74.16 27.1,-149.05 101.3,-167.28 l 57.3,-14.1 c 74.2,-18.22 119.5,-93.12 101.3,-167.28 v 0 c -18.2,-74.16 -93.1,-119.49 -167.3,-101.27 l -57.4,14.1 c -74.1,18.24 -149,-27.1 -167.2,-101.26 l -14.1,-57.37 c -18.3,-74.15 -93.2,-119.49 -167.3,-101.26 v 0 c -74.2,18.22 -119.5,93.12 -101.3,167.28 l 14.1,57.36 c 18.2,74.16 -27.1,149.05 -101.2,167.28 l -57.4,14.1 c -74.2,18.23 -119.5,93.12 -101.3,167.27 v 0 c 18.3,74.16 93.1,119.51 167.3,101.27"
         style="fill:#2a6399;fill-opacity:1;fill-rule:nonzero;stroke:none"
         id="path44" /><path
         d="m 1038.97,9555.98 51.91,28.2 c 67.1,36.45 91.95,120.4 55.49,187.5 l -28.2,51.91 c -36.45,67.1 -11.6,151.05 55.5,187.51 v 0 c 67.09,36.4 151.04,11.6 187.5,-55.5 l 28.2,-51.91 c 36.45,-67.1 120.4,-91.94 187.5,-55.49 l 51.91,28.2 c 67.1,36.45 151.05,11.61 187.5,-55.49 v 0 c 36.45,-67.11 11.61,-151.05 -55.49,-187.51 l -51.91,-28.2 c -67.1,-36.45 -91.94,-120.4 -55.49,-187.5 l 28.2,-51.91 c 36.45,-67.1 11.61,-151.05 -55.49,-187.5 v 0 c -67.11,-36.45 -151.05,-11.61 -187.51,55.49 l -28.2,51.91 c -36.45,67.1 -120.4,91.94 -187.5,55.49 l -51.91,-28.2 c -67.1,-36.45 -151.05,-11.61 -187.5,55.49 v 0 c -36.453,67.1 -11.605,151.05 55.49,187.51"
         style="fill:#2a6399;fill-opacity:1;fill-rule:nonzero;stroke:none"
         id="path46" /><path
         d="m 3047.63,11924.7 57.36,-14.1 c 74.16,-18.2 149.06,27.1 167.28,101.3 l 14.11,57.3 c 18.22,74.2 93.12,119.5 167.27,101.3 v 0 c 74.16,-18.2 119.5,-93.1 101.27,-167.3 l -14.1,-57.4 c -18.23,-74.1 27.11,-149 101.26,-167.2 l 57.37,-14.1 c 74.16,-18.3 119.49,-93.2 101.27,-167.3 v 0 c -18.23,-74.2 -93.12,-119.5 -167.28,-101.3 l -57.37,14.1 c -74.15,18.2 -149.05,-27.1 -167.27,-101.2 l -14.1,-57.4 c -18.23,-74.2 -93.12,-119.5 -167.28,-101.3 v 0 c -74.16,18.3 -119.5,93.1 -101.27,167.3 l 14.1,57.4 c 18.23,74.1 -27.11,149 -101.27,167.2 l -57.36,14.1 c -74.16,18.3 -119.49,93.2 -101.27,167.3 v 0 c 18.23,74.2 93.12,119.5 167.28,101.3"
         style="fill:#ffffff;fill-opacity:1;fill-rule:nonzero;stroke:none"
         id="path48" /><path
         d="m 12733.1,12168.9 58.9,5 c 76.1,6.6 132.5,73.5 125.9,149.6 l -5,58.9 c -6.6,76 49.8,143 125.9,149.6 v 0 c 76.1,6.5 143.1,-49.9 149.6,-126 l 5.1,-58.8 c 6.5,-76.1 73.5,-132.5 149.5,-125.9 l 58.9,5 c 76.1,6.5 143.1,-49.8 149.6,-125.9 v 0 c 6.5,-76.1 -49.8,-143.1 -125.9,-149.6 l -58.9,-5.1 c -76.1,-6.5 -132.4,-73.5 -125.9,-149.6 l 5.1,-58.8 c 6.5,-76.1 -49.9,-143.1 -126,-149.6 v 0 c -76.1,-6.5 -143,49.8 -149.6,125.9 l -5,58.9 c -6.6,76.1 -73.5,132.4 -149.6,125.9 l -58.9,-5.1 c -76.1,-6.5 -143,49.9 -149.6,126 v 0 c -6.5,76.1 49.9,143 125.9,149.6"
         style="fill:#2a6399;fill-opacity:1;fill-rule:nonzero;stroke:none"
         id="path50" /><path
         d="M 13046.8,5189.2 V 3424.4 h -2931.3 c -102.3,0 -189.46,64.7 -222.72,155.5 -9.18,25.4 -14.31,53 -14.31,81.6 v 1527.7 c 0,130.95 106.11,237.06 237.03,237.06 h 2694.3 c 130.9,0 237,-106.11 237,-237.06"
         style="fill:#ffffff;fill-opacity:1;fill-rule:nonzero;stroke:none"
         id="path52" /><path
         d="M 15087.8,3895.8 V 3621 c 0,-112.8 -91.4,-204.3 -204.2,-204.3 h -592.5 c -19.1,0 -37.6,2.7 -55.1,7.7 h -1189.2 v 1648.15 h 789 c 121.6,0 233.8,-65.62 293.4,-171.74 l 284.6,-506.91 465.2,-261.3 104.5,-58.7 c 30.6,-17.2 55.4,-41.4 73.3,-70 19.9,-31.9 31,-69.1 31,-108.1"
         style="fill:#ffffff;fill-opacity:1;fill-rule:nonzero;stroke:none"
         id="path54" /><path
         d="m 11253.2,3130.9 c 0,-248 -201.1,-449 -449.1,-449 -248,0 -449,201 -449,449 0,248 201,449 449,449 248,0 449.1,-201 449.1,-449"
         style="fill:#1a181c;fill-opacity:1;fill-rule:nonzero;stroke:none"
         id="path56" /><path
         d="m 11057.9,3130.9 c 0,-6.5 -0.2,-12.9 -0.7,-19.3 -4.2,-55.5 -26.2,-106.2 -60.6,-146 -8.3,-9.8 -17.4,-18.9 -27.2,-27.2 -39.8,-34.4 -90.4,-56.4 -146,-60.5 -6.4,-0.5 -12.8,-0.8 -19.3,-0.8 -6.5,0 -12.8,0.3 -19.2,0.8 -55.6,4.1 -106.2,26.1 -146,60.5 -9.8,8.3 -18.9,17.4 -27.3,27.2 -34.3,39.8 -56.3,90.5 -60.5,146 -0.5,6.4 -0.8,12.8 -0.8,19.3 0,6.5 0.3,12.9 0.8,19.3 4.2,55.5 26.2,106.2 60.5,146 8.4,9.8 17.5,18.9 27.3,27.2 39.8,34.4 90.4,56.4 146,60.5 6.4,0.5 12.7,0.8 19.2,0.8 6.5,0 12.9,-0.3 19.3,-0.8 55.6,-4.1 106.2,-26.1 146,-60.5 9.8,-8.3 18.9,-17.4 27.2,-27.2 34.4,-39.8 56.4,-90.5 60.6,-146 0.5,-6.4 0.7,-12.8 0.7,-19.3"
         style="fill:#4796bc;fill-opacity:1;fill-rule:nonzero;stroke:none"
         id="path58" /><path
         d="m 10886.3,3083.9 86.9,-98.2 c -7.3,-8.5 -15.3,-16.5 -23.9,-23.9 l -98.2,86.9 c -8.3,7.3 -21.4,2 -22,-9.1 l -8,-130.9 c -5.6,-0.5 -11.2,-0.7 -17,-0.7 -5.7,0 -11.3,0.2 -16.9,0.7 l -8,130.9 c -0.7,11.1 -13.7,16.4 -22,9.1 l -98.2,-86.9 c -8.6,7.4 -16.6,15.4 -23.9,23.9 l 86.9,98.2 c 7.3,8.4 1.9,21.4 -9.2,22.1 l -130.9,8 c -0.4,5.6 -0.6,11.2 -0.6,16.9 0,5.7 0.2,11.3 0.6,16.9 l 130.9,8 c 11.1,0.7 16.5,13.7 9.2,22.1 l -86.9,98.2 c 7.3,8.5 15.3,16.5 23.9,23.9 l 98.2,-86.9 c 8.3,-7.3 21.3,-2 22,9.1 l 8,130.9 c 5.6,0.5 11.2,0.7 16.9,0.7 5.8,0 11.4,-0.2 17,-0.7 l 8,-130.9 c 0.6,-11.1 13.7,-16.4 22,-9.1 l 98.2,86.9 c 8.6,-7.4 16.6,-15.4 23.9,-23.9 l -86.9,-98.2 c -7.3,-8.4 -1.9,-21.4 9.2,-22.1 l 130.9,-8 c 0.4,-5.6 0.6,-11.2 0.6,-16.9 0,-5.7 -0.2,-11.3 -0.6,-16.9 l -130.9,-8 c -11.1,-0.7 -16.5,-13.7 -9.2,-22.1"
         style="fill:#ffffff;fill-opacity:1;fill-rule:nonzero;stroke:none"
         id="path60" /><path
         d="m 10251,3130.9 c 0,107.9 31,208.4 84.4,293.5 h -261.3 c -108.02,0 -195.63,-87.6 -195.63,-195.7 0,-108 87.61,-195.6 195.63,-195.6 h 185.7 c -5.7,31.7 -8.8,64.4 -8.8,97.8"
         style="fill:#1a181c;fill-opacity:1;fill-rule:nonzero;stroke:none"
         id="path62" /><path
         d="m 14516.3,3130.9 c 0,-248 -201,-449 -449,-449 -248,0 -449,201 -449,449 0,248 201,449 449,449 248,0 449,-201 449,-449"
         style="fill:#1a181c;fill-opacity:1;fill-rule:nonzero;stroke:none"
         id="path64" /><path
         d="m 14321.1,3130.9 c 0,-6.5 -0.3,-12.9 -0.8,-19.3 -4.1,-55.5 -26.1,-106.2 -60.5,-146 -8.3,-9.8 -17.4,-18.9 -27.2,-27.2 -39.8,-34.4 -90.5,-56.4 -146,-60.5 -6.4,-0.5 -12.8,-0.8 -19.3,-0.8 -6.5,0 -12.9,0.3 -19.3,0.8 -55.5,4.1 -106.2,26.1 -146,60.5 -9.8,8.3 -18.9,17.4 -27.2,27.2 -34.4,39.8 -56.4,90.5 -60.5,146 -0.5,6.4 -0.8,12.8 -0.8,19.3 0,6.5 0.3,12.9 0.8,19.3 4.1,55.5 26.1,106.2 60.5,146 8.3,9.8 17.4,18.9 27.2,27.2 39.8,34.4 90.5,56.4 146,60.5 6.4,0.5 12.8,0.8 19.3,0.8 6.5,0 12.9,-0.3 19.3,-0.8 55.5,-4.1 106.2,-26.1 146,-60.5 9.8,-8.3 18.9,-17.4 27.2,-27.2 34.4,-39.8 56.4,-90.5 60.5,-146 0.5,-6.4 0.8,-12.8 0.8,-19.3"
         style="fill:#4796bc;fill-opacity:1;fill-rule:nonzero;stroke:none"
         id="path66" /><path
         d="m 14149.5,3083.9 86.9,-98.2 c -7.4,-8.5 -15.4,-16.5 -23.9,-23.9 l -98.2,86.9 c -8.4,7.3 -21.4,2 -22.1,-9.1 l -8,-130.9 c -5.6,-0.5 -11.2,-0.7 -16.9,-0.7 -5.7,0 -11.3,0.2 -16.9,0.7 l -8,130.9 c -0.7,11.1 -13.7,16.4 -22.1,9.1 l -98.2,-86.9 c -8.5,7.4 -16.5,15.4 -23.9,23.9 l 86.9,98.2 c 7.3,8.4 2,21.4 -9.1,22.1 l -130.9,8 c -0.5,5.6 -0.7,11.2 -0.7,16.9 0,5.7 0.2,11.3 0.7,16.9 l 130.9,8 c 11.1,0.7 16.4,13.7 9.1,22.1 l -86.9,98.2 c 7.4,8.5 15.4,16.5 23.9,23.9 l 98.2,-86.9 c 8.4,-7.3 21.4,-2 22.1,9.1 l 8,130.9 c 5.6,0.5 11.2,0.7 16.9,0.7 5.7,0 11.3,-0.2 16.9,-0.7 l 8,-130.9 c 0.7,-11.1 13.7,-16.4 22.1,-9.1 l 98.2,86.9 c 8.5,-7.4 16.5,-15.4 23.9,-23.9 l -86.9,-98.2 c -7.3,-8.4 -2,-21.4 9.1,-22.1 l 130.9,-8 c 0.5,-5.6 0.7,-11.2 0.7,-16.9 0,-5.7 -0.2,-11.3 -0.7,-16.9 l -130.9,-8 c -11.1,-0.7 -16.4,-13.7 -9.1,-22.1"
         style="fill:#ffffff;fill-opacity:1;fill-rule:nonzero;stroke:none"
         id="path68" /><path
         d="m 13541.3,3033.1 c -5.8,31.7 -9.1,64.4 -9.1,97.8 0,108.4 32.4,209.2 87.8,293.5 h -2347.1 c 53.4,-85.1 84.4,-185.6 84.4,-293.5 0,-33.4 -3.1,-66.1 -8.8,-97.8 h 2192.8"
         style="fill:#1a181c;fill-opacity:1;fill-rule:nonzero;stroke:none"
         id="path70" /><path
         d="m 14965.9,3424.4 h -451.3 c 55.4,-84.3 87.8,-185.1 87.8,-293.5 0,-33.4 -3.2,-66.1 -9.1,-97.8 h 372.6 c 108.1,0 195.7,87.6 195.7,195.6 0,108.1 -87.6,195.7 -195.7,195.7"
         style="fill:#1a181c;fill-opacity:1;fill-rule:nonzero;stroke:none"
         id="path72" /><path
         d="M 15087.8,3895.8 V 3710.4 H 9878.47 v 293.5 h 5178.33 c 19.9,-31.9 31,-69.1 31,-108.1"
         style="fill:#f03e3f;fill-opacity:1;fill-rule:nonzero;stroke:none"
         id="path74" /><path
         d="m 10013.9,4067 v -419.7 c 0,-37.2 -30.14,-67.4 -67.35,-67.4 v 0 c -34.91,0 -64.28,26.6 -67.22,61.4 -0.57,6.6 -0.86,13.4 -0.86,20.2 V 4067 c 0,37.2 30.18,67.4 67.39,67.4 h 0.69 c 37.21,0 67.35,-30.2 67.35,-67.4"
         style="fill:#f89d32;fill-opacity:1;fill-rule:nonzero;stroke:none"
         id="path76" /><path
         d="m 15087.8,3895.8 v -59.6 c -8.6,-1 -17.2,-1.6 -26,-1.6 -113.2,0 -205,91.8 -205,205 0,33.5 7.9,65.1 22.2,93 l 104.5,-58.7 c 30.6,-17.2 55.4,-41.4 73.3,-70 19.9,-31.9 31,-69.1 31,-108.1"
         style="fill:#f89d32;fill-opacity:1;fill-rule:nonzero;stroke:none"
         id="path78" /><path
         d="m 14067.6,4244.6 h -740.4 c -71.7,0 -129.9,58.2 -129.9,129.9 v 395.1 c 0,71.7 58.2,129.86 129.9,129.86 h 516.9 c 46.8,0 90,-25.18 113,-65.96 l 223.5,-395.1 c 49,-86.6 -13.6,-193.8 -113,-193.8"
         style="fill:#8cd9e5;fill-opacity:1;fill-rule:nonzero;stroke:none"
         id="path80" /><path
         d="m 13783.1,5142.79 h -561.5 c -53.3,0 -96.6,43.24 -96.6,96.58 v 0 c 0,53.34 43.3,96.58 96.6,96.58 h 561.5 c 53.3,0 96.6,-43.24 96.6,-96.58 v 0 c 0,-53.34 -43.3,-96.58 -96.6,-96.58"
         style="fill:#f89d32;fill-opacity:1;fill-rule:nonzero;stroke:none"
         id="path82" /><path
         d="m 13572.6,5142.79 h -140.5 v -70.24 h 140.5 v 70.24"
         style="fill:#1a181c;fill-opacity:1;fill-rule:nonzero;stroke:none"
         id="path84" /><path
         d="m 11948,4672.4 c 0,-268.1 -217.3,-485.4 -485.4,-485.4 -268,0 -485.3,217.3 -485.3,485.4 0,268.05 217.3,485.37 485.3,485.37 268.1,0 485.4,-217.32 485.4,-485.37"
         style="fill:#f03e3f;fill-opacity:1;fill-rule:nonzero;stroke:none"
         id="path86" /><path
         d="m 11662,4781.5 h -90.2 v 86.5 c 0,28.43 -23.1,51.45 -51.5,51.45 H 11405 c -28.5,0 -51.5,-23.02 -51.5,-51.45 v -86.5 h -90.2 c -26.4,0 -47.7,-21.3 -47.7,-47.7 v -122.9 c 0,-26.3 21.3,-47.6 47.7,-47.6 h 90.2 v -86.5 c 0,-28.4 23,-51.5 51.5,-51.5 h 115.3 c 28.4,0 51.5,23.1 51.5,51.5 v 86.5 h 90.2 c 26.4,0 47.7,21.3 47.7,47.6 v 122.9 c 0,26.4 -21.3,47.7 -47.7,47.7"
         style="fill:#ffffff;fill-opacity:1;fill-rule:nonzero;stroke:none"
         id="path88" /><path
         d="m 4215.89,2918.5 -687.19,478.6 -174.6,121.6 -1342.2,934.9 c -45.3,31.5 -107.69,20.4 -139.2,-24.9 -31.59,-45.4 -20.49,-107.7 24.91,-139.3 l 1282.7,-893.4 174.49,-121.6 555.51,-386.9 h 287.37 c 5.53,10.8 11.69,21 18.21,31"
         style="fill:#ffffff;fill-opacity:1;fill-rule:nonzero;stroke:none"
         id="path90" /><path
         d="m 4793.21,4289.8 -1264.51,-892.7 -173.9,-122.7 -548,-386.9 h -315.09 c -20.71,0 -39.91,-6.3 -55.91,-17.1 l 744.51,525.6 173.79,122.7 1323.71,934.5 c 45.2,31.9 107.59,21.1 139.4,-24 31.89,-45.1 21.09,-107.5 -24,-139.4"
         style="fill:#ffffff;fill-opacity:1;fill-rule:nonzero;stroke:none"
         id="path92" /><path
         d="m 2825.71,2870.4 c 0,-104.1 -84.42,-188.5 -188.56,-188.5 -104.14,0 -188.57,84.4 -188.57,188.5 0,104.2 84.43,188.6 188.57,188.6 104.14,0 188.56,-84.4 188.56,-188.6"
         style="fill:#173a57;fill-opacity:1;fill-rule:nonzero;stroke:none"
         id="path94" /><path
         d="m 2722.35,2870.4 c 0,-47 -38.15,-85.2 -85.2,-85.2 -47.06,0 -85.2,38.2 -85.2,85.2 0,47.1 38.14,85.2 85.2,85.2 47.05,0 85.2,-38.1 85.2,-85.2"
         style="fill:#ffffff;fill-opacity:1;fill-rule:nonzero;stroke:none"
         id="path96" /><path
         d="m 4241.66,2870.4 c 0,-104.1 -84.43,-188.5 -188.57,-188.5 -104.14,0 -188.57,84.4 -188.57,188.5 0,104.2 84.43,188.6 188.57,188.6 104.14,0 188.57,-84.4 188.57,-188.6"
         style="fill:#173a57;fill-opacity:1;fill-rule:nonzero;stroke:none"
         id="path98" /><path
         d="M 4909.94,4199.9 H 1780.3 c -126.12,0 -228.35,102.2 -228.35,228.3 v 0 c 0,126.1 102.23,228.3 228.35,228.3 h 3129.64 c 126.11,0 228.34,-102.2 228.34,-228.3 v 0 c 0,-126.1 -102.23,-228.3 -228.34,-228.3"
         style="fill:#2a6399;fill-opacity:1;fill-rule:nonzero;stroke:none"
         id="path100" /><path
         d="m 4138.29,2870.4 c 0,-47 -38.15,-85.2 -85.2,-85.2 -47.06,0 -85.2,38.2 -85.2,85.2 0,47.1 38.14,85.2 85.2,85.2 47.05,0 85.2,-38.1 85.2,-85.2"
         style="fill:#ffffff;fill-opacity:1;fill-rule:nonzero;stroke:none"
         id="path102" /><path
         d="m 5930.42,4671.7 c 4.2,213.26 58.9,595.27 188.9,717.96 23.2,22 46.7,33.6 73,36.1 5.1,0.5 10.4,0.6 15.7,0.4 132,-5.09 203.4,-232.09 234.2,-367 36.5,-159.6 47.5,-321.16 50.6,-387.46 z m 763.1,-11.6 c -4.4,152.8 -48.3,949.26 -477.7,965.86 -7.9,0.3 -15.7,0.3 -23.5,0 -77.7,-2.5 -149.9,-33.8 -210.5,-91 -233.6,-220.89 -250.3,-796.56 -251.4,-861.46 0,-1.9 0.1,-3.7 0.2,-5.6 -65.8,-14.9 -115,-73.6 -115,-144 V 2343 c 0,-81.6 66.2,-147.8 147.9,-147.8 h 872.5 c 81.6,0 147.8,66.2 147.8,147.8 v 2180.9 c 0,61.3 -37.2,113.8 -90.3,136.2"
         style="fill:#ffffff;fill-opacity:1;fill-rule:nonzero;stroke:none"
         id="path104" /><path
         d="M 6783.82,4468.8 V 2343 c 0,-81.6 -66.2,-147.8 -147.8,-147.8 h -443.7 v 2273.6 h 591.5"
         style="fill:#e5e6e3;fill-opacity:1;fill-rule:nonzero;stroke:none"
         id="path106" /><path
         d="m 10523.7,9789.96 -862.18,-6.5 c 4.2,-388.1 15.8,-957.1 29.3,-1537.2 8.9,-377.9 18.5,-760.5 27.4,-1100.8 17.1,-659.5 31.4,-1160.19 31.4,-1160.19 h -1469.2 v 5553.23 l 1.7,1.1 403.1,250.2 863.6,-144 c 198.11,-33 1095.78,-616 974.88,-1855.84"
         style="fill:#f03e3f;fill-opacity:1;fill-rule:nonzero;stroke:none"
         id="path108" /><path
         d="m 9664.36,9785.99 862.14,6.47 8.4,-2938.33 c 32.3,-479.57 173.9,-1061.87 132.5,-1311.58 -97.8,-589.36 -638.4,-443.82 -488.1,-227.58 223.9,322.24 -133.5,445.7 -161.8,403.36 -28.27,-42.33 -67.6,-95.92 -105.96,-75.91 -101.53,52.97 4.61,228.94 79.97,359.14 40.09,69.18 137.29,253.9 128.89,333.4 0,0 -580.9,1911.28 -456.04,3451.03"
         style="fill:#fcd2d5;fill-opacity:1;fill-rule:nonzero;stroke:none"
         id="path110" /><path
         d="m 9667.76,9493.76 h 844.14 c 21.7,0 39.3,17.61 39.3,39.32 v 220.06 c 0,21.72 -17.6,39.32 -39.3,39.32 h -844.14 c -21.72,0 -39.32,-17.6 -39.32,-39.32 v -220.06 c 0,-21.71 17.6,-39.32 39.32,-39.32"
         style="fill:#f89d32;fill-opacity:1;fill-rule:nonzero;stroke:none"
         id="path112" /><path
         d="m 8656.09,12141.9 -372.27,-186.9 -372.26,186.9 c -9.58,-516.5 -144.17,-642.6 -144.17,-642.6 h 516.43 516.43 c 0,0 -134.59,126.1 -144.16,642.6"
         style="fill:#fcd2d5;fill-opacity:1;fill-rule:nonzero;stroke:none"
         id="path114" /><path
         d="m 8283.82,14130.3 c 0,0 -1104.07,128.5 -950.72,-957.1 153.34,-1085.6 511.14,-1295.1 950.72,-1295.1 v 2252.2"
         style="fill:#fcd2d5;fill-opacity:1;fill-rule:nonzero;stroke:none"
         id="path116" /><path
         d="m 7467.2,13181.5 c 0,0 -327.13,173.8 -378.24,-153.3 -51.12,-327.2 327.13,-388.5 495.8,-189.2"
         style="fill:#fcd2d5;fill-opacity:1;fill-rule:nonzero;stroke:none"
         id="path118" /><path
         d="M 8283.82,11538.5 V 5985.27 h -1469.2 c 0,0 14.2,500.69 31.4,1160.19 8.8,340.3 18.4,722.9 27.3,1100.8 13.5,580.1 25.1,1149.1 29.3,1537.2 l -862.1,6.5 c -121,1239.84 776.8,1822.84 974.8,1855.84 l 863.7,144 403.1,-250.2 1.7,-1.1"
         style="fill:#f03e3f;fill-opacity:1;fill-rule:nonzero;stroke:none"
         id="path120" /><path
         d="m 8283.82,5985.27 -216.6,-2986.77 -23,-316.6 -12.3,-170.1 -23,-316.6 -95.4,-1315.899 h -475.2 c -55.5,0 -100.5,45 -100.5,100.601 l -76.2,1215.298 -19.9,316.6 -10.7,170.1 -19.8,316.6 -187.4,2986.77 h 1260"
         style="fill:#2a6399;fill-opacity:1;fill-rule:nonzero;stroke:none"
         id="path122" /><path
         d="m 7438.36,878.801 c -51.13,-5.598 -544.86,-67.5 -796.58,-364.699 -41.47,-49 -6.19,-124.102 57.98,-124.102 h 1141.28 c 41.74,0 75.58,33.801 75.58,75.5 v 338.199 c 0,41.801 -33.84,75.602 -75.58,75.602 h -394.37 c -2.81,0 -5.52,-0.102 -8.31,-0.5"
         style="fill:#173a57;fill-opacity:1;fill-rule:nonzero;stroke:none"
         id="path124" /><path
         d="m 8283.82,14130.3 c 0,0 1104.07,128.5 950.72,-957.1 -153.34,-1085.6 -511.14,-1295.1 -950.72,-1295.1 v 2252.2"
         style="fill:#fcd2d5;fill-opacity:1;fill-rule:nonzero;stroke:none"
         id="path126" /><path
         d="m 9127.21,13181.5 c 0,0 327.13,173.8 378.24,-153.3 51.11,-327.2 -327.13,-388.5 -495.81,-189.2"
         style="fill:#fcd2d5;fill-opacity:1;fill-rule:nonzero;stroke:none"
         id="path128" /><path
         d="m 9459.22,5985.27 -173.9,-2986.77 -18.5,-316.6 -9.89,-170.1 -18.41,-316.6 -70.2,-1205.298 c 0,-61.101 -49.5,-110.601 -110.6,-110.601 h -470.79 l -78.11,1315.899 -18.8,316.6 -10.1,170.1 -18.79,316.6 -177.31,2986.77 h 1175.4"
         style="fill:#2a6399;fill-opacity:1;fill-rule:nonzero;stroke:none"
         id="path130" /><path
         d="m 9057.77,879.301 c 0,0 538.55,-51.899 803.36,-368.102 C 9901.34,463.102 9867.16,390 9804.5,390 H 8583.82 v 489.301 h 473.95"
         style="fill:#173a57;fill-opacity:1;fill-rule:nonzero;stroke:none"
         id="path132" /><path
         d="m 7997.55,12368.6 c 124.72,-88.1 341.01,-174.8 601.88,-2.5 58.12,38.4 20.8,107.4 -58.66,107.4 h -480.93 c -77.12,0 -116.88,-66.3 -62.29,-104.9"
         style="fill:#ffffff;fill-opacity:1;fill-rule:nonzero;stroke:none"
         id="path134" /><path
         d="m 8325.78,13138.9 c 37.39,0 69.91,-10.1 78.51,-24.4 38.41,-63.7 118.12,-391.1 -100.67,-391.1 -218.67,0 -140.96,327.2 -103.2,391 8.48,14.4 41.07,24.5 78.57,24.5 h 46.79"
         style="fill:#f797a6;fill-opacity:1;fill-rule:nonzero;stroke:none"
         id="path136" /><path
         d="m 7835.44,13253.4 c 66.55,0 88.78,-46.9 93.54,-97 2.45,-25.8 0.3,-52.3 -2.76,-73.9 -1.84,-12.9 -7.67,-24.4 -16.26,-33.4 -9.35,-9.7 -22.08,-16.3 -36.19,-17.8 l -56.27,-6.6 c -31.59,-3.7 -60.88,17.9 -66.1,49.3 -11.34,69.7 -13.8,179.4 84.04,179.4"
         style="fill:#291330;fill-opacity:1;fill-rule:nonzero;stroke:none"
         id="path138" /><path
         d="m 8732.2,13253.4 c -66.54,0 -88.78,-46.9 -93.54,-97 -2.45,-25.8 -0.31,-52.3 2.76,-73.9 1.84,-12.9 7.67,-24.4 16.26,-33.4 9.35,-9.7 22.08,-16.3 36.19,-17.8 l 56.28,-6.6 c 31.58,-3.7 60.87,17.9 66.08,49.3 11.35,69.7 13.8,179.4 -84.03,179.4"
         style="fill:#291330;fill-opacity:1;fill-rule:nonzero;stroke:none"
         id="path140" /><path
         d="m 8014.16,12764.4 c 0,-95.5 -103.58,-173 -231.35,-173 -127.78,0 -231.36,77.5 -231.36,173 0,95.5 103.58,173 231.36,173 127.77,0 231.35,-77.5 231.35,-173"
         style="fill:#fabcc5;fill-opacity:1;fill-rule:nonzero;stroke:none"
         id="path142" /><path
         d="m 9054.73,12764.4 c 0,-95.5 -103.58,-173 -231.36,-173 -127.77,0 -231.35,77.5 -231.35,173 0,95.5 103.58,173 231.35,173 127.78,0 231.36,-77.5 231.36,-173"
         style="fill:#fabcc5;fill-opacity:1;fill-rule:nonzero;stroke:none"
         id="path144" /><path
         d="m 7330.68,5678.42 h 609.17 c 175.97,0 323.95,132 343.97,306.84 v 0 H 7023.85 v 0 c 0,-169.47 137.37,-306.84 306.83,-306.84"
         style="fill:#173a57;fill-opacity:1;fill-rule:nonzero;stroke:none"
         id="path146" /><path
         d="M 8871.32,1202.4 C 8893.22,1031 8759.72,879.301 8586.93,879.301 L 8508.82,2195.2 h 306.2 l 56.3,-992.8"
         style="fill:#173a57;fill-opacity:1;fill-rule:nonzero;stroke:none"
         id="path148" /><path
         d="m 8787.52,2681.9 9.6,-170.1 h -307.1 l -10.1,170.1 h 307.6"
         style="fill:#173a57;fill-opacity:1;fill-rule:nonzero;stroke:none"
         id="path150" /><path
         d="m 9459.22,5985.27 c 0,-158.11 -128.2,-286.3 -286.2,-286.3 h -291.6 c -151.2,0 -268.1,-132.71 -248.9,-282.61 l 137,-2417.86 h -308.39 l -177.31,2986.77 h 1175.4"
         style="fill:#173a57;fill-opacity:1;fill-rule:nonzero;stroke:none"
         id="path152" /><path
         d="m 7878.99,11789.7 404.83,-764.5 404.83,764.5 c 0,0 -392.03,148.4 -809.66,0"
         style="fill:#fcd2d5;fill-opacity:1;fill-rule:nonzero;stroke:none"
         id="path154" /><path
         d="m 6899.86,9785.99 -862.18,6.47 -8.35,-2938.33 c -32.35,-479.57 -173.96,-1061.87 -132.51,-1311.58 97.83,-589.36 638.37,-443.82 488.13,-227.58 -223.91,322.24 133.46,445.7 161.74,403.36 28.29,-42.33 67.61,-95.92 105.98,-75.91 101.53,52.97 -4.6,228.94 -79.96,359.14 -40.06,69.18 -137.29,253.9 -128.89,333.4 0,0 580.89,1911.28 456.04,3451.03"
         style="fill:#fcd2d5;fill-opacity:1;fill-rule:nonzero;stroke:none"
         id="path156" /><path
         d="m 7553.95,13359.3 c 0.72,73.9 48.89,175.8 159.68,208 105.34,35 273.32,0.3 387.94,-134 26.24,-30.6 6.4,-38.7 -24.87,-18.4 -111.22,88.5 -373.5,95.7 -462.38,-85.7 -12.8,-29.2 -60.16,-8.9 -60.37,30.1"
         style="fill:#1a181c;fill-opacity:1;fill-rule:nonzero;stroke:none"
         id="path158" /><path
         d="m 9046.39,13359.3 c -0.72,73.9 -48.9,175.8 -159.68,208 -105.35,35 -273.32,0.3 -387.95,-134 -26.24,-30.6 -6.39,-38.7 24.88,-18.4 111.23,88.5 373.5,95.7 462.37,-85.7 12.8,-29.2 60.16,-8.9 60.38,30.1"
         style="fill:#1a181c;fill-opacity:1;fill-rule:nonzero;stroke:none"
         id="path160" /><path
         d="m 7407.52,13069.7 c 0,0 -11.36,453.6 110.92,630.5 10.89,15.7 35.51,8.3 35.51,-10.9 v 0 c 0,-17.7 21.93,-26.2 33.73,-13 24.74,27.7 56.65,71.6 72.34,126.9 3.94,13.8 20.76,19 31.53,9.4 47.35,-42.2 161.94,-125.2 328.76,-122 16.75,0.3 24.99,20.5 13.51,32.7 -30.79,32.7 -76.77,87.4 -95.72,139.9 -5.21,14.5 8.2,28.9 23.09,25.1 156.01,-39.5 861.73,-190.3 1281.49,185.8 9.14,8.2 8.22,22.8 -1.75,29.9 -117.45,84.4 -763.32,509 -1461.97,185.1 -14.05,-6.5 -29.67,5.3 -27.26,20.6 l 7.9,50.1 c 2.93,18.6 -19.81,30.3 -32.86,16.8 -24.83,-25.7 -51.77,-66.6 -51.35,-122.9 0.09,-11.5 -9.85,-20.7 -21.35,-19.4 -33.66,3.8 -98.75,1.6 -159.19,-55.1 -13.99,-13.2 -2.97,-36.4 15.99,-33.5 22.79,3.4 49.5,5.9 73.22,4.3 19.18,-1.3 25.03,-26.5 8.42,-36.2 -123.6,-71.9 -468.39,-342.6 -246.26,-1037.1"
         style="fill:#1a181c;fill-opacity:1;fill-rule:nonzero;stroke:none"
         id="path162" /><path
         d="m 8922.41,13892 c 0,0 273.42,-460 237.42,-822.3 l 61.3,7 c 0,0 197.83,338.3 -174.74,1030.8"
         style="fill:#1a181c;fill-opacity:1;fill-rule:nonzero;stroke:none"
         id="path164" /><path
         d="M 7878.99,11789.7 7454,11424.8 c -43.58,-37.5 -27.49,-108.4 27.98,-123.4 l 130.05,-35 c 40.43,-11 62.89,-54.1 48.64,-93.5 l -55.91,-154.4 c -11.62,-32.1 1.06,-67.9 30.29,-85.6 l 648.77,-391.6 v 483.9 l -404.83,764.5"
         style="fill:#f89d32;fill-opacity:1;fill-rule:nonzero;stroke:none"
         id="path166" /><path
         d="m 8688.65,11789.7 425,-364.9 c 43.58,-37.5 27.48,-108.4 -27.99,-123.4 l -130.05,-35 c -40.43,-11 -62.89,-54.1 -48.63,-93.5 l 55.9,-154.4 c 11.62,-32.1 -1.06,-67.9 -30.29,-85.6 l -648.77,-391.6 v 483.9 l 404.83,764.5"
         style="fill:#f89d32;fill-opacity:1;fill-rule:nonzero;stroke:none"
         id="path168" /><path
         d="m 6896.46,9493.76 h -844.17 c -21.72,0 -39.32,17.61 -39.32,39.32 v 220.06 c 0,21.72 17.6,39.32 39.32,39.32 h 844.17 c 21.71,0 39.31,-17.6 39.31,-39.32 v -220.06 c 0,-21.71 -17.6,-39.32 -39.31,-39.32"
         style="fill:#f89d32;fill-opacity:1;fill-rule:nonzero;stroke:none"
         id="path170" /><path
         d="m 9718.22,7145.46 h -2872.2 c 8.8,340.3 18.4,722.9 27.3,1100.8 h 2817.5 c 8.9,-377.9 18.5,-760.5 27.4,-1100.8"
         style="fill:#ffffff;fill-opacity:1;fill-rule:nonzero;stroke:none"
         id="path172" /><path
         d="m 8313.82,5985.26 h -60 v 5039.94 h 60 V 5985.26"
         style="fill:#d03c35;fill-opacity:1;fill-rule:nonzero;stroke:none"
         id="path174" /><path
         d="m 8043.43,10092.2 h -925.42 v 205.9 h 925.42 v -205.9"
         style="fill:#ffffff;fill-opacity:1;fill-rule:nonzero;stroke:none"
         id="path176" /><path
         d="m 9442.78,10092.2 h -925.42 v 205.9 h 925.42 v -205.9"
         style="fill:#ffffff;fill-opacity:1;fill-rule:nonzero;stroke:none"
         id="path178" /><path
         d="m 7211.22,2998.5 h 856 l -23,-316.6 h -813.2 l -19.8,316.6"
         style="fill:#f89d32;fill-opacity:1;fill-rule:nonzero;stroke:none"
         id="path180" /><path
         d="m 9285.32,2998.5 -18.5,-316.6 h -786.9 l -18.79,316.6 h 824.19"
         style="fill:#ec643a;fill-opacity:1;fill-rule:nonzero;stroke:none"
         id="path182" /><path
         d="m 9285.32,2998.5 -18.5,-316.6 h -479.3 l -18,316.6 h 515.8"
         style="fill:#f89d32;fill-opacity:1;fill-rule:nonzero;stroke:none"
         id="path184" /><path
         d="m 7241.72,2511.8 h 790.2 l -23,-316.6 h -747.3 l -19.9,316.6"
         style="fill:#ffffff;fill-opacity:1;fill-rule:nonzero;stroke:none"
         id="path186" /><path
         d="m 9256.93,2511.8 -18.41,-316.6 h -729.7 l -18.8,316.6 h 766.91"
         style="fill:#e5e6e3;fill-opacity:1;fill-rule:nonzero;stroke:none"
         id="path188" /><path
         d="m 9256.93,2511.8 -18.41,-316.6 h -423.5 l -17.9,316.6 h 459.81"
         style="fill:#ffffff;fill-opacity:1;fill-rule:nonzero;stroke:none"
         id="path190" /><path
         d="M 6803.24,4265.9 H 5581.36 c -63.08,0 -114.2,51.1 -114.2,114.2 v 177.4 c 0,63.1 51.12,114.2 114.2,114.2 h 1221.88 c 63.07,0 114.2,-51.1 114.2,-114.2 v -177.4 c 0,-63.1 -51.13,-114.2 -114.2,-114.2"
         style="fill:#f03e3f;fill-opacity:1;fill-rule:nonzero;stroke:none"
         id="path192" /><path
         d="m 6225.61,2998.5 h -64.5 c -41.35,0 -74.87,33.5 -74.87,74.8 v 517.3 c 0,41.3 33.52,74.9 74.87,74.9 h 64.5 c 41.36,0 74.88,-33.6 74.88,-74.9 v -517.3 c 0,-41.3 -33.52,-74.8 -74.88,-74.8"
         style="fill:#f03e3f;fill-opacity:1;fill-rule:nonzero;stroke:none"
         id="path194" /><path
         d="m 5859.86,3299.7 v 64.5 c 0,41.4 33.53,74.9 74.88,74.9 h 517.24 c 41.36,0 74.88,-33.5 74.88,-74.9 v -64.5 c 0,-41.3 -33.52,-74.9 -74.88,-74.9 h -517.24 c -41.35,0 -74.88,33.6 -74.88,74.9"
         style="fill:#f03e3f;fill-opacity:1;fill-rule:nonzero;stroke:none"
         id="path196" /></g></g></svg>
