<?xml version="1.0" encoding="UTF-8" standalone="no"?>
<svg
   xmlns:dc="http://purl.org/dc/elements/1.1/"
   xmlns:cc="http://creativecommons.org/ns#"
   xmlns:rdf="http://www.w3.org/1999/02/22-rdf-syntax-ns#"
   xmlns:svg="http://www.w3.org/2000/svg"
   xmlns="http://www.w3.org/2000/svg"
   xmlns:sodipodi="http://sodipodi.sourceforge.net/DTD/sodipodi-0.dtd"
   xmlns:inkscape="http://www.inkscape.org/namespaces/inkscape"
   version="1.1"
   id="svg2"
   xml:space="preserve"
   width="3029.3333"
   height="2496"
   viewBox="0 0 3029.3333 2496"
   sodipodi:docname="Illustration cartoon sunset with cactus.ai"><metadata
     id="metadata8"><rdf:RDF><cc:Work
         rdf:about=""><dc:format>image/svg+xml</dc:format><dc:type
           rdf:resource="http://purl.org/dc/dcmitype/StillImage" /></cc:Work></rdf:RDF></metadata><defs
     id="defs6"><radialGradient
       fx="0"
       fy="0"
       cx="0"
       cy="0"
       r="1"
       gradientUnits="userSpaceOnUse"
       gradientTransform="matrix(1565.054,0,0,-1565.054,1132,360)"
       spreadMethod="pad"
       id="radialGradient34"><stop
         style="stop-opacity:1;stop-color:#fff33b"
         offset="0"
         id="stop24" /><stop
         style="stop-opacity:1;stop-color:#fdc70c"
         offset="0.13312686"
         id="stop26" /><stop
         style="stop-opacity:1;stop-color:#fdc70c"
         offset="0.280899"
         id="stop28" /><stop
         style="stop-opacity:1;stop-color:#f3903f"
         offset="0.668539"
         id="stop30" /><stop
         style="stop-opacity:1;stop-color:#ed683c"
         offset="1"
         id="stop32" /></radialGradient><clipPath
       clipPathUnits="userSpaceOnUse"
       id="clipPath44"><path
         d="M 0,0 H 2272 V 1872 H 0 Z"
         id="path42" /></clipPath><clipPath
       clipPathUnits="userSpaceOnUse"
       id="clipPath52"><path
         d="M 17.4836,1206.31 H 2254.52 V 617.839 H 17.4836 Z"
         id="path50" /></clipPath><linearGradient
       x1="0"
       y1="0"
       x2="1"
       y2="0"
       gradientUnits="userSpaceOnUse"
       gradientTransform="matrix(7.8299823,555.88019,555.88019,-7.8299823,564.83075,772.57019)"
       spreadMethod="pad"
       id="linearGradient82"><stop
         style="stop-opacity:1;stop-color:#4f2500"
         offset="0"
         id="stop76" /><stop
         style="stop-opacity:1;stop-color:#6a151b"
         offset="0.21967835"
         id="stop78" /><stop
         style="stop-opacity:1;stop-color:#6a151b"
         offset="1"
         id="stop80" /></linearGradient><clipPath
       clipPathUnits="userSpaceOnUse"
       id="clipPath92"><path
         d="M 0,0 H 2272 V 1872 H 0 Z"
         id="path90" /></clipPath><linearGradient
       x1="0"
       y1="0"
       x2="1"
       y2="0"
       gradientUnits="userSpaceOnUse"
       gradientTransform="matrix(-817.1153,859.87134,859.87134,817.1153,829.27917,679.57471)"
       spreadMethod="pad"
       id="linearGradient122"><stop
         style="stop-opacity:1;stop-color:#fff33b"
         offset="0"
         id="stop110" /><stop
         style="stop-opacity:1;stop-color:#fdc70c"
         offset="0.13312686"
         id="stop112" /><stop
         style="stop-opacity:1;stop-color:#fdc70c"
         offset="0.280899"
         id="stop114" /><stop
         style="stop-opacity:1;stop-color:#f3903f"
         offset="0.668539"
         id="stop116" /><stop
         style="stop-opacity:1;stop-color:#ed683c"
         offset="0.88764"
         id="stop118" /><stop
         style="stop-opacity:1;stop-color:#e93e3a"
         offset="1"
         id="stop120" /></linearGradient><linearGradient
       x1="0"
       y1="0"
       x2="1"
       y2="0"
       gradientUnits="userSpaceOnUse"
       gradientTransform="matrix(-1079.9363,1136.4446,1136.4446,1079.9363,1317.2668,636.01263)"
       spreadMethod="pad"
       id="linearGradient150"><stop
         style="stop-opacity:1;stop-color:#fff33b"
         offset="0"
         id="stop138" /><stop
         style="stop-opacity:1;stop-color:#fdc70c"
         offset="0.13312686"
         id="stop140" /><stop
         style="stop-opacity:1;stop-color:#fdc70c"
         offset="0.280899"
         id="stop142" /><stop
         style="stop-opacity:1;stop-color:#f3903f"
         offset="0.668539"
         id="stop144" /><stop
         style="stop-opacity:1;stop-color:#ed683c"
         offset="0.88764"
         id="stop146" /><stop
         style="stop-opacity:1;stop-color:#e93e3a"
         offset="1"
         id="stop148" /></linearGradient><linearGradient
       x1="0"
       y1="0"
       x2="1"
       y2="0"
       gradientUnits="userSpaceOnUse"
       gradientTransform="matrix(557.35773,586.52179,-586.52179,557.35773,1673.9482,941.89044)"
       spreadMethod="pad"
       id="linearGradient178"><stop
         style="stop-opacity:1;stop-color:#fff33b"
         offset="0"
         id="stop166" /><stop
         style="stop-opacity:1;stop-color:#fdc70c"
         offset="0.13312686"
         id="stop168" /><stop
         style="stop-opacity:1;stop-color:#fdc70c"
         offset="0.280899"
         id="stop170" /><stop
         style="stop-opacity:1;stop-color:#f3903f"
         offset="0.668539"
         id="stop172" /><stop
         style="stop-opacity:1;stop-color:#ed683c"
         offset="0.88764"
         id="stop174" /><stop
         style="stop-opacity:1;stop-color:#e93e3a"
         offset="1"
         id="stop176" /></linearGradient><linearGradient
       x1="0"
       y1="0"
       x2="1"
       y2="0"
       gradientUnits="userSpaceOnUse"
       gradientTransform="matrix(-7.8299823,555.88019,-555.88019,-7.8299823,1707.1692,772.57019)"
       spreadMethod="pad"
       id="linearGradient200"><stop
         style="stop-opacity:1;stop-color:#4f2500"
         offset="0"
         id="stop194" /><stop
         style="stop-opacity:1;stop-color:#6a151b"
         offset="0.21967835"
         id="stop196" /><stop
         style="stop-opacity:1;stop-color:#6a151b"
         offset="1"
         id="stop198" /></linearGradient><clipPath
       clipPathUnits="userSpaceOnUse"
       id="clipPath210"><path
         d="M 0,0 H 2272 V 1872 H 0 Z"
         id="path208" /></clipPath><linearGradient
       x1="0"
       y1="0"
       x2="1"
       y2="0"
       gradientUnits="userSpaceOnUse"
       gradientTransform="matrix(817.1153,859.87134,-859.87134,817.1153,1319.1725,816.41443)"
       spreadMethod="pad"
       id="linearGradient464"><stop
         style="stop-opacity:1;stop-color:#fff33b"
         offset="0"
         id="stop452" /><stop
         style="stop-opacity:1;stop-color:#fdc70c"
         offset="0.13312686"
         id="stop454" /><stop
         style="stop-opacity:1;stop-color:#fdc70c"
         offset="0.280899"
         id="stop456" /><stop
         style="stop-opacity:1;stop-color:#f3903f"
         offset="0.668539"
         id="stop458" /><stop
         style="stop-opacity:1;stop-color:#ed683c"
         offset="0.88764"
         id="stop460" /><stop
         style="stop-opacity:1;stop-color:#e93e3a"
         offset="1"
         id="stop462" /></linearGradient></defs><sodipodi:namedview
     pagecolor="#ffffff"
     bordercolor="#666666"
     borderopacity="1"
     objecttolerance="10"
     gridtolerance="10"
     guidetolerance="10"
     inkscape:pageopacity="0"
     inkscape:pageshadow="2"
     inkscape:window-width="640"
     inkscape:window-height="480"
     id="namedview4" /><g
     id="g10"
     inkscape:groupmode="layer"
     inkscape:label="Illustration cartoon sunset with cactus"
     transform="matrix(1.3333333,0,0,-1.3333333,0,2496)"><g
       id="g12"><g
         id="g14"><g
           id="g20"><g
             id="g22"><path
               d="M 0,0 H 2272 V 1872 H 0 Z"
               style="fill:url(#radialGradient34);stroke:none"
               id="path36" /></g></g></g></g><g
       id="g38"><g
         id="g40"
         clip-path="url(#clipPath44)"><g
           id="g46"><g
             id="g48" /><g
             id="g60"><g
               clip-path="url(#clipPath52)"
               opacity="0.380005"
               id="g58"><g
                 transform="translate(27.3301,948.1064)"
                 id="g56"><path
                   d="M 0,0 C 36.92,102.026 190.25,274.987 271.18,256.894 320.377,245.895 348.04,67.377 392.743,36.699 430.497,10.79 519.14,41.801 561.06,36.699 598.894,32.094 672.84,4.604 710.674,0 c 44.249,-5.386 134.703,15.701 177.668,0 51.9,-18.967 134.222,-133.47 187.02,-146.772 41.912,-10.56 127.408,20.184 168.318,36.699 31.81,12.842 89.689,60.865 121.568,73.374 45.45,17.833 141.622,18.64 187.011,36.772 46.722,18.665 141.362,64.982 177.675,110.024 17.14,21.262 25.561,97.853 46.756,110.097 24.521,14.166 76.52,-32.075 102.855,-36.699 46.391,-8.145 143.995,25.495 187.028,0 58.894,-34.89 92.431,-190.662 142.617,-246.012 40.492,-44.657 0,-256.185 0,-256.185 L 9.352,-330.268 c 0,0 -36.048,256.495 -9.352,330.268"
                   style="fill:#facea5;fill-opacity:1;fill-rule:nonzero;stroke:none"
                   id="path54" /></g></g></g></g></g></g><path
       d="M 0,0 H 2272 V 772.034 H 0 Z"
       style="fill:#f7b576;fill-opacity:1;fill-rule:nonzero;stroke:none"
       id="path62" /><g
       id="g64"><g
         id="g66"><g
           id="g72"><g
             id="g74"><path
               d="m 0,760.815 1136,1.2 c 0,0 -37.689,24.805 -68.917,30.906 v 0 c -6.309,1.232 -13.47,-0.29 -20.64,-1.812 v 0 c -8.098,-1.719 -16.206,-3.438 -23.108,-1.188 v 0 c -7.433,2.422 -17.834,16.001 -25.267,18.424 v 0 c -10.011,3.262 -92.027,16.985 -102.115,20 v 0 c -7.895,2.359 -16.846,11.055 -29.48,14.74 v 0 c -12.633,3.685 -25.529,4.591 -33.69,7.371 v 0 c -5.628,1.917 -15.502,8.936 -21.057,11.053 v 0 c -14.197,5.411 -44.019,-22.497 -58.96,-25.259 v 0 c -5.981,-1.106 -13.043,2.214 -20.097,5.535 v 0 c -7.85,3.696 -15.689,7.391 -22.015,4.985 v 0 c -17.797,-6.769 -63.17,-7.37 -75.805,-7.37 v 0 c -12.634,0 -37.901,7.37 -50.535,11.056 v 0 c -12.635,3.685 -67.383,36.849 -67.383,36.849 v 0 l -21.056,-3.685 h -46.326 l -21.056,18.427 -16.845,11.053 -63.171,33.167 c 0,0 -52.188,12.118 -76.343,1.663 v 0 c -25.51,-11.043 -13.5,121.493 -92.112,129.375 v 0 c -40.096,4.021 -73.297,35.92 -92.648,48.945 v 0 c -14.538,9.785 -37.904,58.962 -37.904,58.962 v 0 L 0,1233.118 Z"
               style="fill:url(#linearGradient82);stroke:none"
               id="path84" /></g></g></g></g><g
       id="g86"><g
         id="g88"
         clip-path="url(#clipPath92)"><g
           id="g94"
           transform="translate(1136,762.5537)"><path
             d="m 0,0 c 0,0 -37.688,-8.162 -68.917,-10.169 -13.433,-0.864 -30.734,2.382 -43.748,0.987 -7.433,-0.797 -17.835,-5.265 -25.268,-6.062 -10.01,-1.073 -92.026,-5.589 -102.114,-6.58 -7.895,-0.777 -16.846,-3.638 -29.479,-4.851 -12.634,-1.213 -25.53,-1.51 -33.692,-2.425 -5.627,-0.63 -15.501,-2.94 -21.056,-3.636 -14.197,-1.782 -44.019,7.401 -58.959,8.31 -12.638,0.769 -30.101,-4.965 -42.113,-3.462 -17.797,2.228 -63.17,2.426 -75.804,2.426 -12.635,0 -37.902,-2.426 -50.536,-3.638 -12.635,-1.212 -67.383,-12.125 -67.383,-12.125 l -21.056,1.213 h -46.326 l -21.056,-6.062 -16.845,-3.637 -63.171,-10.913 c 0,0 -52.188,-3.987 -76.343,-0.547 -25.509,3.633 -13.5,-39.975 -92.112,-42.568 -40.096,-1.324 -73.297,-11.819 -92.648,-16.104 -14.538,-3.22 -37.903,-19.4 -37.903,-19.4 L -1136,-155.005 v 155.4 z"
             style="fill:#4f2500;fill-opacity:1;fill-rule:nonzero;stroke:none"
             id="path96" /></g></g></g><g
       id="g98"><g
         id="g100"><g
           id="g106"><g
             id="g108"><path
               d="m 6.931,1388.56 c -2.693,-0.654 -4.949,-0.367 -6.931,0.665 v 0 -132.903 c 1.983,0.34 4.237,0.435 6.931,0.219 v 0 c 23.054,-1.842 72.863,0.293 72.863,0.293 v 0 l 60.292,5.843 16.077,1.948 20.097,3.246 h 44.214 l 20.097,-0.649 c 0,0 52.252,5.843 64.311,6.492 v 0 c 12.059,0.65 36.174,1.949 48.233,1.949 v 0 c 12.058,0 55.363,-0.106 72.348,-1.299 v 0 c 6.038,-0.424 13.519,0.227 21.011,0.877 v 0 c 6.733,0.585 13.474,1.17 19.182,0.976 v 0 c 14.26,-0.487 42.723,-5.404 56.273,-4.45 v 0 c 5.302,0.373 14.726,1.61 20.097,1.947 v 0 c 7.788,0.491 20.098,0.65 32.155,1.299 v 0 c 12.057,0.65 20.601,2.181 28.136,2.597 v 0 c 9.628,0.531 87.906,2.949 97.46,3.524 v 0 c 7.095,0.426 17.022,2.819 24.116,3.246 v 0 c 6.587,0.396 14.325,0.093 22.053,-0.21 v 0 c 6.844,-0.268 13.679,-0.536 19.701,-0.318 v 0 c 25.158,0.907 54.708,4.161 63.311,5.155 v 0 l 2.465,10e-4 c 0,0 -0.22,0.081 -0.597,0.217 v 0 c 0.377,0.045 0.597,0.072 0.597,0.072 v 0 h -0.796 c -5.391,1.937 -37.75,13.275 -64.98,16.26 v 0 c -6.021,0.66 -12.855,-0.155 -19.699,-0.97 v 0 c -7.728,-0.92 -15.468,-1.841 -22.055,-0.636 v 0 c -7.094,1.297 -17.021,8.569 -24.116,9.865 v 0 c -9.554,1.747 -87.832,9.096 -97.46,10.71 v 0 c -7.535,1.263 -16.079,5.92 -28.136,7.892 v 0 c -12.057,1.974 -24.367,2.459 -32.155,3.948 v 0 c -5.371,1.027 -14.795,4.784 -20.097,5.918 v 0 c -13.55,2.898 -42.013,-12.045 -56.273,-13.525 v 0 c -5.708,-0.592 -12.448,1.185 -19.179,2.964 v 0 c -7.493,1.978 -14.976,3.957 -21.014,2.669 v 0 c -16.985,-3.624 -60.29,-3.946 -72.348,-3.946 v 0 c -12.059,0 -36.174,3.946 -48.233,5.92 v 0 c -12.059,1.974 -64.311,19.732 -64.311,19.732 v 0 l -20.097,-1.973 H 176.26 l -20.097,9.866 -16.077,5.919 -60.292,17.76 c 0,0 -24.308,3.166 -46.82,3.167 v 0 c -9.715,0 -19.093,-0.59 -26.043,-2.277"
               style="fill:url(#linearGradient122);stroke:none"
               id="path124" /></g></g></g></g><g
       id="g126"><g
         id="g128"><g
           id="g134"><g
             id="g136"><path
               d="m 0,1398.635 c 17.608,1.29 37.19,2.322 58.186,2.599 v 0 c 105.069,1.39 89.018,24.74 123.113,22.795 v 0 c 32.285,-1.843 102.038,0.292 102.038,0.292 v 0 l 84.432,5.844 22.514,1.947 28.144,3.247 h 61.917 l 28.143,-0.649 c 0,0 73.175,5.843 90.062,6.492 v 0 c 16.887,0.649 50.658,1.948 67.545,1.948 v 0 c 16.886,0 77.53,-0.106 101.316,-1.299 v 0 c 8.456,-0.424 18.933,0.227 29.423,0.878 v 0 c 9.429,0.585 18.869,1.17 26.864,0.975 v 0 c 19.969,-0.486 59.829,-5.403 78.803,-4.449 v 0 c 7.426,0.372 20.622,1.609 28.143,1.947 v 0 c 10.909,0.49 28.146,0.649 45.032,1.298 v 0 c 16.885,0.65 28.848,2.182 39.401,2.598 v 0 c 13.483,0.531 123.103,2.948 136.483,3.523 v 0 c 9.934,0.427 23.837,2.82 33.772,3.246 v 0 c 9.224,0.396 20.061,0.093 30.882,-0.209 v 0 c 9.584,-0.268 19.157,-0.537 27.589,-0.319 v 0 c 35.232,0.907 76.614,4.162 88.662,5.155 v 0 l 3.45,10e-4 c 0,0 -0.308,0.081 -0.836,0.217 v 0 c 0.528,0.045 0.836,0.072 0.836,0.072 v 0 h -1.113 c -7.551,1.938 -52.865,13.276 -90.999,16.261 v 0 c -8.431,0.66 -18.002,-0.155 -27.583,-0.97 v 0 c -10.825,-0.921 -21.662,-1.841 -30.888,-0.636 v 0 c -9.935,1.297 -23.838,8.568 -33.772,9.865 v 0 c -13.38,1.747 -123,9.095 -136.483,10.709 v 0 c -10.553,1.263 -22.516,5.92 -39.401,7.894 v 0 c -16.886,1.973 -34.123,2.458 -45.032,3.946 v 0 c -7.521,1.027 -20.717,4.785 -28.143,5.919 v 0 c -18.974,2.898 -58.834,-12.046 -78.803,-13.526 v 0 c -7.994,-0.592 -17.433,1.186 -26.86,2.964 v 0 c -10.493,1.978 -20.97,3.957 -29.427,2.67 v 0 c -23.786,-3.625 -84.43,-3.947 -101.316,-3.947 v 0 c -16.887,0 -50.658,3.947 -67.545,5.92 v 0 c -16.887,1.974 -90.062,19.733 -90.062,19.733 v 0 l -28.143,-1.974 h -61.917 l -28.144,9.867 -22.514,5.918 -84.432,17.761 c 0,0 -69.753,6.489 -102.038,0.889 v 0 c -34.095,-5.912 -18.044,65.057 -123.113,69.278 v 0 c -20.996,0.844 -40.578,3.979 -58.186,7.899 v 0 z"
               style="fill:url(#linearGradient150);stroke:none"
               id="path152" /></g></g></g></g><g
       id="g154"><g
         id="g156"><g
           id="g162"><g
             id="g164"><path
               d="m 2239.455,1511.563 c -45.338,-4.22 -38.412,-75.189 -53.123,-69.276 v 0 c -13.931,5.598 -44.03,-0.89 -44.03,-0.89 v 0 l -36.432,-17.761 -9.715,-5.918 -12.143,-9.867 h -26.718 l -12.144,1.973 c 0,0 -31.574,-17.759 -38.861,-19.732 v 0 c -7.287,-1.973 -21.858,-5.92 -29.146,-5.92 v 0 c -7.287,0 -33.454,0.322 -43.717,3.947 v 0 c -3.65,1.287 -8.171,-0.692 -12.698,-2.67 v 0 c -4.068,-1.778 -8.142,-3.557 -11.59,-2.964 v 0 c -8.617,1.48 -25.816,16.424 -34.004,13.526 v 0 c -3.203,-1.134 -8.898,-4.893 -12.144,-5.919 v 0 c -4.707,-1.488 -12.145,-1.973 -19.431,-3.946 v 0 c -7.285,-1.974 -12.448,-6.63 -17.001,-7.894 v 0 c -5.818,-1.615 -53.119,-8.963 -58.892,-10.709 v 0 c -4.287,-1.297 -10.286,-8.569 -14.573,-9.866 v 0 c -3.981,-1.204 -8.657,-0.284 -13.326,0.636 v 0 c -4.136,0.815 -8.266,1.63 -11.904,0.97 v 0 c -16.455,-2.984 -36.009,-14.322 -39.267,-16.26 v 0 h -0.48 c 0,0 0.133,-0.027 0.361,-0.072 v 0 c -0.228,-0.136 -0.361,-0.217 -0.361,-0.217 v 0 h 1.489 c 5.198,-0.992 23.055,-4.248 38.258,-5.155 v 0 c 3.637,-0.217 7.765,0.052 11.899,0.319 v 0 c 4.671,0.303 9.348,0.606 13.331,0.21 v 0 c 4.287,-0.427 10.286,-2.819 14.573,-3.246 v 0 c 5.773,-0.574 53.074,-2.992 58.892,-3.523 v 0 c 4.553,-0.416 9.716,-1.949 17.001,-2.598 v 0 c 7.286,-0.649 14.724,-0.809 19.431,-1.298 v 0 c 3.246,-0.338 8.941,-1.575 12.144,-1.947 v 0 c 8.188,-0.954 25.387,3.963 34.004,4.449 v 0 c 3.448,0.195 7.522,-0.39 11.59,-0.975 v 0 c 4.527,-0.651 9.048,-1.302 12.698,-0.878 v 0 c 10.263,1.193 36.43,1.298 43.717,1.298 v 0 c 7.288,0 21.859,-1.298 29.146,-1.947 v 0 c 7.287,-0.649 38.861,-6.493 38.861,-6.493 v 0 l 12.144,0.65 h 26.718 l 12.143,-3.247 9.715,-1.947 36.432,-5.844 c 0,0 30.099,-2.135 44.03,-0.292 v 0 c 14.711,1.945 7.785,-21.406 53.123,-22.795 v 0 c 12.137,-0.371 23.178,-2.096 32.545,-3.983 v 0 240.181 c -9.367,-5.735 -20.408,-10.977 -32.545,-12.108"
               style="fill:url(#linearGradient178);stroke:none"
               id="path180" /></g></g></g></g><g
       id="g182"><g
         id="g184"><g
           id="g190"><g
             id="g192"><path
               d="m 2222.529,1185.212 c 0,0 -23.365,-49.177 -37.902,-58.962 v 0 c -19.352,-13.025 -52.553,-44.924 -92.65,-48.945 v 0 c -78.612,-7.882 -66.601,-140.418 -92.11,-129.375 v 0 c -24.156,10.455 -76.344,-1.663 -76.344,-1.663 v 0 l -63.171,-33.167 -16.844,-11.053 -21.057,-18.427 h -46.326 l -21.057,3.685 c 0,0 -54.747,-33.164 -67.382,-36.849 v 0 c -12.634,-3.686 -37.9,-11.056 -50.536,-11.056 v 0 c -12.635,0 -58.007,0.601 -75.803,7.37 v 0 c -6.328,2.406 -14.168,-1.289 -22.018,-4.985 v 0 c -7.053,-3.321 -14.115,-6.641 -20.096,-5.535 v 0 c -14.94,2.762 -44.762,30.67 -58.959,25.259 v 0 c -5.555,-2.117 -15.428,-9.136 -21.056,-11.053 v 0 c -8.161,-2.78 -21.058,-3.686 -33.692,-7.371 v 0 c -12.633,-3.685 -21.584,-12.381 -29.479,-14.74 v 0 c -10.088,-3.015 -92.103,-16.738 -102.114,-20 v 0 c -7.434,-2.423 -17.835,-16.002 -25.268,-18.424 v 0 c -6.903,-2.25 -15.012,-0.531 -23.11,1.188 v 0 c -7.169,1.522 -14.331,3.044 -20.638,1.812 v 0 C 1173.688,786.82 1136,762.015 1136,762.015 v 0 l 1136,-1.2 v 472.303 z"
               style="fill:url(#linearGradient200);stroke:none"
               id="path202" /></g></g></g></g><g
       id="g204"><g
         id="g206"
         clip-path="url(#clipPath210)"><g
           id="g212"
           transform="translate(1136,762.5537)"><path
             d="m 0,0 c 0,0 37.688,-8.162 68.917,-10.169 13.433,-0.864 30.734,2.382 43.748,0.987 7.433,-0.797 17.834,-5.265 25.268,-6.062 10.01,-1.073 92.026,-5.589 102.114,-6.58 7.894,-0.777 16.847,-3.638 29.479,-4.851 12.634,-1.213 25.531,-1.51 33.692,-2.425 5.628,-0.63 15.501,-2.94 21.056,-3.636 14.197,-1.782 44.019,7.401 58.959,8.31 12.637,0.769 30.101,-4.965 42.114,-3.462 17.796,2.228 63.169,2.426 75.803,2.426 12.635,0 37.902,-2.426 50.537,-3.638 12.634,-1.212 67.381,-12.125 67.381,-12.125 l 21.057,1.213 h 46.326 l 21.057,-6.062 16.845,-3.637 63.17,-10.913 c 0,0 52.188,-3.987 76.343,-0.547 25.51,3.633 13.499,-39.975 92.112,-42.568 40.096,-1.324 73.297,-11.819 92.649,-16.104 14.537,-3.22 37.902,-19.4 37.902,-19.4 L 1136,-155.005 v 155.4 z"
             style="fill:#4f2500;fill-opacity:1;fill-rule:nonzero;stroke:none"
             id="path214" /></g><g
           id="g216"
           transform="translate(1330.3555,487.459)"><path
             d="m 0,0 c -9.333,-1.333 -14.667,-8.666 -14.667,-8.666 0,0 -9.86,-1.701 3.334,-6.033 13.193,-4.331 24,-9.967 40.333,-9.967 16.333,0 26.466,1.333 34.066,2.666 7.601,1.334 12.267,2 12.267,4 0,2 -10.218,15.764 -17.442,15.216 C 50.667,-3.333 32.667,0 32.667,0 Z"
             style="fill:#692e0b;fill-opacity:1;fill-rule:nonzero;stroke:none"
             id="path218" /></g><g
           id="g220"
           transform="translate(88.019,449.4082)"><path
             d="m 0,0 c -88.067,-1.989 -138.363,-4.581 -138.363,-4.581 0,0 -93.043,-2.166 31.48,-0.731 C 17.64,-3.876 119.632,15.182 273.759,18.146 427.886,21.111 523.498,4.902 595.21,6.576 666.923,8.251 710.957,9.246 710.948,9.688 710.939,10.132 614.464,11.324 546.293,9.892 478.122,8.459 308.254,24.273 308.254,24.273 Z"
             style="fill:#692e0b;fill-opacity:1;fill-rule:nonzero;stroke:none"
             id="path222" /></g><g
           id="g224"
           transform="translate(177.623,201.1221)"><path
             d="m 0,0 c -88.067,-1.989 -138.363,-4.581 -138.363,-4.581 0,0 -93.043,-2.166 31.48,-0.731 C 17.64,-3.876 119.632,15.182 273.759,18.146 427.886,21.11 523.498,4.901 595.21,6.576 c 71.713,1.675 115.747,2.67 115.738,3.112 -0.009,0.444 -96.484,1.636 -164.655,0.204 -68.171,-1.433 -238.039,14.38 -238.039,14.38 z"
             style="fill:#692e0b;fill-opacity:1;fill-rule:nonzero;stroke:none"
             id="path226" /></g><g
           id="g228"
           transform="translate(1097.168,458.5381)"><path
             d="m 0,0 c -62.413,-1.409 -98.057,-3.246 -98.057,-3.246 0,0 -65.94,-1.535 22.31,-0.518 88.249,1.018 160.53,14.524 269.76,16.624 109.229,2.102 176.989,-9.385 227.812,-8.199 50.822,1.187 82.029,1.892 82.023,2.206 C 503.842,7.181 435.47,8.025 387.157,7.011 338.845,5.995 218.459,17.202 218.459,17.202 Z"
             style="fill:#692e0b;fill-opacity:1;fill-rule:nonzero;stroke:none"
             id="path230" /></g><g
           id="g232"
           transform="translate(1957.8877,349.6689)"><path
             d="m 0,0 c -34.578,-0.781 -54.325,-1.799 -54.325,-1.799 0,0 -36.532,-0.85 12.359,-0.286 48.892,0.564 88.938,8.046 149.452,9.21 60.516,1.164 98.056,-5.2 126.212,-4.543 28.157,0.657 45.446,1.048 45.443,1.222 -0.003,0.174 -37.883,0.642 -64.649,0.08 C 187.726,3.321 121.03,9.53 121.03,9.53 Z"
             style="fill:#692e0b;fill-opacity:1;fill-rule:nonzero;stroke:none"
             id="path234" /></g><g
           id="g236"
           transform="translate(1619.2109,654.8408)"><path
             d="m 0,0 c -62.422,0.911 -98.11,0.4 -98.11,0.4 0,0 -65.952,0.917 22.275,-1.346 88.226,-2.263 160.959,8.547 270.191,6.586 109.233,-1.961 176.518,-15.959 227.35,-16.662 50.832,-0.704 82.043,-1.159 82.048,-0.845 0.006,0.314 -68.287,3.7 -116.605,4.481 C 338.833,-6.604 218.947,9.07 218.947,9.07 Z"
             style="fill:#692e0b;fill-opacity:1;fill-rule:nonzero;stroke:none"
             id="path238" /></g><g
           id="g240"
           transform="translate(1248.8262,94.8945)"><path
             d="m 0,0 c -133.239,1.996 -209.411,1.187 -209.411,1.187 0,0 -140.77,2.021 47.551,-2.645 C 26.461,-6.123 181.658,14 414.813,9.815 647.97,5.631 791.647,-21.135 900.146,-22.687 c 108.5,-1.551 175.12,-2.549 175.129,-1.956 0.011,0.594 -145.769,7.295 -248.902,8.984 -103.132,1.688 -359.087,31.854 -359.087,31.854 z"
             style="fill:#692e0b;fill-opacity:1;fill-rule:nonzero;stroke:none"
             id="path242" /></g><g
           id="g244"
           transform="translate(636.1313,661.4404)"><path
             d="m 0,0 c -62.413,-1.41 -98.058,-3.246 -98.058,-3.246 0,0 -65.939,-1.536 22.31,-0.519 88.249,1.018 160.531,14.524 269.761,16.625 109.229,2.101 176.989,-9.386 227.812,-8.199 50.822,1.187 82.029,1.892 82.022,2.205 C 503.841,7.18 435.47,8.025 387.157,7.01 338.844,5.994 218.459,17.202 218.459,17.202 Z"
             style="fill:#692e0b;fill-opacity:1;fill-rule:nonzero;stroke:none"
             id="path246" /></g><g
           id="g248"
           transform="translate(357.2681,473.6816)"><path
             d="m 0,0 c -11.144,-1.593 -17.512,-10.349 -17.512,-10.349 0,0 -11.774,-2.031 3.98,-7.203 15.754,-5.172 28.657,-11.901 48.159,-11.901 19.502,0 31.601,1.592 40.676,3.184 9.075,1.592 14.647,2.388 14.647,4.776 0,2.389 -12.2,18.822 -20.826,18.168 C 60.497,-3.98 39.005,0 39.005,0 Z"
             style="fill:#692e0b;fill-opacity:1;fill-rule:nonzero;stroke:none"
             id="path250" /></g><g
           id="g252"
           transform="translate(385.5737,441.4033)"><path
             d="m 0,0 c -15.497,0 -28.06,12.563 -28.06,28.06 v 535.493 c 0,15.496 12.563,28.059 28.06,28.059 15.497,0 28.06,-12.563 28.06,-28.059 V 28.06 C 28.06,12.563 15.497,0 0,0"
             style="fill:#490000;fill-opacity:1;fill-rule:nonzero;stroke:none"
             id="path254" /></g><g
           id="g256"
           transform="translate(385.5664,639.0049)"><path
             d="m 0,0 c -7.07,0 -12.905,5.622 -13.121,12.737 -0.22,7.25 5.48,13.306 12.73,13.526 0.133,0.004 13.901,0.451 28.778,2.685 22.761,3.419 29.083,8.056 30.322,9.18 5.486,15.156 8.757,115.016 8.757,204.249 0,7.254 5.881,13.134 13.135,13.134 7.253,0 13.134,-5.88 13.134,-13.134 0,-0.49 -0.016,-49.561 -1.348,-99.97 C 89.6,36.984 84.081,28.706 80.783,23.76 74.007,13.597 58.788,7.02 32.885,3.063 16.17,0.508 1.041,0.026 0.406,0.006 0.271,0.003 0.135,0 0,0"
             style="fill:#490000;fill-opacity:1;fill-rule:nonzero;stroke:none"
             id="path258" /></g><g
           id="g260"
           transform="translate(338.3691,721.8799)"><path
             d="m 0,0 h 0.012 z m 58.489,-37.568 c -0.135,0 -0.27,0.003 -0.406,0.005 -0.635,0.02 -15.765,0.502 -32.479,3.057 -25.902,3.957 -41.122,10.534 -47.897,20.697 -3.299,4.947 -8.818,13.225 -11.605,118.648 -1.332,50.409 -1.348,99.479 -1.348,99.97 0,7.253 5.88,13.133 13.134,13.133 7.254,0 13.134,-5.88 13.134,-13.133 0.002,-89.274 3.275,-189.181 8.765,-204.269 1.172,-1.061 7.446,-5.725 30.316,-9.16 14.876,-2.234 28.644,-2.682 28.781,-2.686 7.248,-0.224 12.946,-6.282 12.723,-13.53 -0.217,-7.113 -6.05,-12.732 -13.118,-12.732"
             style="fill:#490000;fill-opacity:1;fill-rule:nonzero;stroke:none"
             id="path262" /></g><g
           id="g264"
           transform="translate(382.2256,458.9551)"><path
             d="m 0,0 c -15.014,0 -22.881,5.858 -27.372,-1.645 l -155.162,-259.251 c -4.49,-7.501 13.765,-13.583 40.774,-13.583 27.009,0 51.622,6.082 54.974,13.583 L 29.059,-1.645 C 32.411,5.858 15.014,0 0,0"
             style="fill:#692e0b;fill-opacity:1;fill-rule:nonzero;stroke:none"
             id="path266" /></g><g
           id="g268"
           transform="translate(340.1582,375.2295)"><path
             d="m 0,0 c -8.677,0 -17.357,-2.722 -19.546,-6.166 -2.235,-3.511 3.317,-6.442 12.407,-6.549 0.167,-0.002 17.433,-0.219 35.729,-1.3 28.163,-1.655 35.365,-3.9 36.747,-4.444 4.446,-7.338 -7.767,-55.683 -22.471,-98.884 -1.195,-3.511 7.019,-6.359 18.347,-6.359 11.329,0 21.279,2.848 22.225,6.359 0.063,0.238 6.439,23.993 11.131,48.399 10.38,51.039 4.522,55.047 1.079,57.441 C 88.71,-6.582 70.917,-3.398 39.719,-1.482 19.729,-0.246 1.271,-0.013 0.497,-0.003 0.332,-0.001 0.165,0 0,0"
             style="fill:#692e0b;fill-opacity:1;fill-rule:nonzero;stroke:none"
             id="path270" /></g><g
           id="g272"
           transform="translate(256.1567,335.1064)"><path
             d="M 0,0 H -0.016 Z M 101.129,12.024 C 99.818,8.516 90.956,5.583 81.329,5.474 81.147,5.472 62.845,5.255 42.569,4.174 11.229,2.511 1.429,0.253 -0.471,-0.261 -12.67,-7.565 -49.734,-55.935 -78.889,-99.154 c -2.368,-3.512 -13.82,-6.359 -25.578,-6.359 -11.759,0 -19.168,2.847 -16.55,6.359 0.177,0.237 17.912,23.994 38.066,48.398 41.584,51.039 51.836,55.047 57.905,57.442 12.334,4.92 34.26,8.104 68.938,10.02 22.235,1.237 41.827,1.47 42.65,1.48 0.175,0.001 0.349,0.002 0.523,0.002 9.093,0 15.354,-2.72 14.064,-6.164"
             style="fill:#692e0b;fill-opacity:1;fill-rule:nonzero;stroke:none"
             id="path274" /></g><g
           id="g276"
           transform="translate(1985.0098,667.8691)"><path
             d="m 0,0 c 6.316,-0.902 9.926,-5.865 9.926,-5.865 0,0 6.673,-1.151 -2.256,-4.082 -8.93,-2.932 -16.242,-6.746 -27.296,-6.746 -11.054,0 -17.911,0.902 -23.055,1.804 -5.143,0.903 -8.301,1.354 -8.301,2.707 0,1.354 6.915,10.668 11.804,10.297 C -34.289,-2.256 -22.107,0 -22.107,0 Z"
             style="fill:#692e0b;fill-opacity:1;fill-rule:nonzero;stroke:none"
             id="path278" /></g><g
           id="g280"
           transform="translate(1735.1797,657.0205)"><path
             d="m 0,0 c 6.316,-0.902 9.926,-5.865 9.926,-5.865 0,0 6.674,-1.152 -2.256,-4.083 -8.929,-2.932 -16.241,-6.745 -27.295,-6.745 -11.054,0 -17.911,0.902 -23.055,1.804 -5.143,0.903 -8.301,1.354 -8.301,2.707 0,1.354 6.915,10.668 11.803,10.297 C -34.288,-2.256 -22.106,0 -22.106,0 Z"
             style="fill:#692e0b;fill-opacity:1;fill-rule:nonzero;stroke:none"
             id="path282" /></g><g
           id="g284"
           transform="translate(1968.9668,649.5752)"><path
             d="m 0,0 c 8.783,0 15.903,7.12 15.903,15.903 v 303.508 c 0,8.783 -7.12,15.903 -15.903,15.903 -8.783,0 -15.904,-7.12 -15.904,-15.903 V 15.903 C -15.904,7.12 -8.783,0 0,0"
             style="fill:#490000;fill-opacity:1;fill-rule:nonzero;stroke:none"
             id="path286" /></g><g
           id="g288"
           transform="translate(1968.9707,761.5723)"><path
             d="m 0,0 c 4.007,0 7.314,3.186 7.437,7.219 0.125,4.109 -3.106,7.541 -7.215,7.666 -0.076,0.002 -7.879,0.256 -16.311,1.522 -12.901,1.938 -16.484,4.566 -17.186,5.202 -3.11,8.591 -4.963,65.189 -4.963,115.765 0,4.111 -3.333,7.444 -7.445,7.444 -4.111,0 -7.444,-3.333 -7.444,-7.444 0,-0.277 0.009,-28.09 0.764,-56.66 1.579,-59.752 4.708,-64.444 6.577,-67.248 3.84,-5.76 12.467,-9.487 27.147,-11.731 C -9.165,0.287 -0.59,0.015 -0.23,0.003 -0.153,0.001 -0.076,0 0,0"
             style="fill:#490000;fill-opacity:1;fill-rule:nonzero;stroke:none"
             id="path290" /></g><g
           id="g292"
           transform="translate(1995.7139,808.5439)"><path
             d="m 0,0 h 0.007 z m -40.578,-14.077 c -0.126,4.108 3.102,7.542 7.211,7.669 0.078,0.002 7.881,0.256 16.312,1.522 12.963,1.948 16.518,4.591 17.183,5.192 3.111,8.551 4.967,65.177 4.968,115.775 0,4.111 3.333,7.444 7.444,7.444 4.111,0 7.444,-3.333 7.444,-7.444 0,-0.277 -0.009,-28.09 -0.764,-56.66 -1.579,-59.752 -4.708,-64.444 -6.577,-67.248 -3.84,-5.76 -12.466,-9.487 -27.148,-11.731 -9.474,-1.448 -18.048,-1.72 -18.408,-1.732 -0.077,-0.002 -0.153,-0.003 -0.231,-0.003 -4.004,0 -7.311,3.185 -7.434,7.216"
             style="fill:#490000;fill-opacity:1;fill-rule:nonzero;stroke:none"
             id="path294" /></g><g
           id="g296"
           transform="translate(1971.25,660.75)"><path
             d="m 0,0 c 8.38,1.481 12.127,6.253 15.374,2.509 l 112.183,-129.383 c 3.246,-3.744 -6.342,-8.94 -21.416,-11.605 -15.075,-2.666 -29.412,-1.7 -32.024,2.157 L -16.121,-3.06 C -18.732,0.797 -8.38,-1.481 0,0"
             style="fill:#692e0b;fill-opacity:1;fill-rule:nonzero;stroke:none"
             id="path298" /></g><g
           id="g300"
           transform="translate(2002.9258,618.8975)"><path
             d="m 0,0 c 4.843,0.856 9.956,0.194 11.518,-1.513 1.593,-1.738 -1.216,-3.923 -6.279,-4.879 -0.093,-0.017 -9.709,-1.842 -19.813,-4.252 -15.555,-3.702 -19.354,-5.666 -20.072,-6.106 -1.756,-4.533 9.831,-30.312 22.3,-52.972 1.014,-1.841 -3.29,-4.241 -9.612,-5.359 -6.322,-1.118 -12.157,-0.511 -13.031,1.355 -0.06,0.126 -5.962,12.756 -10.99,25.914 -10.829,27.462 -7.956,30.278 -6.27,31.954 3.387,3.43 13.003,6.963 30.227,11.111 11.035,2.663 21.313,4.615 21.745,4.696 C -0.185,-0.033 -0.093,-0.016 0,0"
             style="fill:#692e0b;fill-opacity:1;fill-rule:nonzero;stroke:none"
             id="path302" /></g><g
           id="g304"
           transform="translate(2053.7773,604.7949)"><path
             d="m 0,0 -0.009,-0.002 z m -50.397,1.559 c 0.097,0.016 0.194,0.033 0.293,0.049 0.459,0.077 11.416,1.879 23.949,3.383 19.544,2.353 32.095,2.739 39.465,1.21 3.624,-0.737 9.741,-1.963 37.986,-26.346 13.657,-11.631 25.9,-23.14 26.022,-23.255 1.808,-1.702 -2.047,-4.022 -8.609,-5.182 -6.563,-1.16 -13.235,-0.702 -14.904,1.024 C 33.269,-26.312 7.81,-2.974 0.279,-0.101 -0.832,-0.002 -6.523,0.292 -24.18,-1.873 -35.603,-3.27 -45.839,-4.955 -45.94,-4.972 c -5.384,-0.889 -10.621,-0.127 -11.698,1.702 -1.06,1.794 2.165,3.931 7.241,4.829"
             style="fill:#692e0b;fill-opacity:1;fill-rule:nonzero;stroke:none"
             id="path306" /></g><g
           id="g308"
           transform="translate(812.9902,685.748)"><path
             d="m 0,0 c -7.593,-0.676 -11.932,-4.391 -11.932,-4.391 0,0 -8.022,-0.862 2.712,-3.056 10.734,-2.196 19.525,-5.051 32.812,-5.051 13.288,0 21.532,0.676 27.715,1.352 6.183,0.674 9.979,1.012 9.979,2.026 0,1.014 -8.312,7.987 -14.19,7.709 C 41.219,-1.688 26.575,0 26.575,0 Z"
             style="fill:#692e0b;fill-opacity:1;fill-rule:nonzero;stroke:none"
             id="path310" /></g><g
           id="g312"
           transform="translate(836.6899,667.9854)"><path
             d="m 0,0 c -6.214,0 -11.252,5.038 -11.252,11.252 v 214.742 c 0,6.215 5.038,11.253 11.252,11.253 6.214,0 11.252,-5.038 11.252,-11.253 V 11.252 C 11.252,5.038 6.214,0 0,0"
             style="fill:#490000;fill-opacity:1;fill-rule:nonzero;stroke:none"
             id="path314" /></g><g
           id="g316"
           transform="translate(836.687,747.2266)"><path
             d="m 0,0 c -2.835,0 -5.175,2.255 -5.262,5.107 -0.088,2.909 2.198,5.336 5.105,5.425 0.053,10e-4 5.575,0.181 11.54,1.076 9.128,1.371 11.663,3.231 12.16,3.682 2.2,6.078 3.512,46.123 3.512,81.907 0,2.909 2.358,5.268 5.267,5.268 2.909,0 5.267,-2.359 5.267,-5.268 0,-0.196 -0.006,-19.874 -0.54,-40.089 C 35.931,14.832 33.718,11.512 32.395,9.528 29.678,5.452 23.575,2.814 13.188,1.228 6.485,0.203 0.417,0.01 0.163,0.003 0.108,0.001 0.054,0 0,0"
             style="fill:#490000;fill-opacity:1;fill-rule:nonzero;stroke:none"
             id="path318" /></g><g
           id="g320"
           transform="translate(802.4585,792.3379)"><path
             d="m 0,0 h 0.005 z m 9.484,-10.757 c -0.051,0 -0.103,10e-4 -0.155,0.002 -0.133,0.004 -3.308,0.106 -6.802,0.64 -5.986,0.914 -9.451,2.514 -11.234,5.188 -0.958,1.438 -2.151,3.227 -2.728,25.055 -0.268,10.139 -0.271,20.01 -0.271,20.107 0,2.778 2.251,5.029 5.028,5.029 2.777,0 5.028,-2.251 5.028,-5.029 0,-15.812 0.551,-34.485 1.455,-39.409 1.757,-0.717 6.124,-1.418 9.829,-1.53 2.775,-0.084 4.957,-2.401 4.873,-5.178 -0.083,-2.722 -2.317,-4.875 -5.023,-4.875"
             style="fill:#490000;fill-opacity:1;fill-rule:nonzero;stroke:none"
             id="path322" /></g><g
           id="g324"
           transform="translate(825.1108,868.1074)"><path
             d="m 0,0 z m 10.164,-9.81 c -0.044,0 -0.088,0.001 -0.133,0.002 -5.255,0.16 -14.512,1.087 -17.46,5.508 -0.907,1.362 -2.036,3.055 -2.607,24.676 -0.268,10.129 -0.271,19.99 -0.271,20.089 0,2.38 1.929,4.309 4.309,4.309 2.38,0 4.31,-1.929 4.31,-4.309 0,-16.669 0.572,-35.527 1.539,-39.914 1.6,-0.807 6.357,-1.619 10.441,-1.743 2.379,-0.073 4.25,-2.06 4.177,-4.439 -0.071,-2.334 -1.985,-4.179 -4.305,-4.179"
             style="fill:#490000;fill-opacity:1;fill-rule:nonzero;stroke:none"
             id="path326" /></g><g
           id="g328"
           transform="translate(823.2588,732.5732)"><path
             d="m 0,0 h 0.005 z m 16.387,-32.187 c -1.643,0 -3.3,0.511 -4.718,1.569 -3.371,2.514 -20.431,15.426 -25.252,22.658 -1.67,2.505 -3.957,5.937 -5.095,48.972 -0.535,20.249 -0.541,39.962 -0.541,40.159 0,4.363 3.537,7.9 7.9,7.9 4.363,0 7.901,-3.537 7.901,-7.9 0.001,-34.597 1.232,-73.766 3.299,-80.806 2.764,-3.595 12.939,-12.128 21.237,-18.318 3.497,-2.609 4.217,-7.559 1.608,-11.057 -1.551,-2.079 -3.93,-3.177 -6.339,-3.177"
             style="fill:#490000;fill-opacity:1;fill-rule:nonzero;stroke:none"
             id="path330" /></g><g
           id="g332"
           transform="translate(836.2275,678)"><path
             d="m 0,0 c -6.214,0 -10.937,1.988 -12.442,-3.961 l -52.036,-205.565 c -1.505,-5.95 7.617,-11.055 20.376,-11.404 12.759,-0.349 23.819,4.217 24.705,10.2 L 11.187,-4.021 C 12.071,1.961 6.214,0 0,0"
             style="fill:#692e0b;fill-opacity:1;fill-rule:nonzero;stroke:none"
             id="path334" /></g><g
           id="g336"
           transform="translate(822.5166,608.7441)"><path
             d="m 0,0 c -3.833,0.054 -7.481,-2.063 -8.214,-4.798 -0.75,-2.785 1.921,-5.162 5.969,-5.308 0.074,-0.002 7.765,-0.292 15.986,-1.282 12.669,-1.519 16.075,-3.369 16.739,-3.815 2.649,-5.921 1.652,-44.65 -0.935,-79.23 -0.211,-2.81 3.879,-5.191 9.134,-5.316 5.255,-0.125 9.575,2.059 9.65,4.877 0.005,0.19 0.497,19.255 0.156,38.856 -0.403,40.979 -3.4,44.242 -5.158,46.19 C 39.786,-5.828 31.62,-3.159 17.662,-1.43 8.732,-0.317 0.562,-0.018 0.219,-0.005 0.146,-0.002 0.073,-0.001 0,0"
             style="fill:#692e0b;fill-opacity:1;fill-rule:nonzero;stroke:none"
             id="path338" /></g><g
           id="g340"
           transform="translate(760.7246,566.4482)"><path
             d="M 0,0 H -0.008 Z M 24.152,5.191 C 23.505,2.538 19.479,0.388 15.155,0.389 9.382,0.39 2.379,-0.149 -0.596,-0.781 c -3.126,-4.658 -10.561,-22.407 -16.122,-37.452 -0.976,-2.642 -5.714,-4.693 -10.58,-4.581 -4.868,0.111 -7.921,2.337 -6.821,4.973 0.039,0.093 3.955,9.461 8.413,19.074 9.515,20.702 12.05,22.366 14.072,23.703 3.73,2.49 9.566,3.917 18.918,4.625 5.435,0.414 10.242,0.424 10.445,0.424 0.078,0.001 0.155,0 0.233,-0.002 4.071,-0.072 6.828,-2.187 6.19,-4.792"
             style="fill:#692e0b;fill-opacity:1;fill-rule:nonzero;stroke:none"
             id="path342" /></g><g
           id="g344"
           transform="translate(777.4023,493.2559)"><path
             d="M 0,0 Z M 28.333,4.723 C 28.041,2.435 24.164,0.614 19.671,0.656 11.954,0.73 2.801,0.177 -0.417,-0.521 c -2.918,-4.152 -8.75,-22.166 -12.938,-38.116 -0.598,-2.277 -5.11,-4.01 -10.077,-3.873 -4.967,0.138 -8.435,2.092 -7.746,4.364 0.029,0.094 2.889,9.509 6.352,19.167 7.31,20.617 9.91,22.181 11.989,23.439 6.675,4.091 24.003,4.56 33.733,4.476 0.083,-10e-4 0.164,-0.002 0.246,-0.004 4.278,-0.105 7.479,-1.963 7.191,-4.209"
             style="fill:#692e0b;fill-opacity:1;fill-rule:nonzero;stroke:none"
             id="path346" /></g><g
           id="g348"
           transform="translate(808.0635,623.0156)"><path
             d="M 0,0 H -0.006 Z M 33.619,27.564 C 36.152,24.175 34.601,19.417 30.007,16.943 18.785,11.095 4.174,3.054 -0.25,-0.348 c -4.506,-6.7 -16.596,-44.122 -25.839,-77.194 -1.166,-4.171 -8.061,-7.424 -15.4,-7.265 -7.34,0.159 -12.096,3.656 -10.624,7.811 0.066,0.186 6.725,18.957 14.34,38.225 15.866,40.967 19.885,44.204 22.775,46.569 8.138,6.84 31.716,19.018 36.136,21.402 1.838,1.005 3.832,1.482 5.711,1.469 2.755,-0.019 5.303,-1.092 6.77,-3.105"
             style="fill:#692e0b;fill-opacity:1;fill-rule:nonzero;stroke:none"
             id="path350" /></g><g
           id="g352"
           transform="translate(1716.0996,629.4043)"><path
             d="m 0,0 c -11.284,0 -20.433,9.147 -20.433,20.432 v 389.923 c 0,11.284 9.149,20.432 20.433,20.432 11.283,0 20.432,-9.148 20.432,-20.432 V 20.432 C 20.432,9.147 11.283,0 0,0"
             style="fill:#490000;fill-opacity:1;fill-rule:nonzero;stroke:none"
             id="path354" /></g><g
           id="g356"
           transform="translate(1716.0938,773.2891)"><path
             d="m 0,0 c -5.147,0 -9.397,4.094 -9.554,9.273 -0.16,5.281 3.991,9.69 9.27,9.85 0.097,0.003 10.122,0.329 20.954,1.956 16.574,2.489 21.178,5.865 22.079,6.684 3.995,11.036 6.377,83.749 6.377,148.725 0,5.282 4.282,9.564 9.564,9.564 5.282,0 9.564,-4.282 9.564,-9.564 0,-0.356 -0.012,-36.088 -0.982,-72.793 C 65.243,26.931 61.224,20.902 58.822,17.301 53.889,9.9 42.807,5.111 23.945,2.229 11.774,0.369 0.758,0.019 0.296,0.004 0.196,0.001 0.098,0 0,0"
             style="fill:#490000;fill-opacity:1;fill-rule:nonzero;stroke:none"
             id="path358" /></g><g
           id="g360"
           transform="translate(1653.9434,855.2012)"><path
             d="m 0,0 h 0.009 z m 17.221,-19.532 c -0.094,0 -0.188,0.001 -0.282,0.004 -0.243,0.007 -6.006,0.191 -12.35,1.16 -10.871,1.661 -17.162,4.566 -20.4,9.422 -1.739,2.609 -3.905,5.858 -4.953,45.493 -0.486,18.409 -0.492,36.333 -0.492,36.512 0,5.042 4.088,9.129 9.129,9.129 5.042,0 9.129,-4.087 9.129,-9.129 0.001,-28.713 1.002,-62.618 2.644,-71.559 3.19,-1.302 11.12,-2.575 17.846,-2.778 5.039,-0.154 9.001,-4.363 8.849,-9.402 -0.151,-4.945 -4.207,-8.852 -9.12,-8.852"
             style="fill:#490000;fill-opacity:1;fill-rule:nonzero;stroke:none"
             id="path362" /></g><g
           id="g364"
           transform="translate(1695.0742,992.7803)"><path
             d="m 0,0 z m 18.456,-17.811 c -0.08,0 -0.161,0.001 -0.241,0.003 -9.543,0.29 -26.352,1.974 -31.704,10.001 -1.647,2.472 -3.697,5.547 -4.735,44.806 -0.486,18.392 -0.492,36.298 -0.492,36.477 0,4.321 3.503,7.825 7.825,7.825 4.322,0 7.826,-3.504 7.826,-7.825 0,-30.268 1.04,-64.508 2.794,-72.475 2.906,-1.465 11.543,-2.941 18.959,-3.166 4.32,-0.13 7.716,-3.738 7.585,-8.058 -0.128,-4.239 -3.605,-7.588 -7.817,-7.588"
             style="fill:#490000;fill-opacity:1;fill-rule:nonzero;stroke:none"
             id="path366" /></g><g
           id="g368"
           transform="translate(1691.7109,746.6826)"><path
             d="m 0,0 h 0.009 z m 29.756,-58.444 c -2.984,0 -5.991,0.926 -8.567,2.848 -6.121,4.566 -37.098,28.01 -45.853,41.142 -3.032,4.549 -7.185,10.778 -9.25,88.922 -0.973,36.767 -0.983,72.561 -0.983,72.919 0,7.923 6.422,14.345 14.345,14.345 7.922,0 14.346,-6.422 14.346,-14.345 0.001,-62.819 2.237,-133.941 5.991,-146.724 5.018,-6.53 23.494,-22.023 38.56,-33.263 6.35,-4.737 7.658,-13.725 2.921,-20.076 -2.817,-3.775 -7.136,-5.768 -11.51,-5.768"
             style="fill:#490000;fill-opacity:1;fill-rule:nonzero;stroke:none"
             id="path370" /></g><g
           id="g372"
           transform="translate(1356.4189,459.5371)"><path
             d="m 0,0 c -15.188,0 -27.5,12.313 -27.5,27.5 v 448.478 c 0,15.188 12.312,27.5 27.5,27.5 15.188,0 27.5,-12.312 27.5,-27.5 V 27.5 C 27.5,12.313 15.188,0 0,0"
             style="fill:#490000;fill-opacity:1;fill-rule:nonzero;stroke:none"
             id="path374" /></g><g
           id="g376"
           transform="translate(1373.6338,604.584)"><path
             d="m 0,0 c -11.521,0 -21.842,2.421 -25.415,3.361 -8.813,2.32 -14.076,11.344 -11.757,20.157 2.319,8.812 11.343,14.075 20.157,11.756 9.176,-2.374 20.914,-2.983 25.18,-1.434 4.926,17.915 12.222,109.595 16.641,191.485 0.491,9.1 8.254,16.071 17.365,15.587 9.1,-0.491 16.078,-8.266 15.587,-17.365 -0.025,-0.465 -2.551,-47.066 -6.148,-94.83 C 44.055,28.384 39.376,20.886 36.28,15.924 28.384,3.27 13.384,0 0,0"
             style="fill:#490000;fill-opacity:1;fill-rule:nonzero;stroke:none"
             id="path378" /></g><g
           id="g380"
           transform="translate(1353.4541,601.2334)"><path
             d="m 0,0 c -5.95,0 -10.844,4.749 -10.991,10.73 -0.15,6.073 4.653,11.117 10.725,11.267 0.14,0.003 14.165,0.367 29.341,2.18 24.513,2.928 31,7.008 32.236,7.978 5.093,12.28 14.228,96.294 20.225,171.708 0.482,6.057 5.783,10.57 11.838,10.093 6.056,-0.481 10.574,-5.781 10.093,-11.837 -0.032,-0.41 -3.311,-41.487 -7.648,-83.686 C 86.79,30.603 82.148,23.639 79.654,19.898 75.735,14.02 66.919,6.732 33.243,2.522 16.392,0.416 0.923,0.02 0.272,0.004 0.182,0.001 0.09,0 0,0"
             style="fill:#490000;fill-opacity:1;fill-rule:nonzero;stroke:none"
             id="path382" /></g><g
           id="g384"
           transform="translate(1288.5859,641.6914)"><path
             d="m 0,0 h 0.011 z m 64.859,-76.744 c -2.514,0 -5.063,0.628 -7.41,1.949 -11.528,6.492 -69.704,39.818 -82.829,58.449 -3.747,5.319 -10.017,14.219 -13.1,124.595 -1.467,52.512 -1.484,103.63 -1.484,104.14 0,8.356 6.774,15.13 15.13,15.13 8.355,0 15.13,-6.774 15.13,-15.13 0,-0.481 0.016,-48.664 1.362,-99.286 C -5.945,23.027 -1.451,4.085 -0.18,0.469 c 7.284,-9.107 42.827,-32.202 72.476,-48.897 7.281,-4.099 9.86,-13.326 5.761,-20.606 -2.779,-4.935 -7.912,-7.709 -13.198,-7.71"
             style="fill:#490000;fill-opacity:1;fill-rule:nonzero;stroke:none"
             id="path386" /></g><g
           id="g388"
           transform="translate(1362.7051,860.9951)"><path
             d="m 0,0 c -4.845,0 -8.843,3.853 -8.991,8.728 -0.151,4.968 3.756,9.118 8.723,9.268 8.695,0.274 18.466,1.94 21.803,3.637 1.997,9.167 3.219,49.305 3.219,83.363 0,4.971 4.029,9 9,9 4.971,0 9,-4.029 9,-9 0,-0.205 -0.007,-20.8 -0.566,-41.955 C 40.994,17.886 38.637,14.35 36.742,11.508 30.587,2.273 11.254,0.337 0.277,0.004 0.185,0.002 0.093,0 0,0"
             style="fill:#490000;fill-opacity:1;fill-rule:nonzero;stroke:none"
             id="path390" /></g><g
           id="g392"
           transform="translate(1328.3682,637.752)"><path
             d="m 0,0 v 0.001 z m 34.225,-67.221 c -3.432,0 -6.892,1.067 -9.854,3.277 -7.04,5.252 -42.669,32.215 -52.738,47.32 -3.487,5.231 -8.265,12.396 -10.641,102.274 -1.117,42.289 -1.131,83.458 -1.131,83.87 0,9.113 7.388,16.5 16.5,16.5 9.113,0 16.5,-7.387 16.5,-16.5 0.001,-72.252 2.574,-154.054 6.892,-168.757 5.771,-7.511 27.022,-25.33 44.351,-38.257 7.303,-5.449 8.807,-15.787 3.358,-23.092 -3.239,-4.342 -8.207,-6.635 -13.237,-6.635"
             style="fill:#490000;fill-opacity:1;fill-rule:nonzero;stroke:none"
             id="path394" /></g><g
           id="g396"
           transform="translate(1717.2451,650)"><path
             d="m 0,0 c -11.284,0 -25.379,3.762 -19.576,-7.656 l 200.506,-394.55 c 5.802,-11.418 30.489,-21.416 55.138,-22.332 24.65,-0.916 38.901,7.669 31.83,19.173 L 23.583,-7.813 C 16.513,3.691 11.284,0 0,0"
             style="fill:#692e0b;fill-opacity:1;fill-rule:nonzero;stroke:none"
             id="path398" /></g><g
           id="g400"
           transform="translate(1795.6582,489.3721)"><path
             d="m 0,0 c -7.185,0.14 -10.886,-3.896 -8.288,-9.144 2.643,-5.348 11.049,-9.946 18.783,-10.271 0.143,-0.006 14.856,-0.645 31.572,-2.637 25.767,-3.061 34.803,-6.662 36.692,-7.529 13.594,-11.436 68.469,-86.047 114.305,-152.645 3.727,-5.414 14.914,-10.069 24.987,-10.397 10.074,-0.328 14.994,3.81 10.99,9.242 -0.27,0.367 -27.376,37.12 -56.83,74.919 -60.966,79.009 -71.326,85.331 -77.452,89.104 C 82.321,-11.616 63.258,-6.393 34.837,-2.923 16.655,-0.694 1.068,-0.039 0.414,-0.012 0.274,-0.006 0.137,-0.002 0,0"
             style="fill:#692e0b;fill-opacity:1;fill-rule:nonzero;stroke:none"
             id="path402" /></g><g
           id="g404"
           transform="translate(1741.6582,408.8164)"><path
             d="M 0,0 -0.015,0.001 Z M 37.639,9.656 C 40.263,4.564 35.845,0.485 27.765,0.545 16.974,0.624 4.663,-0.318 0.01,-1.49 c 0.854,-8.904 12.469,-42.88 23.702,-71.692 1.973,-5.058 -3.977,-8.922 -13.288,-8.631 -9.311,0.293 -18.253,4.618 -19.973,9.66 -0.06,0.178 -6.164,18.101 -11.604,36.486 -11.883,39.596 -9.533,42.756 -7.672,45.296 3.394,4.73 12.242,7.393 28.679,8.634 9.545,0.727 18.5,0.688 18.876,0.686 0.147,-0.001 0.292,-0.003 0.44,-0.007 7.7,-0.191 15.898,-4.291 18.469,-9.286"
             style="fill:#692e0b;fill-opacity:1;fill-rule:nonzero;stroke:none"
             id="path406" /></g><g
           id="g408"
           transform="translate(1878.8311,267.8711)"><path
             d="M 0,0 Z M 46.544,8.596 C 49.329,4.195 44.674,0.758 36.14,0.919 21.481,1.195 5.026,0.29 -0.029,-0.994 0.498,-8.932 15.656,-43.48 30.915,-74.087 c 2.179,-4.37 -3.843,-7.618 -13.447,-7.257 -9.606,0.363 -19.007,4.188 -21,8.545 -0.082,0.181 -8.327,18.234 -15.787,36.74 -16.088,39.515 -13.452,42.478 -11.358,44.861 6.65,7.752 38.615,8.357 57.071,8.029 0.156,-0.003 0.311,-0.007 0.467,-0.012 8.214,-0.274 16.952,-3.905 19.683,-8.223"
             style="fill:#692e0b;fill-opacity:1;fill-rule:nonzero;stroke:none"
             id="path410" /></g><g
           id="g412"
           transform="translate(1748.249,516.9355)"><path
             d="M 0,0 H -0.013 Z M 22.069,52.76 C 31.648,46.226 35.715,37.079 30.853,32.351 18.655,21.177 3.309,5.832 0.037,-0.665 1.36,-13.498 32.905,-85.272 63.451,-148.716 c 3.853,-8.002 -4.375,-14.15 -18.375,-13.734 -14.001,0.417 -27.968,7.206 -31.195,15.165 -0.146,0.359 -14.709,36.315 -28.205,73.215 -29.335,78.468 -26.546,84.646 -24.6,89.163 5.195,13.069 31.039,36.316 35.711,40.876 1.919,1.921 4.887,2.829 8.353,2.796 5.081,-0.049 11.313,-2.126 16.929,-6.005"
             style="fill:#692e0b;fill-opacity:1;fill-rule:nonzero;stroke:none"
             id="path414" /></g><g
           id="g416"
           transform="translate(1356.4189,481.75)"><path
             d="m 0,0 c -15.188,0 -28.217,6.744 -25.302,-8.569 l 86.074,-452.182 c 2.915,-15.313 26.179,-28.364 51.963,-29.15 25.785,-0.787 43.384,11.058 39.312,26.458 L 31.794,-8.725 C 27.722,6.675 15.188,0 0,0"
             style="fill:#692e0b;fill-opacity:1;fill-rule:nonzero;stroke:none"
             id="path418" /></g><g
           id="g420"
           transform="translate(1407.3789,353.9961)"><path
             d="m 0,0 c -13.836,0.172 -25.69,-2.12 -29.788,-3.016 -10.146,-2.207 -14.711,-11.229 -10.095,-20.16 4.673,-8.934 17.063,-14.415 27.573,-12.236 10.891,2.232 25.367,2.635 31.091,0.987 11.021,-18.26 46.172,-111.459 75.963,-194.742 3.371,-9.259 17.305,-16.645 31.145,-16.517 13.805,0.139 21.911,7.784 18.125,17.073 -0.194,0.474 -19.405,48.035 -40.146,96.786 C 61.849,-29.534 53.733,-21.826 48.416,-16.729 35.048,-3.744 16.074,-0.199 0,0"
             style="fill:#692e0b;fill-opacity:1;fill-rule:nonzero;stroke:none"
             id="path422" /></g><g
           id="g424"
           transform="translate(1382.3867,357.6836)"><path
             d="m 0,0 c -7.118,0.087 -11.972,-4.636 -10.888,-10.673 1.097,-6.129 8.049,-11.302 15.533,-11.556 0.171,-0.005 17.467,-0.61 36.576,-2.705 31.025,-3.393 40.292,-7.655 42.124,-8.664 10.224,-12.587 49.49,-98.335 83.291,-175.361 2.768,-6.189 12.218,-10.983 21.092,-10.72 8.864,0.271 13.646,5.519 10.695,11.722 -0.199,0.42 -20.018,42.479 -41.309,85.684 C 114.425,-32.47 106.31,-25.29 101.986,-21.437 95.245,-15.384 82.203,-7.826 40.456,-3.042 19.714,-0.66 1.109,-0.032 0.327,-0.007 0.219,-0.003 0.108,-0.001 0,0"
             style="fill:#692e0b;fill-opacity:1;fill-rule:nonzero;stroke:none"
             id="path426" /></g><g
           id="g428"
           transform="translate(1310.2998,318.0049)"><path
             d="M 0,0 H -0.013 Z M 80.887,68.41 C 87.448,60.99 86.712,51.683 79.091,47.633 47.207,31.204 7.623,8.547 -0.175,-0.467 c -1.108,-3.607 -4.342,-22.529 3.793,-112.846 4.31,-50.74 10.193,-99.073 10.251,-99.555 1.025,-8.382 -8.764,-14.892 -21.863,-14.539 -13.1,0.352 -24.266,7.411 -24.94,15.767 -0.041,0.51 -4.138,51.628 -6.318,104.095 -5.278,110.336 1.705,119.131 5.804,124.391 13.923,18.46 77.308,51.2 89.256,57.622 2.406,1.309 5.189,1.916 8.071,1.888 6.059,-0.057 12.608,-2.92 17.008,-7.946"
             style="fill:#692e0b;fill-opacity:1;fill-rule:nonzero;stroke:none"
             id="path430" /></g><g
           id="g432"
           transform="translate(1455.4707,94.7393)"><path
             d="m 0,0 c -7.54,0.2 -12.891,-3.528 -12.019,-8.45 0.888,-5.016 8.001,-9.379 15.892,-9.745 13.815,-0.653 29.711,-2.763 35.452,-4.629 5.654,-9.383 18.567,-50.148 27.866,-84.694 1.357,-5.041 9.365,-9.341 17.886,-9.605 8.521,-0.264 14.227,3.617 12.746,8.668 -0.061,0.209 -6.209,21.137 -13.431,42.659 C 69.084,-19.864 64.322,-16.17 60.514,-13.203 48.24,-3.57 17.6,-0.806 0.433,-0.016 0.287,-0.009 0.144,-0.004 0,0"
             style="fill:#692e0b;fill-opacity:1;fill-rule:nonzero;stroke:none"
             id="path434" /></g><g
           id="g436"
           transform="translate(1359.3564,321.2305)"><path
             d="M 0,0 V 0.001 Z M 43.617,60.51 C 51.886,53.04 52.835,42.581 45.536,37.165 27.779,24.347 5.547,6.707 -0.162,-0.764 -2.834,-15.5 8.732,-97.862 21.828,-170.653 c 1.651,-9.182 -8.126,-16.347 -21.837,-16.006 -13.712,0.342 -25.829,8.036 -27.064,17.185 -0.056,0.413 -5.617,41.749 -9.823,84.181 -9.375,90.212 -4.5,97.326 -1,102.525 9.819,15.034 46.877,41.73 53.902,46.952 2.925,2.2 6.673,3.238 10.633,3.198 5.803,-0.057 12.114,-2.436 16.978,-6.872"
             style="fill:#692e0b;fill-opacity:1;fill-rule:nonzero;stroke:none"
             id="path438" /></g></g></g><g
       id="g440"><g
         id="g442"><g
           id="g448"><g
             id="g450"><path
               d="m 2229.433,1594.678 c -75.029,-4.221 -63.566,-75.191 -87.913,-69.278 v 0 c -23.053,5.598 -72.863,-0.89 -72.863,-0.89 v 0 l -60.292,-17.76 -16.077,-5.919 -20.096,-9.867 h -44.215 l -20.096,1.974 c 0,0 -52.253,-17.759 -64.312,-19.733 v 0 c -12.058,-1.972 -36.174,-5.92 -48.232,-5.92 v 0 c -12.059,0 -55.363,0.322 -72.349,3.948 v 0 c -6.039,1.288 -13.522,-0.691 -21.013,-2.671 v 0 c -6.732,-1.778 -13.472,-3.556 -19.18,-2.963 v 0 c -14.26,1.479 -42.723,16.424 -56.273,13.526 v 0 c -5.302,-1.135 -14.725,-4.893 -20.097,-5.92 v 0 c -7.788,-1.488 -20.097,-1.972 -32.155,-3.946 v 0 c -12.057,-1.974 -20.6,-6.63 -28.136,-7.893 v 0 c -9.627,-1.615 -87.905,-8.963 -97.459,-10.71 v 0 c -7.095,-1.297 -17.023,-8.568 -24.116,-9.866 v 0 c -6.588,-1.204 -14.327,-0.283 -22.054,0.637 v 0 c -6.844,0.815 -13.68,1.629 -19.7,0.97 v 0 c -27.23,-2.985 -59.589,-14.323 -64.981,-16.261 v 0 h -0.795 c 0,0 0.219,-0.027 0.597,-0.071 v 0 c -0.378,-0.137 -0.597,-0.217 -0.597,-0.217 v 0 l 2.464,-10e-4 c 8.603,-0.993 38.153,-4.248 63.312,-5.157 v 0 c 6.019,-0.216 12.853,0.052 19.695,0.32 v 0 c 7.73,0.302 15.47,0.606 22.059,0.21 v 0 c 7.093,-0.427 17.021,-2.82 24.116,-3.247 v 0 c 9.554,-0.574 87.832,-2.992 97.459,-3.523 v 0 c 7.536,-0.416 16.079,-1.948 28.136,-2.597 v 0 c 12.058,-0.649 24.367,-0.809 32.155,-1.299 v 0 c 5.372,-0.337 14.795,-1.574 20.097,-1.947 v 0 c 13.55,-0.954 42.013,3.964 56.273,4.45 v 0 c 5.709,0.194 12.45,-0.391 19.182,-0.976 v 0 c 7.491,-0.651 14.973,-1.301 21.011,-0.877 v 0 c 16.986,1.192 60.29,1.298 72.349,1.298 v 0 c 12.058,0 36.174,-1.298 48.232,-1.948 v 0 c 12.059,-0.649 64.312,-6.492 64.312,-6.492 v 0 l 20.096,0.649 h 44.215 l 20.096,-3.246 16.077,-1.948 60.292,-5.844 c 0,0 49.81,-2.134 72.863,-0.292 v 0 c 24.347,1.946 12.884,-21.406 87.913,-22.794 v 0 c 15.4,-0.285 29.731,-1.365 42.567,-2.704 v 0 235.013 c -12.836,-4.069 -27.167,-7.352 -42.567,-8.218"
               style="fill:url(#linearGradient464);stroke:none"
               id="path466" /></g></g></g></g></g></svg>
