<svg width="241" height="191" viewBox="0 0 241 191" fill="none" xmlns="http://www.w3.org/2000/svg">
<g clip-path="url(#clip0)">
<path d="M75.7876 100.164L78.222 107.651L81.5256 104.865L79.7868 98.9448L75.7876 100.164Z" fill="#FFB9B9"/>
<path d="M44.4897 68.2979L45.3591 79.9646L66.3981 80.4869L75.6135 101.557L80.6559 99.4671C80.6559 99.4671 74.918 79.6163 72.3098 73.3476C69.7017 67.0789 59.7908 71.6063 59.7908 71.6063L58.9214 69.865L44.4897 68.2979Z" fill="#2F2E41"/>
<path d="M77.1782 106.258C77.1782 106.258 77.526 111.83 78.0476 112.179C78.5692 112.527 82.5684 111.83 82.5684 111.83C82.5684 111.83 83.77 112.098 88.654 110.786C94.1448 109.31 87.9585 107.129 87.9585 107.129C87.9585 107.129 83.9594 104.517 82.2206 103.298C80.4819 102.079 79.2647 104.691 79.2647 104.691C79.6125 105.736 77.1782 106.258 77.1782 106.258Z" fill="#2F2E41"/>
<path d="M216.292 128.82L216.845 148.221L222.75 170.949C222.75 170.949 221.458 174.829 222.381 175.753C223.303 176.677 227.547 178.34 227.547 178.34L224.041 129.929L216.292 128.82Z" fill="#2F2E41"/>
<path d="M229.111 175.658C229.111 175.658 231.216 180.297 228.268 180.719C225.321 181.14 211.705 182.265 212.547 179.875C213.389 177.485 223.636 175.236 223.636 175.236L229.111 175.658Z" fill="#2F2E41"/>
<path d="M236.957 111.636C236.957 111.636 234.743 123.646 233.267 125.679C231.791 127.711 234.005 142.493 234.005 142.493C234.005 142.493 237.326 163.742 235.85 167.068C234.374 170.394 234.743 169.286 234.927 171.133C235.112 172.981 235.481 174.459 234.927 176.122C234.374 177.785 234.374 177.601 234.189 178.524C234.005 179.448 234.189 184.437 234.189 184.437C234.189 184.437 226.256 187.209 224.964 183.144C224.964 183.144 226.809 180.557 226.256 178.524C225.679 176.479 225.368 174.367 225.333 172.242V168.362L216.846 136.581L214.816 125.125C214.816 125.125 215.37 113.484 217.399 112.375C219.429 111.266 236.957 111.636 236.957 111.636Z" fill="#2F2E41"/>
<path d="M233.636 183.513C233.636 183.513 236.403 189.611 232.529 190.165C228.654 190.719 210.757 192.198 211.864 189.056C212.971 185.915 226.44 182.959 226.44 182.959L233.636 183.513Z" fill="#2F2E41"/>
<path d="M230.128 58.4287C234.204 58.4287 237.508 55.1197 237.508 51.0377C237.508 46.9558 234.204 43.6468 230.128 43.6468C226.052 43.6468 222.748 46.9558 222.748 51.0377C222.748 55.1197 226.052 58.4287 230.128 58.4287Z" fill="#FFB9B9"/>
<path d="M235.314 54.3038L235.177 63.7426L226.128 63.7733C226.128 63.7733 228.425 56.3844 227.396 54.8393C226.368 53.2942 235.314 54.3038 235.314 54.3038Z" fill="#FFB9B9"/>
<path d="M221.827 68.9532C221.827 68.9532 228.285 60.6383 233.266 64.149C238.248 67.6597 240.093 75.9746 240.093 75.9746L238.986 99.2562C238.986 99.2562 236.219 102.582 237.879 104.799C239.54 107.017 240.462 106.462 239.171 108.125C237.879 109.788 236.403 111.082 236.957 111.636C237.51 112.19 236.403 112.56 236.403 112.56L216.846 113.114C216.846 113.114 217.399 112.375 215.739 110.158C214.078 107.941 216.108 104.984 215.739 103.876C215.369 102.767 215 104.06 214.816 101.473C214.631 98.8866 221.827 68.9532 221.827 68.9532Z" fill="#3F3D56"/>
<path d="M223.672 116.625C223.672 116.625 223.303 121.244 220.536 121.983C219.498 122.261 218.72 121.732 218.152 120.964C217.622 120.227 217.325 119.348 217.299 118.44C217.273 117.533 217.52 116.638 218.007 115.873L218.691 114.777L223.672 116.625Z" fill="#FFB9B9"/>
<path d="M240.739 59.622C240.739 59.622 240.924 63.3175 240.739 63.8718C240.555 64.4262 240.37 64.9805 240.739 65.5348C241.108 66.0891 240.924 67.9369 240.555 68.1216C240.186 68.3064 241.293 69.9694 240.924 71.078C240.555 72.1867 240.186 72.5562 240.001 72.9258C239.817 73.2953 239.52 73.9574 239.52 73.9574C239.52 73.9574 234.097 62.3936 229.669 65.1652C225.241 67.9368 221.735 68.8607 221.735 68.8607C221.735 68.8607 224.134 55.9265 240.739 59.622Z" fill="#3F3D56"/>
<path d="M232.713 68.2141C232.713 68.2141 238.617 68.7684 238.248 76.5289C237.879 84.2894 238.802 96.4845 238.802 96.4845C238.802 96.4845 228.654 112.006 226.993 113.114C225.333 114.223 225.148 114.038 225.333 114.962C225.517 115.886 225.702 116.625 224.964 117.364C224.528 117.803 224.031 118.177 223.488 118.473C223.488 118.473 217.584 116.44 218.137 114.592C218.691 112.745 221.274 109.788 221.274 109.788C221.274 109.788 225.702 102.582 225.886 101.473C226.071 100.365 226.071 100.55 226.624 99.9952C227.178 99.4409 228.654 97.2236 228.654 96.115V92.6043L227.107 73.843C227.037 73.0788 227.129 72.3085 227.377 71.5825C227.625 70.8565 228.024 70.1914 228.547 69.6308C229.426 68.7108 230.753 67.9785 232.713 68.2141Z" fill="#3F3D56"/>
<path d="M225.369 45.338C224.888 45.4714 224.381 45.4828 223.895 45.3713C223.408 45.2597 222.957 45.0287 222.582 44.699C221.861 44.0127 221.619 42.8236 222.132 41.97C222.575 41.2329 223.437 40.8724 224.257 40.6162C226.066 40.0515 227.95 39.7637 229.845 39.7626C230.748 39.7623 231.691 39.8394 232.465 40.3076C232.847 40.5392 233.171 40.8573 233.549 41.0959C234.245 41.5348 235.08 41.6806 235.843 41.9854C236.624 42.3032 237.327 42.7852 237.906 43.3987C238.484 44.0123 238.924 44.7432 239.196 45.5419C239.372 46.0836 239.481 46.6445 239.522 47.2123C239.647 48.768 239.373 50.3297 238.725 51.7492C237.695 53.9973 235.736 55.8875 235.459 58.3451C234.404 57.4584 234.095 55.971 233.278 54.8607C232.67 54.0398 231.802 53.4496 230.815 53.1867C230.54 53.1502 230.281 53.0342 230.07 52.8529C229.928 52.6563 229.847 52.4222 229.836 52.1798L229.33 48.5285C229.227 47.7854 229.088 46.9733 228.518 46.4858C228.161 46.2196 227.747 46.0397 227.309 45.9603C226.273 45.7023 225.217 45.5299 224.153 45.445" fill="#2F2E41"/>
<path opacity="0.1" d="M237.904 99.124L227.547 112.585C227.547 112.585 237.084 104.601 237.904 99.124Z" fill="black"/>
<path opacity="0.1" d="M227.963 84.2206L228.061 96.9332L222.045 105.97L226.967 95.8379L227.963 84.2206Z" fill="black"/>
<path d="M164.881 78.188H102.147V76.8931H73.701V78.188H10.7083C9.58289 78.188 8.50355 78.6358 7.70774 79.4327C6.91193 80.2297 6.46485 81.3106 6.46484 82.4377V168.466C6.46485 169.593 6.91193 170.674 7.70774 171.471C8.50355 172.268 9.58289 172.715 10.7083 172.715H164.881C165.438 172.715 165.99 172.605 166.505 172.392C167.02 172.178 167.488 171.865 167.882 171.471C168.276 171.076 168.588 170.608 168.802 170.092C169.015 169.576 169.125 169.024 169.125 168.466V82.4377C169.125 81.8797 169.015 81.327 168.802 80.8114C168.588 80.2958 168.276 79.8274 167.882 79.4327C167.488 79.0381 167.02 78.7251 166.505 78.5115C165.99 78.2979 165.438 78.188 164.881 78.188Z" fill="#3F3D56"/>
<path opacity="0.1" d="M163.436 85.6984H12.1543V171.161H163.436V85.6984Z" fill="black"/>
<path d="M87.6654 83.3676C88.5223 83.3676 89.217 82.6719 89.217 81.8137C89.217 80.9556 88.5223 80.2599 87.6654 80.2599C86.8084 80.2599 86.1138 80.9556 86.1138 81.8137C86.1138 82.6719 86.8084 83.3676 87.6654 83.3676Z" fill="#F18009"/>
<path d="M162.734 85.6558H12.4082V171.087H162.734V85.6558Z" fill="#E6E6E6"/>
<path d="M158.436 91.4933H16.707V165.703H158.436V91.4933Z" fill="white"/>
<path d="M66.0026 99.1932H29.585V158.003H66.0026V99.1932Z" fill="#E6E6E6"/>
<path d="M102.637 99.1932H72.2891V115.381H102.637V99.1932Z" fill="#F18009"/>
<path d="M102.637 119.889H72.2891V137.307H102.637V119.889Z" fill="#E6E6E6"/>
<path d="M102.637 141.815H72.2891V158.003H102.637V141.815Z" fill="#E6E6E6"/>
<path d="M145.558 99.1932H109.14V124.822H145.558V99.1932Z" fill="#E6E6E6"/>
<path d="M145.558 132.374H109.14V158.003H145.558V132.374Z" fill="#F18009"/>
<path d="M173.373 169.608H158.608V168.542C158.608 168.515 158.603 168.487 158.592 168.461C158.582 168.436 158.566 168.413 158.547 168.393C158.527 168.373 158.504 168.358 158.478 168.347C158.453 168.337 158.425 168.331 158.398 168.331H153.336C153.308 168.331 153.28 168.337 153.255 168.347C153.229 168.358 153.206 168.373 153.186 168.393C153.167 168.413 153.151 168.436 153.141 168.461C153.13 168.487 153.125 168.515 153.125 168.542V169.608H149.961V168.542C149.961 168.515 149.955 168.487 149.945 168.461C149.934 168.436 149.919 168.413 149.899 168.393C149.88 168.373 149.856 168.358 149.831 168.347C149.805 168.337 149.778 168.331 149.75 168.331H144.688C144.66 168.331 144.633 168.337 144.607 168.347C144.582 168.358 144.558 168.373 144.539 168.393C144.519 168.413 144.504 168.436 144.493 168.461C144.483 168.487 144.477 168.515 144.477 168.542V169.608H141.313V168.542C141.313 168.515 141.308 168.487 141.297 168.461C141.287 168.436 141.271 168.413 141.252 168.393C141.232 168.373 141.209 168.358 141.183 168.347C141.158 168.337 141.13 168.331 141.102 168.331H136.04C136.013 168.331 135.985 168.337 135.96 168.347C135.934 168.358 135.911 168.373 135.891 168.393C135.872 168.413 135.856 168.436 135.846 168.461C135.835 168.487 135.83 168.515 135.83 168.542V169.608H132.666V168.542C132.666 168.515 132.66 168.487 132.65 168.461C132.639 168.436 132.624 168.413 132.604 168.393C132.584 168.373 132.561 168.358 132.536 168.347C132.51 168.337 132.483 168.331 132.455 168.331H127.393C127.365 168.331 127.338 168.337 127.312 168.347C127.287 168.358 127.263 168.373 127.244 168.393C127.224 168.413 127.209 168.436 127.198 168.461C127.187 168.487 127.182 168.515 127.182 168.542V169.608H124.018V168.542C124.018 168.515 124.013 168.487 124.002 168.461C123.992 168.436 123.976 168.413 123.957 168.393C123.937 168.373 123.914 168.358 123.888 168.347C123.863 168.337 123.835 168.331 123.807 168.331H118.745C118.718 168.331 118.69 168.337 118.665 168.347C118.639 168.358 118.616 168.373 118.596 168.393C118.577 168.413 118.561 168.436 118.551 168.461C118.54 168.487 118.534 168.515 118.534 168.542V169.608H115.371V168.542C115.371 168.515 115.365 168.487 115.355 168.461C115.344 168.436 115.329 168.413 115.309 168.393C115.289 168.373 115.266 168.358 115.241 168.347C115.215 168.337 115.188 168.331 115.16 168.331H110.098C110.07 168.331 110.043 168.337 110.017 168.347C109.992 168.358 109.968 168.373 109.949 168.393C109.929 168.413 109.914 168.436 109.903 168.461C109.892 168.487 109.887 168.515 109.887 168.542V169.608H106.723V168.542C106.723 168.515 106.718 168.487 106.707 168.461C106.697 168.436 106.681 168.413 106.661 168.393C106.642 168.373 106.619 168.358 106.593 168.347C106.567 168.337 106.54 168.331 106.512 168.331H66.8602C66.8043 168.331 66.7506 168.353 66.7111 168.393C66.6715 168.433 66.6493 168.486 66.6493 168.542V169.608H63.4855V168.542C63.4855 168.515 63.4801 168.487 63.4695 168.461C63.4589 168.436 63.4434 168.413 63.4238 168.393C63.4042 168.373 63.3809 168.358 63.3554 168.347C63.3298 168.337 63.3023 168.331 63.2746 168.331H58.2127C58.1567 168.331 58.1031 168.353 58.0635 168.393C58.024 168.433 58.0018 168.486 58.0018 168.542V169.608H54.838V168.542C54.838 168.515 54.8326 168.487 54.822 168.461C54.8114 168.436 54.7958 168.413 54.7762 168.393C54.7567 168.373 54.7334 168.358 54.7078 168.347C54.6822 168.337 54.6548 168.331 54.6271 168.331H49.5651C49.5092 168.331 49.4556 168.353 49.416 168.393C49.3764 168.433 49.3542 168.486 49.3542 168.542V169.608H46.1905V168.542C46.1905 168.515 46.185 168.487 46.1744 168.461C46.1638 168.436 46.1483 168.413 46.1287 168.393C46.1091 168.373 46.0859 168.358 46.0603 168.347C46.0347 168.337 46.0073 168.331 45.9796 168.331H40.9176C40.8617 168.331 40.808 168.353 40.7685 168.393C40.7289 168.433 40.7067 168.486 40.7067 168.542V169.608H37.5429V168.542C37.5429 168.515 37.5375 168.487 37.5269 168.461C37.5163 168.436 37.5008 168.413 37.4812 168.393C37.4616 168.373 37.4383 168.358 37.4128 168.347C37.3872 168.337 37.3597 168.331 37.332 168.331H32.2701C32.2141 168.331 32.1605 168.353 32.1209 168.393C32.0814 168.433 32.0592 168.486 32.0592 168.542V169.608H28.8954V168.542C28.8954 168.515 28.89 168.487 28.8794 168.461C28.8688 168.436 28.8532 168.413 28.8336 168.393C28.8141 168.373 28.7908 168.358 28.7652 168.347C28.7396 168.337 28.7122 168.331 28.6845 168.331H23.6225C23.5666 168.331 23.5129 168.353 23.4734 168.393C23.4338 168.433 23.4116 168.486 23.4116 168.542V169.608H20.2479V168.542C20.2479 168.515 20.2424 168.487 20.2318 168.461C20.2212 168.436 20.2057 168.413 20.1861 168.393C20.1665 168.373 20.1433 168.358 20.1177 168.347C20.0921 168.337 20.0647 168.331 20.037 168.331H14.975C14.9191 168.331 14.8654 168.353 14.8259 168.393C14.7863 168.433 14.7641 168.486 14.7641 168.542V169.608H5.06197C3.71945 169.608 2.43192 170.142 1.48262 171.092C0.533314 172.043 0 173.333 0 174.677V176.969C2.17556e-06 178.314 0.533319 179.603 1.48262 180.554C2.43193 181.505 3.71945 182.039 5.06197 182.039H173.373C174.715 182.039 176.003 181.505 176.952 180.554C177.901 179.603 178.434 178.314 178.434 176.969V174.677C178.434 173.333 177.901 172.043 176.952 171.092C176.003 170.142 174.715 169.608 173.373 169.608Z" fill="#3F3D56"/>
<path d="M37.8272 21.5105C36.9058 22.7434 36.348 24.2103 36.217 25.7447C36.0294 27.6124 35.4833 30.5997 33.8944 32.1699C31.4735 34.5622 30.6665 36.3564 30.6665 36.3564L31.4735 37.2535C31.4735 35.4593 32.5494 35.1603 32.5494 35.1603L32.2804 37.2535C39.5431 44.1314 55.6825 37.8516 55.6825 37.8516L55.1445 32.4689C56.4895 33.067 57.0274 37.2535 57.0274 37.2535L59.1794 36.6555C59.1794 36.6555 55.4135 30.0766 52.9926 24.0959C50.5717 18.1151 46.8059 19.6103 46.8059 19.6103C42.3675 17.2346 39.4361 19.4377 37.8272 21.5105Z" fill="#2F2E41"/>
<path d="M63.0947 24.5912L65.7029 7.5265C65.7029 7.5265 62.9209 0.735437 67.6155 0.0389182C72.3101 -0.657601 69.1804 8.22302 69.1804 8.22302L67.6155 24.5912H63.0947Z" fill="#FFB9B9"/>
<path d="M61.0078 104.865C61.8772 106.258 62.0511 113.398 62.0511 113.398L68.1367 109.567L66.3979 103.298L61.0078 104.865Z" fill="#FFB9B9"/>
<path d="M52.4881 67.4272C52.4881 67.4272 44.8376 67.4272 40.6645 69.865C39.3232 70.6486 38.934 72.0619 39.0234 73.619C39.2569 77.687 42.5745 80.8997 46.6355 81.1512L58.3999 81.88C56.6611 86.7556 60.6602 105.736 60.6602 105.736L66.9198 104.865C66.9198 104.865 66.0504 98.4223 66.2243 98.0741C66.3982 97.7258 67.963 84.1437 66.9198 77.0044C65.8765 69.865 51.6187 72.8252 51.6187 72.8252L52.4881 67.4272Z" fill="#2F2E41"/>
<path d="M61.7036 111.83C61.7036 111.83 61.1819 116.88 61.3558 117.577C61.5297 118.273 68.6586 118.621 75.092 116.706C81.5254 114.791 74.2226 112.701 74.2226 112.701C74.2226 112.701 69.8757 109.741 68.6586 108.696C67.4415 107.651 65.7027 110.089 65.7027 110.089C65.3549 111.656 61.7036 111.83 61.7036 111.83Z" fill="#2F2E41"/>
<path d="M51.0163 31.5154C51.5701 28.098 49.2527 24.8781 45.8403 24.3236C42.4279 23.769 39.2126 26.0898 38.6589 29.5072C38.1052 32.9246 40.4226 36.1445 43.835 36.6991C47.2474 37.2536 50.4626 34.9328 51.0163 31.5154Z" fill="#FFB9B9"/>
<path d="M42.2295 35.2132C44.4899 38.5216 41.7078 40.4371 41.7078 40.4371L40.4907 49.4918C40.4907 49.4918 53.5314 50.7107 55.7918 48.9694C58.0522 47.2281 53.1836 41.4818 51.4449 40.9595C49.7061 40.4371 49.3584 33.2977 49.3584 33.2977L42.2295 35.2132Z" fill="#FFB9B9"/>
<path d="M42.5696 39.5094L35.709 38.4346L34.9266 45.8351C34.9266 45.8351 35.2743 62.3774 34.9266 65.3376C34.5788 68.2978 40.8383 71.6063 40.8383 71.6063C40.8383 71.6063 49.8799 70.9098 51.6186 70.0391C53.3574 69.1685 58.9214 70.9098 58.9214 70.9098C59.5412 70.9443 60.1617 70.8555 60.7471 70.6486C61.7904 70.3003 58.052 45.4868 58.052 45.4868L54.7484 37.8251L50.7492 39.3923L49.5321 45.1386L42.5696 39.5094Z" fill="#F18009"/>
<path d="M57.3569 45.3126L64.3119 36.432L69.1804 24.417L62.3992 21.8052L59.6171 31.7305L54.7486 37.6511L54.5747 38.6957L57.3569 45.3126Z" fill="#F18009"/>
<path d="M35.4409 58.831L52.667 59.4803C52.667 59.4803 59.0867 55.9381 60.3129 60.5296C61.5392 65.121 52.3725 63.0196 52.3725 63.0196L35.9563 63.3288L35.4409 58.831Z" fill="#FFB9B9"/>
<path d="M36.9263 57.5889L44.9246 58.1112L45.9678 63.5093C45.9678 63.5093 36.2308 63.3352 32.4055 63.161C28.5803 62.9869 32.4055 46.7928 32.9272 41.9172C33.4488 37.0415 36.0569 38.4346 36.0569 38.4346L37.6218 39.6535L36.9263 57.5889Z" fill="#F18009"/>
<path opacity="0.15" d="M38.3174 55.8475L45.2724 58.6337L37.6218 57.0663L37.1001 47.141L38.3174 55.8475Z" fill="black"/>
<path d="M51.4475 28.4248L39.9634 28.6987L38.5962 22.9482H51.4475V28.4248Z" fill="#2F2E41"/>
</g>
<defs>
<clipPath id="clip0">
<rect width="241" height="191" fill="white"/>
</clipPath>
</defs>
</svg>
