<svg width="218" height="142" viewBox="0 0 218 142" fill="none" xmlns="http://www.w3.org/2000/svg">
<g clip-path="url(#clip0)">
<path d="M203.304 76.4135L202.728 84.2975C202.697 84.7198 202.514 85.1167 202.214 85.4151C201.914 85.7135 201.517 85.8934 201.094 85.9216C200.851 85.9378 200.607 85.9031 200.378 85.8198C200.149 85.7364 199.94 85.6062 199.764 85.4374C199.588 85.2686 199.449 85.0649 199.356 84.8394C199.263 84.6139 199.218 84.3714 199.224 84.1275L199.407 76.4135L206.188 54.6464L205.367 41.311L211.785 41.0815L211.327 56.4532L203.304 76.4135Z" fill="#A0616A"/>
<path d="M213.112 43.7903C210.249 43.1294 207.799 43.8997 205.898 46.5785L204.427 35.4358C204.354 34.7357 204.537 34.0331 204.94 33.4566C205.343 32.8801 205.94 32.4684 206.622 32.2968C207.346 32.1147 208.112 32.2165 208.763 32.5813C209.414 32.9462 209.901 33.5464 210.125 34.2591L213.112 43.7903Z" fill="#F18009"/>
<path d="M213.45 30.7117C206.835 27.8959 200.04 29.6799 191.995 30.9181C191.92 29.4187 191.013 27.5938 191.963 26.5477C193.118 25.2767 193.012 23.9414 192.317 22.5983C190.54 19.1639 193.086 15.5095 195.657 12.4708C196.236 11.7875 196.968 11.2506 197.794 10.9037C198.62 10.5568 199.516 10.4098 200.409 10.4745L205.171 10.815C207.544 10.9846 208.119 12.6108 208.792 14.8949C209.929 16.4428 210.538 17.9864 210.155 19.522C211.858 20.6869 212.144 22.0932 211.379 23.6785C210.73 24.6767 210.737 25.6483 211.408 26.5931C212.29 27.7975 212.966 29.1405 213.407 30.5671L213.45 30.7117Z" fill="#2F2E41"/>
<path d="M189.84 133.478H186.676L184.797 107.323L192.82 107.094L189.84 133.478Z" fill="#A0616A"/>
<path d="M190.069 141.967C189.225 142.352 188.519 139.23 187.807 139.93C185.817 141.888 181.042 141.449 181.042 141.449C180.881 141.397 180.733 141.314 180.606 141.203C180.479 141.093 180.376 140.957 180.302 140.806C180.229 140.654 180.187 140.489 180.18 140.32C180.172 140.152 180.198 139.984 180.257 139.826C180.328 139.637 180.444 139.468 180.594 139.334C180.744 139.2 180.925 139.104 181.121 139.055L183.238 138.526L186.561 132.675L189.954 132.446C190.711 133.411 191.239 134.535 191.499 135.734C191.758 136.933 191.743 138.175 191.454 139.367C191.146 140.625 190.671 141.692 190.069 141.967Z" fill="#2F2E41"/>
<path d="M210.906 133.478H207.742L205.863 107.323L214.115 105.717L210.906 133.478Z" fill="#A0616A"/>
<path d="M211.135 141.967C210.291 142.352 209.585 139.23 208.873 139.93C206.883 141.888 202.108 141.449 202.108 141.449C201.947 141.397 201.799 141.314 201.672 141.203C201.545 141.093 201.442 140.957 201.368 140.806C201.295 140.654 201.253 140.489 201.245 140.32C201.238 140.152 201.264 139.984 201.323 139.826C201.394 139.637 201.51 139.468 201.66 139.334C201.81 139.2 201.991 139.104 202.187 139.055L204.303 138.526L207.627 132.675L211.25 132.216L211.341 132.366C212.041 133.496 212.493 134.762 212.665 136.08C212.838 137.398 212.728 138.738 212.342 140.01C212.041 140.976 211.631 141.74 211.135 141.967Z" fill="#2F2E41"/>
<path d="M218 108.505C212.887 110.769 209.824 108.318 204.619 109.059C203.132 109.271 201.382 87.3954 199.888 87.4867C197.987 87.603 196.341 109.649 194.428 109.573C189.619 109.367 184.85 108.612 180.212 107.323C185.169 88.0814 191.022 70.6825 190.986 56.3903L205.856 55.2431L207.903 58.4913C211.185 66.1978 214.538 74.7563 216.208 83.7131L218 108.505Z" fill="#2F2E41"/>
<path d="M198.321 26.7941C202.119 26.7941 205.198 23.7125 205.198 19.9112C205.198 16.1099 202.119 13.0284 198.321 13.0284C194.523 13.0284 191.444 16.1099 191.444 19.9112C191.444 23.7125 194.523 26.7941 198.321 26.7941Z" fill="#A0616A"/>
<path d="M205.886 32.071L197.404 32.5297L196.029 24.9585L202.906 23.8116L205.886 32.071Z" fill="#A0616A"/>
<path d="M206.543 56.3903L195.677 56.6522L190.986 57.308C188.683 49.6949 186.744 42.0992 191.444 35.7417L196.946 30.2355L205.198 30.006L205.307 30.0685C206.618 30.82 207.633 31.9959 208.187 33.4025C208.74 34.8091 208.798 36.3624 208.352 37.8064C206.304 44.467 206.563 50.7566 206.543 56.3903Z" fill="#F18009"/>
<path d="M206.128 19.8765C206.13 17.8218 205.378 15.838 204.013 14.3029V11.8581H196.556C195.988 11.8581 195.425 11.9702 194.899 12.1879C194.374 12.4057 193.897 12.7249 193.495 13.1274C193.093 13.5298 192.774 14.0075 192.556 14.5333C192.339 15.0591 192.227 15.6226 192.227 16.1917V16.1917H197.197C195.857 18.6612 195.279 21.2503 196.569 23.7446C197.348 25.2494 197.383 28.2388 196.316 29.6742C196.877 29.7063 197.439 29.7063 198 29.6742C200.303 29.6742 206.586 29.9742 208.103 28.4704C209.639 26.9477 206.128 22.2113 206.128 19.8765Z" fill="#2F2E41"/>
<path d="M194.565 77.1354H150.513C150.235 77.1363 149.969 77.2472 149.772 77.4441C149.575 77.641 149.464 77.9079 149.463 78.1863V124.465C149.464 124.743 149.575 125.01 149.772 125.207C149.969 125.404 150.235 125.515 150.513 125.516H194.565C194.843 125.515 195.11 125.404 195.306 125.207C195.503 125.01 195.614 124.743 195.615 124.465V78.1863C195.614 77.9079 195.503 77.641 195.306 77.4441C195.11 77.2472 194.843 77.1363 194.565 77.1354Z" fill="#E6E6E6"/>
<path d="M193.514 78.4491H151.563C151.354 78.4498 151.154 78.5331 151.007 78.6808C150.859 78.8284 150.776 79.0284 150.775 79.2372V123.414C150.776 123.623 150.859 123.823 151.007 123.971C151.154 124.118 151.354 124.202 151.563 124.202H193.514C193.723 124.202 193.923 124.118 194.071 123.971C194.218 123.823 194.301 123.623 194.302 123.414V79.2372C194.301 79.0284 194.218 78.8283 194.071 78.6806C193.923 78.5329 193.723 78.4497 193.514 78.4491Z" fill="white"/>
<path d="M190.757 77.7271L190.18 85.6111C190.149 86.0334 189.967 86.4303 189.667 86.7287C189.367 87.0272 188.969 87.207 188.547 87.2352C188.304 87.2514 188.06 87.2168 187.831 87.1334C187.602 87.05 187.393 86.9198 187.216 86.751C187.04 86.5822 186.902 86.3786 186.809 86.153C186.716 85.9275 186.67 85.6851 186.676 85.4412L186.86 77.7271L192.59 55.9314L192.82 42.6246L199.238 42.3952L198.78 57.7669L190.757 77.7271Z" fill="#A0616A"/>
<path d="M199.926 43.5423C197.205 42.4348 194.663 42.8057 192.361 45.1483L192.677 33.9131C192.716 33.2105 193.008 32.5457 193.497 32.0407C193.987 31.5356 194.642 31.224 195.343 31.1631C196.086 31.0984 196.826 31.3206 197.411 31.7843C197.996 32.2481 198.382 32.9181 198.489 33.6572L199.926 43.5423Z" fill="#F18009"/>
<path d="M190.402 89.6237C190.522 89.6237 190.637 89.6714 190.722 89.7562C190.806 89.8411 190.854 89.9563 190.854 90.0763V90.9815C190.854 91.1016 190.806 91.2167 190.722 91.3016C190.637 91.3865 190.522 91.4342 190.402 91.4342H154.676C154.617 91.4342 154.558 91.4224 154.503 91.3997C154.448 91.3769 154.399 91.3436 154.357 91.3016C154.315 91.2596 154.281 91.2097 154.259 91.1547C154.236 91.0998 154.224 91.041 154.224 90.9815V90.0763C154.224 90.0168 154.236 89.958 154.259 89.9031C154.281 89.8482 154.315 89.7983 154.357 89.7562C154.399 89.7142 154.448 89.6809 154.503 89.6581C154.558 89.6354 154.617 89.6237 154.676 89.6237H190.402Z" fill="#E6E6E6"/>
<path d="M190.402 93.9236C190.522 93.9236 190.637 93.9712 190.722 94.0561C190.806 94.141 190.854 94.2561 190.854 94.3762V95.2814C190.854 95.4015 190.806 95.5166 190.722 95.6015C190.637 95.6863 190.522 95.734 190.402 95.734H154.676C154.617 95.734 154.558 95.7223 154.503 95.6996C154.448 95.6768 154.399 95.6435 154.357 95.6015C154.315 95.5594 154.281 95.5095 154.259 95.4546C154.236 95.3997 154.224 95.3409 154.224 95.2814V94.3762C154.224 94.3168 154.236 94.2579 154.259 94.203C154.281 94.1481 154.315 94.0982 154.357 94.0561C154.399 94.0141 154.448 93.9808 154.503 93.958C154.558 93.9353 154.617 93.9236 154.676 93.9236H190.402" fill="#E6E6E6"/>
<path d="M190.402 98.2234C190.522 98.2235 190.637 98.2711 190.722 98.356C190.806 98.4409 190.854 98.556 190.854 98.6761V99.5813C190.854 99.7013 190.806 99.8165 190.722 99.9013C190.637 99.9862 190.522 100.034 190.402 100.034H154.676C154.556 100.034 154.441 99.9862 154.357 99.9013C154.272 99.8165 154.224 99.7013 154.224 99.5813V98.6761C154.224 98.556 154.272 98.4409 154.357 98.356C154.441 98.2711 154.556 98.2234 154.676 98.2234H190.402Z" fill="#F18009"/>
<path d="M190.402 102.617C190.522 102.617 190.637 102.665 190.722 102.75C190.806 102.835 190.854 102.95 190.854 103.07V103.975C190.854 104.095 190.806 104.21 190.722 104.295C190.637 104.38 190.522 104.428 190.402 104.428H154.676C154.617 104.428 154.558 104.416 154.503 104.393C154.448 104.371 154.399 104.337 154.357 104.295C154.315 104.253 154.281 104.203 154.259 104.149C154.236 104.094 154.224 104.035 154.224 103.975V103.07C154.224 103.011 154.236 102.952 154.259 102.897C154.281 102.842 154.315 102.792 154.357 102.75C154.399 102.708 154.448 102.675 154.503 102.652C154.558 102.629 154.617 102.617 154.676 102.617H190.402" fill="#E6E6E6"/>
<path d="M190.402 106.917C190.522 106.917 190.637 106.965 190.722 107.05C190.806 107.135 190.854 107.25 190.854 107.37V108.275C190.854 108.395 190.806 108.51 190.722 108.595C190.637 108.68 190.522 108.728 190.402 108.728H154.676C154.617 108.728 154.558 108.716 154.503 108.693C154.448 108.671 154.399 108.637 154.357 108.595C154.315 108.553 154.281 108.503 154.259 108.448C154.236 108.393 154.224 108.335 154.224 108.275V107.37C154.224 107.31 154.236 107.252 154.259 107.197C154.281 107.142 154.315 107.092 154.357 107.05C154.399 107.008 154.448 106.975 154.503 106.952C154.558 106.929 154.617 106.917 154.676 106.917H190.402Z" fill="#E6E6E6"/>
<path d="M190.402 111.217C190.522 111.217 190.637 111.265 190.722 111.35C190.806 111.435 190.854 111.55 190.854 111.67V112.575C190.854 112.695 190.806 112.81 190.722 112.895C190.637 112.98 190.522 113.028 190.402 113.028H154.676C154.556 113.028 154.441 112.98 154.357 112.895C154.272 112.81 154.224 112.695 154.224 112.575V111.67C154.224 111.55 154.272 111.435 154.357 111.35C154.441 111.265 154.556 111.217 154.676 111.217H190.402Z" fill="#E6E6E6"/>
<path d="M32.7398 132.249L29.232 132.444L21.242 78.61L13.7391 132.346L9.939 131.469C7.82873 108.305 5.08115 84.3615 7.01581 73.9288H33.7142C37.6789 84.2994 35.0324 108.648 32.7398 132.249Z" fill="#2F2E41"/>
<path d="M10.9158 141.996C10.4537 141.972 10.0025 141.847 9.59454 141.628C9.18657 141.409 8.8319 141.103 8.5559 140.732C8.27989 140.36 8.08936 139.932 7.99794 139.478C7.90652 139.024 7.91646 138.555 8.02707 138.105L9.62331 131.615C10.9577 129.956 12.1522 130.028 13.2245 131.615L14.3205 131.145L15.1033 136.786L14.0236 139.943C13.792 140.572 13.3655 141.111 12.8064 141.48C12.2473 141.85 11.5848 142.03 10.9158 141.996Z" fill="#2F2E41"/>
<path d="M32.1524 141.996C32.6145 141.972 33.0657 141.847 33.4736 141.628C33.8816 141.409 34.2363 141.103 34.5123 140.732C34.7883 140.36 34.9788 139.932 35.0702 139.478C35.1616 139.024 35.1517 138.555 35.0411 138.105L33.4448 131.615C32.1105 129.956 30.916 130.028 29.8437 131.615L28.7477 131.145L27.9648 136.786L29.0445 139.943C29.2761 140.572 29.7026 141.111 30.2618 141.48C30.8209 141.85 31.4834 142.03 32.1524 141.996Z" fill="#2F2E41"/>
<path d="M22.0212 18.9247C26.3264 18.9247 29.8164 15.4316 29.8164 11.1227C29.8164 6.81373 26.3264 3.32065 22.0212 3.32065C17.7161 3.32065 14.2261 6.81373 14.2261 11.1227C14.2261 15.4316 17.7161 18.9247 22.0212 18.9247Z" fill="#FFB8B8"/>
<path d="M26.6986 25.5563H16.7598L17.3444 15.2187H26.6986V25.5563Z" fill="#FFB8B8"/>
<path d="M37.2218 75.0991H5.65137C10.2544 59.5648 9.44518 42.9235 6.04113 25.7514L14.6158 23.0207L16.9544 21.0702C19.889 24.6475 23.1339 24.6179 26.6983 20.8752L29.6215 23.0207L38.1962 25.9465C33.6735 42.4907 32.9379 58.8906 37.2218 75.0991Z" fill="#F18009"/>
<path d="M13.6958 9.10672C13.3684 8.17051 13.2418 7.17577 13.3242 6.18733C13.4067 5.19888 13.6963 4.2389 14.1741 3.36995C15.1267 1.67915 16.9611 0.0941948 20.4878 0.00479094C28.1824 -0.190261 31.5167 5.61643 31.0831 7.31917C30.6496 9.02192 29.0986 13.0732 29.0986 13.0732C29.0986 13.0732 30.0604 9.17215 28.1368 8.78205C26.2131 8.39195 18.7591 6.83155 16.595 8.587C15.9778 9.05999 15.4969 9.68823 15.2012 10.4077C14.9056 11.1273 14.8057 11.9123 14.9118 12.6831L13.6958 9.10672Z" fill="#2F2E41"/>
<path d="M45.2069 77.3982H1.15544C0.877586 77.4002 0.611683 77.5115 0.415207 77.7082C0.218732 77.9048 0.107469 78.171 0.105469 78.4491V124.728C0.106283 125.006 0.217165 125.273 0.413896 125.47C0.610627 125.667 0.877218 125.778 1.15544 125.779H45.2069C45.4851 125.778 45.7517 125.667 45.9485 125.47C46.1452 125.273 46.2561 125.006 46.2569 124.728V78.4491C46.2561 78.1706 46.1452 77.9038 45.9485 77.7069C45.7517 77.51 45.4851 77.399 45.2069 77.3982Z" fill="#E6E6E6"/>
<path d="M44.1565 78.7118H2.20496C1.9963 78.7124 1.79635 78.7956 1.6488 78.9433C1.50126 79.091 1.41809 79.2911 1.41748 79.4999V123.677C1.41809 123.886 1.50126 124.086 1.6488 124.233C1.79635 124.381 1.9963 124.464 2.20496 124.465H44.1565C44.3652 124.464 44.5651 124.381 44.7127 124.233C44.8602 124.086 44.9434 123.886 44.944 123.677V79.4999C44.9434 79.2911 44.8602 79.091 44.7127 78.9433C44.5651 78.7956 44.3652 78.7124 44.1565 78.7118Z" fill="white"/>
<path d="M36.1998 81.1704C35.8012 81.0152 35.4378 80.7815 35.1313 80.4831C34.8247 80.1847 34.5811 79.8277 34.415 79.4332C34.249 79.0388 34.1638 78.615 34.1646 78.1869C34.1653 77.7589 34.252 77.3354 34.4194 76.9415L37.0271 70.808L36.6374 51.303L35.2732 44.6713L42.2889 41.9406L43.653 51.1079L41.1196 72.1734L40.5355 78.4871C40.49 78.9796 40.3308 79.4548 40.0705 79.8753C39.8102 80.2957 39.456 80.65 39.0357 80.9101C38.6154 81.1702 38.1405 81.3291 37.6484 81.3743C37.1562 81.4195 36.6604 81.3497 36.1998 81.1704Z" fill="#FFB8B8"/>
<path d="M7.45322 81.1704C7.8518 81.0152 8.21517 80.7815 8.52176 80.4831C8.82835 80.1847 9.07191 79.8277 9.23797 79.4332C9.40404 79.0388 9.48922 78.6149 9.48846 78.1869C9.48771 77.7589 9.40104 77.3354 9.23358 76.9415L6.62588 70.808L7.01564 51.303L8.3798 44.6713L1.36415 41.9406L0 51.1079L2.53342 72.1733L3.11752 78.4871C3.16308 78.9796 3.32226 79.4548 3.58253 79.8753C3.84279 80.2957 4.19702 80.65 4.61734 80.9101C5.03765 81.1702 5.51256 81.3291 6.00467 81.3743C6.49678 81.4194 6.99265 81.3496 7.45322 81.1704Z" fill="#FFB8B8"/>
<path d="M42.8733 42.5257C40.092 43.2371 37.4547 44.4249 35.0781 46.0366L33.3242 40.7703L37.8064 25.7514C39.0157 26.1549 40.0772 26.9104 40.8548 27.9214C41.6324 28.9323 42.0909 30.1525 42.1714 31.4258C42.0677 35.1394 42.3026 38.8548 42.8733 42.5257Z" fill="#F18009"/>
<path d="M0.779297 42.5257C3.56062 43.2371 6.19794 44.4249 8.57446 46.0366L10.3284 40.7703L6.43079 25.5564C3.95706 26.3817 1.64593 28.8211 1.48122 31.4257C1.58489 35.1394 1.34994 38.8548 0.779297 42.5257Z" fill="#F18009"/>
<path d="M41.0434 89.6423C41.1634 89.6423 41.2784 89.69 41.3632 89.7749C41.448 89.8598 41.4956 89.9749 41.4956 90.0949V91.0002C41.4956 91.1202 41.448 91.2354 41.3632 91.3203C41.2784 91.4051 41.1634 91.4528 41.0434 91.4528H5.31794C5.25856 91.4528 5.19975 91.4411 5.14488 91.4184C5.09002 91.3956 5.04017 91.3623 4.99817 91.3203C4.95618 91.2782 4.92287 91.2283 4.90015 91.1734C4.87742 91.1185 4.86572 91.0596 4.86572 91.0002V90.0949C4.86572 90.0355 4.87742 89.9767 4.90015 89.9217C4.92287 89.8668 4.95618 89.8169 4.99817 89.7749C5.04017 89.7329 5.09002 89.6995 5.14488 89.6768C5.19975 89.654 5.25856 89.6423 5.31794 89.6423H41.0434Z" fill="#E6E6E6"/>
<path d="M41.0434 93.9422C41.1634 93.9422 41.2784 93.9899 41.3632 94.0748C41.448 94.1597 41.4956 94.2748 41.4956 94.3948V95.3001C41.4956 95.4201 41.448 95.5352 41.3632 95.6201C41.2784 95.705 41.1634 95.7527 41.0434 95.7527H5.31794C5.25856 95.7527 5.19975 95.741 5.14488 95.7182C5.09002 95.6955 5.04017 95.6621 4.99817 95.6201C4.95618 95.5781 4.92287 95.5282 4.90015 95.4733C4.87742 95.4184 4.86572 95.3595 4.86572 95.3001V94.3948C4.86572 94.3354 4.87742 94.2765 4.90015 94.2216C4.92287 94.1667 4.95618 94.1168 4.99817 94.0748C5.04017 94.0327 5.09002 93.9994 5.14488 93.9767C5.19975 93.9539 5.25856 93.9422 5.31794 93.9422H41.0434Z" fill="#E6E6E6"/>
<path d="M41.0434 98.2421C41.1634 98.2421 41.2784 98.2898 41.3632 98.3747C41.448 98.4595 41.4956 98.5747 41.4956 98.6947V99.5999C41.4956 99.72 41.448 99.8351 41.3632 99.92C41.2784 100.005 41.1634 100.053 41.0434 100.053H5.31794C5.19801 100.053 5.08298 100.005 4.99817 99.92C4.91336 99.8351 4.86572 99.72 4.86572 99.5999V98.6947C4.86572 98.5747 4.91336 98.4595 4.99817 98.3747C5.08298 98.2898 5.19801 98.2421 5.31794 98.2421H41.0434" fill="#F18009"/>
<path d="M41.0434 102.636C41.1634 102.636 41.2784 102.684 41.3632 102.769C41.448 102.854 41.4956 102.969 41.4956 103.089V103.994C41.4956 104.114 41.448 104.229 41.3632 104.314C41.2784 104.399 41.1634 104.447 41.0434 104.447H5.31794C5.25856 104.447 5.19975 104.435 5.14488 104.412C5.09002 104.389 5.04017 104.356 4.99817 104.314C4.95618 104.272 4.92287 104.222 4.90015 104.167C4.87742 104.112 4.86572 104.053 4.86572 103.994V103.089C4.86572 103.029 4.87742 102.97 4.90015 102.915C4.92287 102.861 4.95618 102.811 4.99817 102.769C5.04017 102.727 5.09002 102.693 5.14488 102.671C5.19975 102.648 5.25856 102.636 5.31794 102.636H41.0434Z" fill="#E6E6E6"/>
<path d="M41.0434 106.936C41.1634 106.936 41.2784 106.984 41.3632 107.069C41.448 107.153 41.4956 107.269 41.4956 107.389V108.294C41.4956 108.414 41.448 108.529 41.3632 108.614C41.2784 108.699 41.1634 108.746 41.0434 108.746H5.31794C5.25856 108.746 5.19975 108.735 5.14488 108.712C5.09002 108.689 5.04017 108.656 4.99817 108.614C4.95618 108.572 4.92287 108.522 4.90015 108.467C4.87742 108.412 4.86572 108.353 4.86572 108.294V107.389C4.86572 107.329 4.87742 107.27 4.90015 107.215C4.92287 107.16 4.95618 107.111 4.99817 107.069C5.04017 107.026 5.09002 106.993 5.14488 106.97C5.19975 106.948 5.25856 106.936 5.31794 106.936H41.0434Z" fill="#E6E6E6"/>
<path d="M41.0434 111.236C41.1634 111.236 41.2784 111.284 41.3632 111.368C41.448 111.453 41.4956 111.568 41.4956 111.688V112.594C41.4956 112.714 41.448 112.829 41.3632 112.914C41.2784 112.999 41.1634 113.046 41.0434 113.046H5.31794C5.19801 113.046 5.08298 112.999 4.99817 112.914C4.91336 112.829 4.86572 112.714 4.86572 112.594V111.688C4.86572 111.568 4.91336 111.453 4.99817 111.368C5.08298 111.284 5.19801 111.236 5.31794 111.236H41.0434Z" fill="#E6E6E6"/>
<path d="M130.196 46.2392H86.1447C85.8663 46.2396 85.5995 46.3504 85.4027 46.5474C85.2058 46.7444 85.0951 47.0115 85.0947 47.2901V124.47C85.0955 124.749 85.2064 125.016 85.4032 125.212C85.5999 125.409 85.8665 125.52 86.1447 125.521H130.196C130.474 125.52 130.741 125.409 130.938 125.212C131.134 125.016 131.245 124.749 131.246 124.47V47.2901C131.246 47.0115 131.135 46.7444 130.938 46.5474C130.741 46.3504 130.475 46.2396 130.196 46.2392Z" fill="#E6E6E6"/>
<path d="M129.915 48.1729C129.894 48.0788 129.857 47.989 129.805 47.9075C129.733 47.7988 129.635 47.7096 129.52 47.6477C129.405 47.5859 129.277 47.5533 129.146 47.5528H87.1947C86.9859 47.553 86.7857 47.6361 86.6381 47.7839C86.4904 47.9317 86.4074 48.132 86.4072 48.341V123.419C86.4078 123.628 86.491 123.828 86.6386 123.976C86.7861 124.124 86.986 124.207 87.1947 124.208H129.146C129.355 124.207 129.555 124.124 129.702 123.976C129.85 123.828 129.933 123.628 129.934 123.419V48.341C129.934 48.2844 129.928 48.228 129.915 48.1729Z" fill="white"/>
<path d="M126.033 88.3287C126.153 88.3287 126.268 88.3764 126.353 88.4613C126.438 88.5462 126.485 88.6613 126.485 88.7813V89.6866C126.485 89.8066 126.438 89.9218 126.353 90.0066C126.268 90.0915 126.153 90.1392 126.033 90.1392H90.3077C90.2483 90.1392 90.1895 90.1275 90.1346 90.1047C90.0798 90.082 90.0299 90.0487 89.9879 90.0066C89.9459 89.9646 89.9126 89.9147 89.8899 89.8598C89.8672 89.8049 89.8555 89.746 89.8555 89.6866V88.7813C89.8555 88.7219 89.8672 88.6631 89.8899 88.6081C89.9126 88.5532 89.9459 88.5033 89.9879 88.4613C90.0299 88.4193 90.0798 88.3859 90.1346 88.3632C90.1895 88.3404 90.2483 88.3287 90.3077 88.3287H126.033Z" fill="#E6E6E6"/>
<path d="M126.033 92.6286C126.153 92.6286 126.268 92.6763 126.353 92.7611C126.438 92.846 126.485 92.9612 126.485 93.0812V93.9864C126.485 94.1065 126.438 94.2216 126.353 94.3065C126.268 94.3914 126.153 94.4391 126.033 94.4391H90.3077C90.2483 94.4391 90.1895 94.4274 90.1346 94.4046C90.0798 94.3819 90.0299 94.3485 89.9879 94.3065C89.9459 94.2645 89.9126 94.2146 89.8899 94.1597C89.8672 94.1047 89.8555 94.0459 89.8555 93.9864V93.0812C89.8555 93.0218 89.8672 92.9629 89.8899 92.908C89.9126 92.8531 89.9459 92.8032 89.9879 92.7611C90.0299 92.7191 90.0798 92.6858 90.1346 92.663C90.1895 92.6403 90.2483 92.6286 90.3077 92.6286H126.033Z" fill="#E6E6E6"/>
<path d="M126.033 96.9285C126.153 96.9285 126.268 96.9762 126.353 97.0611C126.438 97.146 126.485 97.2611 126.485 97.3811V98.2864C126.485 98.4064 126.438 98.5215 126.353 98.6064C126.268 98.6913 126.153 98.739 126.033 98.739H90.3077C90.1878 98.739 90.0727 98.6913 89.9879 98.6064C89.9031 98.5215 89.8555 98.4064 89.8555 98.2864V97.3811C89.8555 97.2611 89.9031 97.146 89.9879 97.0611C90.0727 96.9762 90.1878 96.9285 90.3077 96.9285H126.033Z" fill="#F18009"/>
<path d="M126.033 101.322C126.153 101.322 126.268 101.37 126.353 101.455C126.438 101.54 126.485 101.655 126.485 101.775V102.68C126.485 102.8 126.438 102.915 126.353 103C126.268 103.085 126.153 103.133 126.033 103.133H90.3077C90.2483 103.133 90.1895 103.121 90.1346 103.098C90.0798 103.076 90.0299 103.042 89.9879 103C89.9459 102.958 89.9126 102.908 89.8899 102.854C89.8672 102.799 89.8555 102.74 89.8555 102.68V101.775C89.8555 101.716 89.8672 101.657 89.8899 101.602C89.9126 101.547 89.9459 101.497 89.9879 101.455C90.0299 101.413 90.0798 101.38 90.1346 101.357C90.1895 101.334 90.2483 101.322 90.3077 101.322H126.033Z" fill="#E6E6E6"/>
<path d="M126.033 105.622C126.153 105.622 126.268 105.67 126.353 105.755C126.438 105.84 126.485 105.955 126.485 106.075V106.98C126.485 107.1 126.438 107.215 126.353 107.3C126.268 107.385 126.153 107.433 126.033 107.433H90.3077C90.2483 107.433 90.1895 107.421 90.1346 107.398C90.0798 107.376 90.0299 107.342 89.9879 107.3C89.9459 107.258 89.9126 107.208 89.8899 107.153C89.8672 107.098 89.8555 107.04 89.8555 106.98V106.075C89.8555 106.016 89.8672 105.957 89.8899 105.902C89.9126 105.847 89.9459 105.797 89.9879 105.755C90.0299 105.713 90.0798 105.68 90.1346 105.657C90.1895 105.634 90.2483 105.622 90.3077 105.622H126.033Z" fill="#E6E6E6"/>
<path d="M126.033 109.922C126.153 109.922 126.268 109.97 126.353 110.055C126.438 110.14 126.485 110.255 126.485 110.375V111.28C126.485 111.4 126.438 111.515 126.353 111.6C126.268 111.685 126.153 111.733 126.033 111.733H90.3077C90.1878 111.733 90.0727 111.685 89.9879 111.6C89.9031 111.515 89.8555 111.4 89.8555 111.28V110.375C89.8555 110.255 89.9031 110.14 89.9879 110.055C90.0727 109.97 90.1878 109.922 90.3077 109.922H126.033Z" fill="#E6E6E6"/>
<path d="M90.5665 54.7651C90.4273 54.7653 90.2938 54.8207 90.1954 54.9192C90.097 55.0177 90.0416 55.1513 90.0415 55.2906V79.7016C90.0417 79.8409 90.097 79.9745 90.1954 80.073C90.2939 80.1715 90.4273 80.2269 90.5665 80.2271H125.775C125.914 80.2269 126.047 80.1715 126.146 80.073C126.244 79.9745 126.3 79.8409 126.3 79.7016V55.2906C126.3 55.1513 126.244 55.0177 126.146 54.9192C126.047 54.8207 125.914 54.7653 125.775 54.7651H90.5665Z" fill="#F18009"/>
<path d="M145.245 35.8071C146.202 36.214 147.153 36.6652 148.072 37.1482L148.316 36.683C147.385 36.1933 146.42 35.736 145.451 35.3235L145.245 35.8071Z" fill="#CCCCCC"/>
<path d="M156.116 42.0966L155.766 42.4883C156.54 43.1813 157.294 43.9152 158.008 44.6694L158.389 44.3082C157.666 43.5435 156.901 42.7993 156.116 42.0966Z" fill="#CCCCCC"/>
<path d="M150.78 38.7158C151.657 39.2728 152.522 39.8729 153.35 40.4996L153.667 40.0803C152.828 39.4452 151.951 38.8368 151.061 38.2721L150.78 38.7158Z" fill="#CCCCCC"/>
<path d="M139.315 33.8364C140.325 34.0833 141.336 34.3743 142.32 34.7013L142.486 34.2026C141.488 33.8712 140.463 33.5762 139.44 33.3259L139.315 33.8364Z" fill="#CCCCCC"/>
<path d="M168.121 63.9087L167.603 63.992C167.767 65.0157 167.888 66.0609 167.964 67.0987L168.488 67.0602C168.411 66.0075 168.287 64.9473 168.121 63.9087Z" fill="#CCCCCC"/>
<path d="M166.081 57.9309C166.42 58.9121 166.721 59.9207 166.973 60.9284L167.482 60.8004C167.226 59.778 166.921 58.7547 166.577 57.759L166.081 57.9309Z" fill="#CCCCCC"/>
<path d="M163.539 52.2232C164.042 53.1332 164.511 54.0751 164.933 55.0223L165.412 54.8083C164.984 53.8474 164.508 52.8921 163.998 51.9689L163.539 52.2232Z" fill="#CCCCCC"/>
<path d="M160.062 47.0295C160.711 47.8412 161.333 48.6903 161.91 49.553L162.347 49.2605C161.761 48.3855 161.13 47.5244 160.472 46.7014L160.062 47.0295Z" fill="#CCCCCC"/>
<path d="M134.596 30.1674C133.405 31.1147 131.514 31.974 130 32.4585C131.464 33.0797 133.268 34.1077 134.368 35.1596L133.664 32.8921C134.53 32.9725 135.398 33.0804 136.25 33.2172L136.333 32.6984C135.461 32.5583 134.572 32.4482 133.686 32.3665L134.596 30.1674Z" fill="#CCCCCC"/>
<path d="M51.0127 54.8085L51.4921 55.0225C51.9141 54.0756 52.3832 53.1337 52.8864 52.2233L52.4271 51.9691C51.9165 52.8926 51.4408 53.8479 51.0127 54.8085Z" fill="#CCCCCC"/>
<path d="M48.9424 60.8003L49.4515 60.9283C49.704 59.9219 50.0041 58.9134 50.3438 57.9306L49.8475 57.759C49.5031 58.756 49.1985 59.7793 48.9424 60.8003Z" fill="#CCCCCC"/>
<path d="M47.9375 67.0602L48.4612 67.0987C48.5368 66.0609 48.6585 65.0157 48.8228 63.992L48.3044 63.9086C48.1378 64.9472 48.0144 66.0075 47.9375 67.0602Z" fill="#CCCCCC"/>
<path d="M54.0781 49.2604L54.5142 49.5529C55.0916 48.6908 55.7134 47.8418 56.3628 47.0294L55.9529 46.7013C55.2943 47.525 54.6636 48.386 54.0781 49.2604Z" fill="#CCCCCC"/>
<path d="M68.1089 36.683L68.3529 37.1482C69.2731 36.6648 70.2242 36.2137 71.1798 35.8071L70.9745 35.3235C70.0058 35.7357 69.0417 36.193 68.1089 36.683Z" fill="#CCCCCC"/>
<path d="M73.9395 34.2025L74.1048 34.7013C75.0886 34.3743 76.0998 34.0833 77.11 33.8364L76.9854 33.3259C75.9615 33.5761 74.9366 33.8712 73.9395 34.2025Z" fill="#CCCCCC"/>
<path d="M58.0352 44.308L58.4163 44.6693C59.1296 43.9156 59.8841 43.1817 60.6589 42.4882L60.309 42.0964C59.5234 42.7997 58.7583 43.5437 58.0352 44.308Z" fill="#CCCCCC"/>
<path d="M62.7578 40.0802L63.0744 40.4994C63.9029 39.8726 64.7676 39.2725 65.6448 38.7158L65.3636 38.2721C64.4744 38.8365 63.5977 39.4448 62.7578 40.0802Z" fill="#CCCCCC"/>
<path d="M86.4258 32.4585C84.9113 31.9735 83.0204 31.1142 81.8294 30.1669L82.7396 32.3665C81.8531 32.4482 80.9648 32.5584 80.0923 32.6984L80.1753 33.2172C81.0278 33.0805 81.8954 32.9726 82.7615 32.8921L82.057 35.1591C83.1569 34.1072 84.9617 33.0792 86.4258 32.4585Z" fill="#CCCCCC"/>
<path d="M108.17 40.603C106.561 40.603 104.988 40.1253 103.65 39.2304C102.311 38.3355 101.269 37.0635 100.653 35.5753C100.037 34.0871 99.8756 32.4495 100.19 30.8697C100.504 29.2898 101.279 27.8386 102.417 26.6996C103.555 25.5606 105.004 24.7849 106.583 24.4706C108.161 24.1564 109.798 24.3177 111.284 24.9341C112.771 25.5505 114.042 26.5944 114.936 27.9338C115.83 29.2731 116.308 30.8477 116.308 32.4586C116.305 34.6178 115.447 36.688 113.922 38.2148C112.396 39.7416 110.328 40.6005 108.17 40.603ZM108.17 24.8396C106.665 24.8396 105.193 25.2864 103.941 26.1236C102.689 26.9608 101.714 28.1507 101.138 29.5429C100.561 30.9351 100.411 32.467 100.704 33.9449C100.998 35.4229 101.723 36.7804 102.788 37.846C103.852 38.9115 105.209 39.6371 106.685 39.9311C108.162 40.2251 109.693 40.0742 111.084 39.4975C112.475 38.9209 113.663 37.9443 114.5 36.6914C115.336 35.4385 115.783 33.9654 115.783 32.4585C115.78 30.4386 114.978 28.502 113.551 27.0736C112.124 25.6453 110.189 24.8419 108.17 24.8396V24.8396Z" fill="#F18009"/>
<path d="M108.958 28.5177H107.383V36.3994H108.958V28.5177Z" fill="#F18009"/>
<path d="M112.108 33.2467V31.6704H104.233V33.2467H112.108Z" fill="#F18009"/>
</g>
<defs>
<clipPath id="clip0">
<rect width="218" height="142" fill="white"/>
</clipPath>
</defs>
</svg>
