<svg width="214" height="173" viewBox="0 0 214 173" fill="none" xmlns="http://www.w3.org/2000/svg">
<g clip-path="url(#clip0)">
<path d="M200.486 6.05376H156.634C155.301 6.05376 154.22 7.13747 154.22 8.47429V8.90445C154.22 10.2413 155.301 11.325 156.634 11.325H200.486C201.819 11.325 202.9 10.2413 202.9 8.90445V8.47429C202.9 7.13747 201.819 6.05376 200.486 6.05376Z" fill="#F2F2F2"/>
<path d="M211.39 10.5449H167.538C166.205 10.5449 165.124 11.6286 165.124 12.9654V13.3956C165.124 14.7324 166.205 15.8161 167.538 15.8161H211.39C212.723 15.8161 213.804 14.7324 213.804 13.3956V12.9654C213.804 11.6286 212.723 10.5449 211.39 10.5449Z" fill="#F2F2F2"/>
<path d="M192.891 14.4503H149.039C147.706 14.4503 146.625 15.534 146.625 16.8708V17.301C146.625 18.6378 147.706 19.7215 149.039 19.7215H192.891C194.224 19.7215 195.305 18.6378 195.305 17.301V16.8708C195.305 15.534 194.224 14.4503 192.891 14.4503Z" fill="#F2F2F2"/>
<path d="M117.145 66.3896H73.2933C71.9601 66.3896 70.8794 67.4734 70.8794 68.8102V69.2403C70.8794 70.5772 71.9601 71.6609 73.2933 71.6609H117.145C118.478 71.6609 119.559 70.5772 119.559 69.2403V68.8102C119.559 67.4734 118.478 66.3896 117.145 66.3896Z" fill="#F2F2F2"/>
<path d="M128.048 70.8808H84.1966C82.8634 70.8808 81.7827 71.9645 81.7827 73.3013V73.7315C81.7827 75.0683 82.8634 76.152 84.1966 76.152H128.048C129.382 76.152 130.462 75.0683 130.462 73.7315V73.3013C130.462 71.9645 129.382 70.8808 128.048 70.8808Z" fill="#F2F2F2"/>
<path d="M109.549 74.7838H65.6975C64.3644 74.7838 63.2837 75.8675 63.2837 77.2043V77.6344C63.2837 78.9713 64.3644 80.055 65.6975 80.055H109.549C110.882 80.055 111.963 78.9713 111.963 77.6344V77.2043C111.963 75.8675 110.882 74.7838 109.549 74.7838Z" fill="#F2F2F2"/>
<g opacity="0.5">
<path opacity="0.5" d="M206.608 166.752C205.44 166.752 178.568 178.468 147.413 147.616C130.494 130.864 113.922 129.08 102.308 130.949C95.1705 132.096 88.6536 135.591 83.4914 140.653C79.3399 144.741 69.2918 150.311 45.7494 148.79C9.53177 146.447 -0.00976562 172.417 -0.00976562 172.417H213.99C213.99 172.417 207.769 166.752 206.608 166.752Z" fill="url(#paint0_linear)"/>
</g>
<path d="M0 173C0 173 9.54154 147.03 45.7592 149.373C69.3016 150.902 79.3521 145.324 83.4915 141.239C88.644 136.167 95.1585 132.682 102.289 131.535C113.902 129.666 130.477 131.45 147.393 148.202C178.548 179.054 205.421 167.338 206.589 167.338C207.757 167.338 213.988 173 213.988 173H0Z" fill="#F2F2F2"/>
<path opacity="0.02" d="M0 173C0 173 9.54154 147.03 45.7592 149.373C69.3016 150.902 79.3521 145.324 83.4915 141.239C88.644 136.167 95.1585 132.682 102.289 131.535C113.902 129.666 130.477 131.45 147.393 148.202C178.548 179.054 205.421 167.338 206.589 167.338C207.757 167.338 213.988 173 213.988 173H0Z" fill="black"/>
<path d="M68.4632 30.0695H24.6114C23.2782 30.0695 22.1975 31.1532 22.1975 32.4901V32.9202C22.1975 34.257 23.2782 35.3407 24.6114 35.3407H68.4632C69.7963 35.3407 70.8771 34.257 70.8771 32.9202V32.4901C70.8771 31.1532 69.7963 30.0695 68.4632 30.0695Z" fill="#F2F2F2"/>
<path d="M79.3692 34.5606H35.5174C34.1842 34.5606 33.1035 35.6443 33.1035 36.9812V37.4113C33.1035 38.7481 34.1842 39.8319 35.5174 39.8319H79.3692C80.7023 39.8319 81.7831 38.7481 81.7831 37.4113V36.9812C81.7831 35.6443 80.7023 34.5606 79.3692 34.5606Z" fill="#F2F2F2"/>
<path d="M60.8702 38.466H17.0184C15.6852 38.466 14.6045 39.5498 14.6045 40.8866V41.3167C14.6045 42.6536 15.6852 43.7373 17.0184 43.7373H60.8702C62.2033 43.7373 63.284 42.6536 63.284 41.3167V40.8866C63.284 39.5498 62.2033 38.466 60.8702 38.466Z" fill="#F2F2F2"/>
<g opacity="0.5">
<path opacity="0.5" d="M48.2919 39.443C59.1538 39.443 67.9591 30.6134 67.9591 19.7215C67.9591 8.82962 59.1538 0 48.2919 0C37.43 0 28.6248 8.82962 28.6248 19.7215C28.6248 30.6134 37.43 39.443 48.2919 39.443Z" fill="url(#paint1_linear)"/>
</g>
<path d="M48.2916 37.2947C57.9702 37.2947 65.8163 29.4269 65.8163 19.7215C65.8163 10.0161 57.9702 2.14835 48.2916 2.14835C38.6129 2.14835 30.7668 10.0161 30.7668 19.7215C30.7668 29.4269 38.6129 37.2947 48.2916 37.2947Z" fill="#FCCC63"/>
<path d="M54.2586 143.538H39.0144V154.895H54.2586V143.538Z" fill="#F18009"/>
<path d="M37.6861 143.076L46.2049 134.534C46.2666 134.472 46.3399 134.423 46.4206 134.389C46.5013 134.356 46.5878 134.338 46.6751 134.338C46.7625 134.338 46.8489 134.356 46.9296 134.389C47.0103 134.423 47.0836 134.472 47.1453 134.534L55.5962 143.008C55.6892 143.101 55.7526 143.22 55.7784 143.349C55.8042 143.478 55.7912 143.612 55.7412 143.734C55.6911 143.855 55.6062 143.959 55.4971 144.033C55.3881 144.106 55.2598 144.145 55.1285 144.146L38.1636 144.214C38.0314 144.215 37.9018 144.177 37.7912 144.105C37.6807 144.032 37.5943 143.928 37.543 143.806C37.4917 143.684 37.4779 143.549 37.5034 143.419C37.529 143.289 37.5926 143.17 37.6861 143.076Z" fill="#F18009"/>
<path opacity="0.05" d="M37.6861 143.076L46.2049 134.534C46.2666 134.472 46.3399 134.423 46.4206 134.389C46.5013 134.356 46.5878 134.338 46.6751 134.338C46.7625 134.338 46.8489 134.356 46.9296 134.389C47.0103 134.423 47.0836 134.472 47.1453 134.534L55.5962 143.008C55.6892 143.101 55.7526 143.22 55.7784 143.349C55.8042 143.478 55.7912 143.612 55.7412 143.734C55.6911 143.855 55.6062 143.959 55.4971 144.033C55.3881 144.106 55.2598 144.145 55.1285 144.146L38.1636 144.214C38.0314 144.215 37.9018 144.177 37.7912 144.105C37.6807 144.032 37.5943 143.928 37.543 143.806C37.4917 143.684 37.4779 143.549 37.5034 143.419C37.529 143.289 37.5926 143.17 37.6861 143.076Z" fill="black"/>
<path d="M46.4402 149.772H46.7456C47.2019 149.772 47.6396 149.953 47.9623 150.277C48.285 150.601 48.4663 151.039 48.4663 151.497V154.899H44.7195V151.497C44.7195 151.039 44.9008 150.601 45.2235 150.277C45.5462 149.953 45.9838 149.772 46.4402 149.772Z" fill="white"/>
<path d="M46.6777 137.562C47.1957 137.562 47.6156 137.141 47.6156 136.622C47.6156 136.102 47.1957 135.681 46.6777 135.681C46.1597 135.681 45.7397 136.102 45.7397 136.622C45.7397 137.141 46.1597 137.562 46.6777 137.562Z" fill="white"/>
<path d="M43.784 144.989H40.2068V147.721H43.784V144.989Z" fill="white"/>
<path d="M42.1652 144.989H41.8235V147.721H42.1652V144.989Z" fill="#F18009"/>
<path d="M53.3206 144.989H49.7434V147.721H53.3206V144.989Z" fill="white"/>
<path d="M51.704 144.989H51.3623V147.721H51.704V144.989Z" fill="#F18009"/>
<g opacity="0.2">
<path opacity="0.2" d="M109.666 131.513C109.634 131.506 109.666 131.513 109.666 131.513V131.513Z" fill="url(#paint2_linear)"/>
</g>
<g opacity="0.2">
<path opacity="0.2" d="M110.017 138.571H110.046C110.052 138.568 110.058 138.564 110.062 138.559C110.065 138.554 110.068 138.548 110.068 138.541C110.07 138.532 110.07 138.522 110.068 138.512V138.488C110.044 138.43 109.988 138.352 109.957 138.284L109.942 138.247C109.941 138.231 109.941 138.215 109.942 138.199C109.942 138.199 109.942 138.184 109.942 138.177L110.466 136.454L110.478 136.413C110.478 136.413 111.144 136.699 111.316 137.273C111.415 137.551 111.421 137.854 111.331 138.136L111.319 138.165H111.331V138.481H112.058C112.109 138.456 112.041 138.393 111.973 138.33L111.956 138.313L111.913 138.267C111.9 138.253 111.89 138.237 111.881 138.221L111.869 138.191V138.174H111.847V138.148C111.938 137.726 111.917 137.287 111.787 136.875C111.657 136.463 111.422 136.093 111.105 135.8C111.281 135.276 111.281 134.708 111.105 134.184C111.173 134.135 112.494 133.178 112.484 131.938C112.488 131.872 112.488 131.806 112.484 131.739C112.484 131.739 112.598 131.644 112.484 131.472V131.457H112.472H112.392C112.34 131.462 112.29 131.479 112.245 131.506C112.245 131.506 112.169 131.749 112.245 131.812H112.225C112.225 131.812 111.442 133.513 110.919 133.756L110.883 133.734V133.513C110.883 133.504 110.883 133.494 110.883 133.484C110.883 133.475 110.883 133.466 110.883 133.457C110.941 133.427 110.995 133.386 111.04 133.338C111.057 133.32 111.074 133.3 111.089 133.28L111.108 133.251L111.127 133.217L111.142 133.185C111.152 133.162 111.161 133.139 111.168 133.115V133.086V133.049C111.168 133.049 111.168 133.03 111.168 133.02C111.168 133.008 111.168 132.996 111.168 132.981C111.168 132.911 111.156 132.842 111.132 132.777C111.132 132.759 111.125 132.741 111.11 132.723L111.098 132.697L111.081 132.668C111.094 132.651 111.11 132.637 111.127 132.626C111.161 132.607 111.198 132.596 111.236 132.592H111.331H111.35C111.364 132.587 111.377 132.579 111.389 132.57C111.408 132.555 111.429 132.543 111.452 132.536H111.309H111.287H111.268H111.246H111.227H111.207H111.188H111.168H111.149L111.11 132.519C111.13 132.527 111.152 132.532 111.173 132.534H111.256H111.27L111.285 132.522V132.502H111.258H111.241C111.208 132.507 111.175 132.507 111.142 132.502H111.072H111.04L111.011 132.49C111.051 132.505 111.095 132.503 111.133 132.485C111.172 132.467 111.201 132.434 111.216 132.394C111.23 132.354 111.228 132.31 111.21 132.272C111.192 132.233 111.16 132.203 111.12 132.189L111.147 132.172C111.175 132.148 111.192 132.114 111.195 132.077C111.199 132.062 111.199 132.046 111.195 132.031L111.178 132.045H111.164C111.118 132.078 111.062 132.093 111.006 132.089H110.987C110.937 132.076 110.889 132.058 110.844 132.036L110.803 132.021H110.79H110.756H110.737H110.71H110.582C110.401 132.027 110.228 132.1 110.097 132.225C110.067 132.255 110.039 132.288 110.015 132.322C109.997 132.144 110.03 131.965 110.109 131.805H110.095H110.051L110.029 131.846C110.041 131.787 110.063 131.731 110.095 131.681H110.08C110.113 131.645 110.13 131.598 110.13 131.55C110.13 131.501 110.113 131.454 110.08 131.418C109.966 131.246 109.756 131.379 109.756 131.379C109.739 131.436 109.727 131.494 109.722 131.552L109.688 131.537C109.649 131.669 109.218 133.175 109.93 134.138C109.929 134.158 109.929 134.178 109.93 134.199V135.822L109.445 138.048L109.351 138.469L110.032 138.58L110.017 138.571ZM110.138 133.309C110.177 133.341 110.219 133.368 110.264 133.389C110.263 133.405 110.263 133.42 110.264 133.435V133.647L110.223 133.666C110.192 133.562 110.165 133.44 110.136 133.309H110.138Z" fill="url(#paint3_linear)"/>
</g>
<path d="M112.492 131.929C112.492 131.929 112.618 131.822 112.492 131.632C112.366 131.443 112.133 131.591 112.133 131.591C112.133 131.591 112.048 131.866 112.133 131.929C112.218 131.992 112.492 131.929 112.492 131.929Z" fill="#CA7070"/>
<path d="M111.188 139.015H111.769C111.767 139.043 111.771 139.071 111.781 139.097C111.79 139.123 111.806 139.146 111.825 139.166C111.903 139.256 112.067 139.365 111.988 139.409H111.188V139.015Z" fill="#00695C"/>
<path opacity="0.2" d="M111.782 139.166C111.762 139.146 111.747 139.123 111.738 139.097C111.728 139.071 111.724 139.043 111.726 139.015H111.767C111.765 139.043 111.769 139.071 111.779 139.097C111.788 139.123 111.804 139.146 111.823 139.166C111.901 139.256 112.065 139.365 111.985 139.409H111.944C112.017 139.365 111.859 139.256 111.782 139.166Z" fill="white"/>
<path d="M109.114 138.896L109.666 138.993C109.651 139.058 109.66 139.126 109.69 139.185C109.751 139.309 109.884 139.47 109.804 139.504L109.017 139.375L109.114 138.896Z" fill="#00695C"/>
<path d="M109.38 131.671C109.38 131.671 108.757 133.642 109.802 134.733L110.105 134.49C110.105 134.49 109.487 132.339 109.833 131.834C109.223 131.642 109.38 131.671 109.38 131.671Z" fill="#00695C"/>
<path d="M109.811 131.844C109.811 131.844 109.937 131.737 109.811 131.547C109.685 131.358 109.453 131.506 109.453 131.506C109.453 131.506 109.368 131.78 109.453 131.844C109.538 131.907 109.811 131.844 109.811 131.844Z" fill="#CA7070"/>
<path opacity="0.2" d="M109.642 139.176C109.611 139.117 109.603 139.049 109.618 138.984L109.114 138.901L109.666 138.993C109.651 139.058 109.66 139.126 109.69 139.185C109.751 139.309 109.884 139.47 109.804 139.504H109.77C109.824 139.445 109.7 139.295 109.642 139.176Z" fill="white"/>
<path d="M110.306 134.386H110.354C110.504 134.386 110.626 134.264 110.626 134.114V133.778C110.626 133.628 110.504 133.506 110.354 133.506H110.306C110.156 133.506 110.034 133.628 110.034 133.778V134.114C110.034 134.264 110.156 134.386 110.306 134.386Z" fill="#CA7070"/>
<path opacity="0.2" d="M110.061 134.619C110.061 134.619 109.45 132.495 109.782 131.972H109.831H109.845C109.499 132.478 110.117 134.629 110.117 134.629L109.814 134.872L109.787 134.843L110.061 134.619Z" fill="white"/>
<path d="M110.318 133.815C110.679 133.815 110.972 133.521 110.972 133.158C110.972 132.796 110.679 132.502 110.318 132.502C109.956 132.502 109.663 132.796 109.663 133.158C109.663 133.521 109.956 133.815 110.318 133.815Z" fill="#CA7070"/>
<path opacity="0.2" d="M110.551 134.089V133.802C110.553 133.781 110.553 133.76 110.551 133.739C110.679 133.674 110.782 133.568 110.843 133.437C110.905 133.307 110.923 133.16 110.893 133.019C110.863 132.878 110.788 132.751 110.679 132.657C110.569 132.563 110.432 132.508 110.289 132.5H110.325C110.472 132.5 110.615 132.549 110.73 132.64C110.845 132.731 110.927 132.858 110.962 133.001C110.996 133.144 110.982 133.295 110.921 133.428C110.86 133.562 110.756 133.672 110.626 133.739C110.628 133.76 110.628 133.781 110.626 133.802V134.089C110.626 134.168 110.595 134.243 110.539 134.299C110.484 134.354 110.408 134.386 110.33 134.386H110.294C110.365 134.376 110.431 134.341 110.478 134.286C110.525 134.232 110.551 134.162 110.551 134.089Z" fill="white"/>
<path d="M109.654 136.43C109.654 136.43 110.916 136.573 110.963 136.43C111.16 135.846 111.16 135.213 110.963 134.629C110.963 134.543 110.946 134.457 110.913 134.378C110.88 134.298 110.832 134.226 110.771 134.165C110.71 134.104 110.638 134.055 110.559 134.023C110.479 133.99 110.394 133.973 110.308 133.973C110.135 133.973 109.968 134.042 109.845 134.165C109.723 134.288 109.654 134.455 109.654 134.629V136.43Z" fill="#00695C"/>
<path d="M109.654 136.43L109.084 139.054H109.654L110.245 137.11C110.245 137.11 110.972 137.428 111.173 138.063C111.295 138.383 111.295 138.737 111.173 139.057H111.786V139.027C111.888 138.56 111.864 138.073 111.719 137.617C111.573 137.161 111.311 136.752 110.958 136.43" fill="#263238"/>
<path opacity="0.2" d="M110.878 136.43C111.076 135.846 111.076 135.213 110.878 134.629C110.878 134.462 110.814 134.302 110.7 134.18C110.586 134.059 110.431 133.985 110.265 133.975H110.306C110.479 133.975 110.646 134.044 110.769 134.167C110.891 134.29 110.96 134.457 110.96 134.631C111.158 135.215 111.158 135.848 110.96 136.432C110.943 136.483 110.771 136.498 110.555 136.495C110.742 136.49 110.878 136.473 110.878 136.43Z" fill="white"/>
<path d="M110.972 134.619C110.972 134.619 112.668 133.433 112.492 131.931H112.113C112.113 131.931 111.205 133.9 110.625 134.092C110.046 134.284 110.972 134.619 110.972 134.619Z" fill="#00695C"/>
<g opacity="0.2">
<path opacity="0.2" d="M110.233 137.151L109.654 139.064H109.569L110.16 137.12L110.233 137.151Z" fill="white"/>
<path opacity="0.2" d="M110.878 136.439H110.963C111.316 136.761 111.578 137.171 111.724 137.627C111.869 138.083 111.893 138.569 111.791 139.037V139.066H111.707V139.037C111.808 138.569 111.784 138.083 111.639 137.627C111.494 137.171 111.231 136.761 110.878 136.439Z" fill="white"/>
</g>
<path opacity="0.2" d="M112.429 131.946H112.492C112.662 133.45 110.972 134.634 110.972 134.634L110.931 134.617C111.12 134.478 112.586 133.353 112.429 131.946Z" fill="white"/>
<path d="M110.839 132.864C110.803 132.949 110.777 133.038 110.764 133.129C110.747 133.222 110.711 133.311 110.66 133.391C110.608 133.47 110.541 133.538 110.463 133.591C110.373 133.64 110.272 133.668 110.17 133.671C110.092 133.681 110.014 133.674 109.939 133.652C109.864 133.629 109.795 133.591 109.736 133.54C109.667 133.465 109.621 133.373 109.603 133.273C109.57 133.124 109.575 132.97 109.618 132.824C109.66 132.678 109.738 132.545 109.845 132.437C109.954 132.331 110.09 132.259 110.238 132.227C110.386 132.196 110.539 132.207 110.681 132.259C110.732 132.284 110.786 132.304 110.841 132.318C110.885 132.326 110.93 132.323 110.972 132.31C111.015 132.296 111.053 132.272 111.083 132.24C111.09 132.262 111.092 132.285 111.088 132.308C111.084 132.331 111.075 132.352 111.061 132.371C111.048 132.389 111.03 132.404 111.009 132.414C110.989 132.424 110.966 132.43 110.943 132.429C110.991 132.453 111.044 132.466 111.098 132.469C111.151 132.472 111.205 132.464 111.256 132.446C111.227 132.507 111.177 132.554 111.115 132.579C111.053 132.604 110.983 132.604 110.921 132.58C111.04 132.633 111.169 132.66 111.299 132.658C111.273 132.658 111.219 132.709 111.185 132.719C111.143 132.722 111.101 132.722 111.059 132.719C111.012 132.719 110.967 132.733 110.927 132.759C110.888 132.785 110.857 132.821 110.839 132.864Z" fill="#263238"/>
<g opacity="0.2">
<path opacity="0.2" d="M110.926 132.432C110.975 132.455 111.027 132.468 111.081 132.471C111.011 132.476 110.941 132.462 110.878 132.432C110.898 132.432 110.918 132.428 110.937 132.419C110.956 132.411 110.973 132.399 110.987 132.384C111.001 132.369 111.011 132.351 111.018 132.332C111.025 132.312 111.027 132.292 111.025 132.271L111.059 132.242C111.066 132.264 111.068 132.286 111.064 132.309C111.061 132.331 111.052 132.352 111.04 132.37C111.027 132.388 111.01 132.404 110.99 132.414C110.97 132.425 110.949 132.431 110.926 132.432Z" fill="white"/>
<path opacity="0.2" d="M110.795 132.318C110.74 132.304 110.687 132.284 110.635 132.259C110.558 132.228 110.476 132.211 110.393 132.208C110.493 132.205 110.593 132.222 110.686 132.259C110.737 132.284 110.791 132.304 110.846 132.318H110.868C110.844 132.321 110.819 132.321 110.795 132.318Z" fill="white"/>
<path opacity="0.2" d="M111.12 132.719C111.154 132.719 111.207 132.658 111.234 132.658C111.104 132.66 110.975 132.633 110.856 132.58C110.883 132.591 110.912 132.597 110.941 132.597C111.048 132.638 111.163 132.658 111.278 132.655C111.251 132.655 111.198 132.706 111.164 132.716C111.135 132.721 111.105 132.721 111.077 132.716L111.12 132.719Z" fill="white"/>
<path opacity="0.2" d="M110.126 133.671C110.229 133.668 110.329 133.64 110.42 133.591C110.498 133.538 110.565 133.47 110.616 133.391C110.668 133.311 110.703 133.222 110.72 133.129C110.734 133.038 110.759 132.949 110.795 132.864C110.814 132.825 110.844 132.792 110.88 132.768C110.916 132.744 110.958 132.73 111.001 132.728H111.043C110.999 132.73 110.957 132.744 110.921 132.768C110.885 132.792 110.856 132.825 110.837 132.864C110.8 132.949 110.775 133.038 110.761 133.129C110.745 133.222 110.709 133.311 110.658 133.391C110.606 133.47 110.539 133.538 110.461 133.591C110.371 133.64 110.27 133.668 110.168 133.671H110.126Z" fill="white"/>
<path opacity="0.2" d="M110.977 132.599C111.022 132.596 111.065 132.582 111.103 132.558C111.141 132.534 111.172 132.5 111.193 132.461L111.242 132.446C111.218 132.496 111.181 132.537 111.133 132.565C111.086 132.592 111.032 132.604 110.977 132.599Z" fill="white"/>
</g>
<path opacity="0.2" d="M112.45 131.929C112.45 131.929 112.576 131.822 112.45 131.632C112.434 131.605 112.411 131.581 112.383 131.564C112.356 131.547 112.325 131.537 112.293 131.535C112.332 131.531 112.371 131.537 112.406 131.555C112.442 131.572 112.471 131.599 112.492 131.632C112.618 131.822 112.492 131.929 112.492 131.929C112.412 131.946 112.331 131.955 112.249 131.955C112.317 131.952 112.384 131.943 112.45 131.929Z" fill="white"/>
<path d="M115.34 129.569C115.34 129.569 114.717 131.54 115.761 132.631L116.064 132.388C116.064 132.388 115.446 130.237 115.793 129.732C115.182 129.54 115.34 129.569 115.34 129.569Z" fill="#FF5252"/>
<path d="M115.771 129.744C115.771 129.744 115.897 129.637 115.771 129.447C115.645 129.258 115.412 129.406 115.412 129.406C115.412 129.406 115.327 129.681 115.412 129.744C115.497 129.807 115.771 129.744 115.771 129.744Z" fill="#F6B9AD"/>
<path d="M116.266 132.286H116.314C116.464 132.286 116.585 132.164 116.585 132.014V131.678C116.585 131.528 116.464 131.406 116.314 131.406H116.266C116.116 131.406 115.994 131.528 115.994 131.678V132.014C115.994 132.164 116.116 132.286 116.266 132.286Z" fill="#F6B9AD"/>
<path opacity="0.2" d="M116.02 132.527C116.02 132.527 115.41 130.403 115.742 129.88H115.79H115.805C115.458 130.386 116.076 132.536 116.076 132.536L115.773 132.779L115.747 132.75L116.02 132.527Z" fill="white"/>
<path d="M116.277 131.712C116.639 131.712 116.932 131.419 116.932 131.056C116.932 130.694 116.639 130.4 116.277 130.4C115.916 130.4 115.623 130.694 115.623 131.056C115.623 131.419 115.916 131.712 116.277 131.712Z" fill="#F6B9AD"/>
<path opacity="0.2" d="M116.51 131.987V131.703C116.512 131.682 116.512 131.661 116.51 131.64C116.638 131.574 116.741 131.468 116.803 131.338C116.864 131.207 116.882 131.06 116.852 130.919C116.822 130.778 116.747 130.651 116.638 130.557C116.529 130.463 116.392 130.408 116.248 130.4H116.284C116.431 130.4 116.574 130.449 116.689 130.54C116.805 130.631 116.886 130.758 116.921 130.901C116.956 131.044 116.941 131.195 116.88 131.329C116.819 131.463 116.715 131.572 116.585 131.64C116.587 131.661 116.587 131.682 116.585 131.703V131.989C116.585 132.068 116.554 132.144 116.498 132.199C116.443 132.255 116.368 132.286 116.289 132.286H116.253C116.325 132.276 116.391 132.241 116.438 132.186C116.486 132.13 116.511 132.06 116.51 131.987Z" fill="white"/>
<path d="M115.613 134.327C115.613 134.327 116.876 134.471 116.922 134.327C117.072 133.866 116.68 133.355 116.871 133.112C116.93 133.026 116.966 132.927 116.975 132.823C116.984 132.719 116.966 132.614 116.922 132.519C116.922 132.433 116.905 132.348 116.872 132.268C116.839 132.189 116.791 132.116 116.73 132.055C116.67 131.994 116.597 131.946 116.518 131.913C116.439 131.88 116.354 131.863 116.268 131.863C116.094 131.863 115.928 131.932 115.805 132.055C115.682 132.178 115.613 132.345 115.613 132.519V134.327Z" fill="#FF5252"/>
<path opacity="0.2" d="M116.873 133.122C116.933 133.036 116.968 132.936 116.977 132.832C116.986 132.728 116.968 132.624 116.924 132.529C116.924 132.355 116.855 132.188 116.733 132.065C116.61 131.942 116.444 131.873 116.27 131.873H116.229C116.395 131.883 116.55 131.957 116.664 132.078C116.778 132.2 116.842 132.36 116.842 132.527C116.886 132.621 116.904 132.726 116.895 132.83C116.886 132.934 116.85 133.034 116.791 133.12C116.587 133.363 116.992 133.863 116.842 134.335C116.827 134.378 116.697 134.395 116.524 134.398C116.738 134.398 116.91 134.386 116.927 134.335C117.075 133.866 116.67 133.365 116.873 133.122Z" fill="white"/>
<path d="M116.653 134.286C117.14 135.058 117.329 135.982 117.186 136.884V136.913H116.794C116.872 136.587 116.872 136.246 116.794 135.919C116.719 135.539 116.507 135.199 116.197 134.967L115.817 136.911H115.451L115.817 134.286H116.653Z" fill="#F6B9AD"/>
<path d="M118.875 130.509C118.875 130.509 119.028 130.446 118.963 130.225C118.897 130.004 118.633 130.079 118.633 130.079C118.633 130.079 118.471 130.322 118.534 130.403C118.597 130.483 118.875 130.509 118.875 130.509Z" fill="#F6B9AD"/>
<path d="M116.634 132.633C116.634 132.633 118.594 131.997 118.873 130.509L118.509 130.398C118.509 130.398 117.055 132.014 116.454 132.026C115.853 132.038 116.634 132.633 116.634 132.633Z" fill="#FF5252"/>
<path opacity="0.2" d="M118.805 130.512L118.866 130.531C118.587 132.019 116.626 132.655 116.626 132.655L116.592 132.629C116.823 132.546 118.546 131.9 118.805 130.512Z" fill="white"/>
<g opacity="0.2">
<path opacity="0.2" d="M116.108 134.964L115.728 136.908H115.812L116.181 135.018C116.157 134.999 116.133 134.981 116.108 134.964Z" fill="white"/>
<path opacity="0.2" d="M116.653 134.286H116.569C117.055 135.058 117.245 135.982 117.102 136.884V136.913H117.179V136.884C117.325 135.983 117.138 135.059 116.653 134.286Z" fill="white"/>
</g>
<path opacity="0.2" d="M118.832 130.488C118.832 130.488 118.984 130.424 118.919 130.203C118.911 130.172 118.896 130.143 118.875 130.119C118.854 130.095 118.827 130.077 118.798 130.065C118.836 130.072 118.872 130.09 118.901 130.116C118.929 130.143 118.95 130.177 118.96 130.215C119.025 130.434 118.873 130.5 118.873 130.5C118.791 130.493 118.709 130.478 118.63 130.454C118.696 130.47 118.764 130.482 118.832 130.488Z" fill="white"/>
<path d="M115.614 134.257L114.819 135.939C115.283 135.962 115.746 136.018 116.202 136.106C117.082 136.274 117.501 135.863 117.501 135.863L116.937 134.257H115.614Z" fill="#263238"/>
<path d="M115.824 136.903C115.824 136.903 116.243 136.989 116.158 137.146H115.405L115.446 136.903H115.824Z" fill="#FF5252"/>
<path d="M117.164 136.903C117.164 136.903 117.584 136.989 117.499 137.146H116.745L116.786 136.903H117.164Z" fill="#FF5252"/>
<path d="M116.871 130.517C116.871 130.517 115.866 131.946 116.326 132.534L114.525 132.493C114.525 132.493 115.027 129.255 116.871 130.517Z" fill="#FCCC63"/>
<path opacity="0.2" d="M116.871 130.517C116.665 130.363 116.423 130.265 116.168 130.23C116.341 130.286 116.505 130.368 116.653 130.473C116.653 130.473 115.647 131.902 116.108 132.49L114.523 132.454V132.49L116.323 132.531C115.865 131.946 116.871 130.517 116.871 130.517Z" fill="white"/>
<path opacity="0.2" d="M116.937 134.257H116.811L117.378 135.854C117.143 136.047 116.848 136.15 116.544 136.145C116.893 136.18 117.241 136.075 117.514 135.854L116.937 134.257Z" fill="white"/>
<path opacity="0.2" d="M115.824 136.903H115.739C115.739 136.903 116.159 136.989 116.074 137.146H116.159C116.243 136.986 115.824 136.903 115.824 136.903Z" fill="white"/>
<path opacity="0.2" d="M117.164 136.903H117.08C117.08 136.903 117.499 136.989 117.414 137.146H117.499C117.584 136.986 117.164 136.903 117.164 136.903Z" fill="white"/>
<path d="M175.834 97.4361L173.498 84.3517L180.897 83.9896V97.4361H185.959L191.022 82.9859" stroke="#B3B3B3" stroke-miterlimit="10"/>
<path d="M184.406 96.0679H177.387C173.733 96.0679 170.771 99.0383 170.771 102.702V103.884C170.771 107.548 173.733 110.518 177.387 110.518H184.406C188.06 110.518 191.022 107.548 191.022 103.884V102.702C191.022 99.0383 188.06 96.0679 184.406 96.0679Z" fill="#F18009"/>
<path opacity="0.05" d="M184.013 96.0679H178.173C176.263 96.0736 174.434 96.8367 173.084 98.1904C171.734 99.5442 170.973 101.379 170.967 103.293C170.967 103.458 170.967 103.619 170.987 103.779C171.115 101.954 171.927 100.245 173.26 98.9956C174.593 97.746 176.348 97.0483 178.173 97.0424H184.013C185.838 97.0483 187.593 97.746 188.926 98.9956C190.258 100.245 191.071 101.954 191.199 103.779C191.199 103.619 191.219 103.456 191.219 103.293C191.213 101.379 190.452 99.5442 189.102 98.1904C187.752 96.8367 185.922 96.0736 184.013 96.0679Z" fill="black"/>
<path d="M185.562 100.372L183.65 98.8676L179.026 104.741L176.539 102.809L174.983 104.793L178.599 107.563L179.496 108.285L185.562 100.372Z" fill="url(#paint4_linear)"/>
<path d="M185.421 100.335L183.686 99.0037L179.093 105.011L176.541 103.048L175.211 104.788L178.631 107.412L179.508 108.071L185.421 100.335Z" fill="#69F0AE"/>
<path d="M211.618 56.9627C211.618 73.6488 197.716 87.1756 182.915 87.1756C168.115 87.1756 152.946 73.6488 152.946 56.9627C152.946 40.2766 168.115 26.7498 182.918 26.7498C197.721 26.7498 211.618 40.2766 211.618 56.9627Z" fill="url(#paint5_linear)"/>
<path d="M210.244 56.9627C210.244 72.8687 196.994 85.7612 182.884 85.7612C168.774 85.7612 154.315 72.8687 154.315 56.9627C154.315 41.0567 168.779 28.1739 182.886 28.1739C196.994 28.1739 210.244 41.0543 210.244 56.9627Z" fill="#F18009"/>
<path d="M184.849 86.7722H178.502V88.9959H184.849V86.7722Z" fill="#F18009"/>
<g opacity="0.2">
<path opacity="0.2" d="M182.886 28.0646C182.549 28.0646 182.215 28.0646 181.878 28.0889C195.603 28.6843 208.229 41.3362 208.229 56.8631C208.229 72.3899 195.603 85.0418 181.888 85.6372C182.225 85.6518 182.562 85.6615 182.896 85.6615C197.004 85.6615 210.256 72.769 210.256 56.8631C210.256 40.9571 196.994 28.0646 182.886 28.0646Z" fill="black"/>
</g>
<g opacity="0.2">
<path opacity="0.2" d="M155.932 56.9627C155.932 41.2851 169.988 28.5287 183.895 28.1739C183.693 28.1739 183.492 28.1739 183.291 28.1739C169.184 28.1739 154.722 41.0664 154.722 56.9724C154.722 72.8784 169.181 85.7709 183.289 85.7709C183.49 85.7709 183.691 85.7709 183.892 85.7709C169.981 85.3918 155.932 72.6475 155.932 56.9627Z" fill="white"/>
</g>
<path d="M191.1 81.7197H172.86V87.6811H191.1V81.7197Z" fill="#F18009"/>
<path opacity="0.2" d="M172.86 30.2615C172.86 30.2615 151.196 55.0938 172.86 83.6639L180.015 83.6396C180.015 83.6396 160.265 60.037 179.108 28.4728L175.587 29.2773L172.86 30.2615Z" fill="white"/>
<path opacity="0.2" d="M191.703 29.8751C191.703 29.8751 213.367 55.0865 191.703 83.6566L184.549 83.6323C184.549 83.6323 204.298 59.8158 185.455 28.259L188.982 28.9662L191.703 29.8751Z" fill="white"/>
</g>
<defs>
<linearGradient id="paint0_linear" x1="107" y1="172.414" x2="107" y2="130.356" gradientUnits="userSpaceOnUse">
<stop stop-color="#808080" stop-opacity="0.25"/>
<stop offset="0.54" stop-color="#808080" stop-opacity="0.12"/>
<stop offset="1" stop-color="#808080" stop-opacity="0.1"/>
</linearGradient>
<linearGradient id="paint1_linear" x1="7866.38" y1="6401.6" x2="7866.38" y2="0" gradientUnits="userSpaceOnUse">
<stop stop-color="#808080" stop-opacity="0.25"/>
<stop offset="0.54" stop-color="#808080" stop-opacity="0.12"/>
<stop offset="1" stop-color="#808080" stop-opacity="0.1"/>
</linearGradient>
<linearGradient id="paint2_linear" x1="629.37" y1="133.604" x2="629.37" y2="133.604" gradientUnits="userSpaceOnUse">
<stop stop-color="#808080" stop-opacity="0.25"/>
<stop offset="0.54" stop-color="#808080" stop-opacity="0.12"/>
<stop offset="1" stop-color="#808080" stop-opacity="0.1"/>
</linearGradient>
<linearGradient id="paint3_linear" x1="-8420.65" y1="4947.48" x2="-8420.65" y2="4730.92" gradientUnits="userSpaceOnUse">
<stop stop-color="#808080" stop-opacity="0.25"/>
<stop offset="0.54" stop-color="#808080" stop-opacity="0.12"/>
<stop offset="1" stop-color="#808080" stop-opacity="0.1"/>
</linearGradient>
<linearGradient id="paint4_linear" x1="180.253" y1="108.296" x2="180.275" y2="98.8691" gradientUnits="userSpaceOnUse">
<stop stop-opacity="0.12"/>
<stop offset="0.55" stop-opacity="0.09"/>
<stop offset="1" stop-opacity="0.02"/>
</linearGradient>
<linearGradient id="paint5_linear" x1="53581.3" y1="27386.3" x2="53581.3" y2="12362.1" gradientUnits="userSpaceOnUse">
<stop stop-color="#808080" stop-opacity="0.25"/>
<stop offset="0.54" stop-color="#808080" stop-opacity="0.12"/>
<stop offset="1" stop-color="#808080" stop-opacity="0.1"/>
</linearGradient>
<clipPath id="clip0">
<rect width="214" height="173" fill="white"/>
</clipPath>
</defs>
</svg>
